<svg xmlns="http://www.w3.org/2000/svg" viewBox="0 0 36 37.4"><path fill="#BA874D" d="M34.16 19.85c.2.31.2.57.02.83-.2.29-.48.46-.83.47-.27.01-.46-.13-.57-.38-.09-.21-.11-.43-.06-.66.16-.73.89-1.33 1.65-1.32.42 0 .75.18.99.52.5.7.56 1.47.35 2.27a3.22 3.22 0 0 1-1.06 1.68c-.55.48-1.22.66-1.96.58-.22-.03-.44-.07-.67-.11 0 .08.07.11.11.15.95 1.08 1.41 2.31 1.23 3.76-.06.54-.17 1.07-.4 1.57-.26.56-.61 1.05-1.09 1.44-.18.15-.35.3-.53.44-.85.69-1.82.9-2.88.71-.16-.03-.28-.01-.41.1-.83.68-1.8 1.01-2.85 1.14-.19.02-.37.04-.56.04-.13 0-.17.06-.19.17-.05.33-.14.65-.25.96-.63 1.67-1.85 2.64-3.56 3.02-1.05.23-2.08.08-3.07-.33-.63-.26-1.11-.72-1.46-1.31-.04-.07-.07-.14-.14-.21-.08.06-.12.14-.17.21-.52.66-1.2 1-2.04.93-.71-.06-1.34-.34-1.85-.85-.83-.83-1.13-1.84-.93-2.99.08-.46.21-.91.35-1.36.17-.55.34-1.1.43-1.68.06-.37.07-.75-.02-1.12-.1-.38-.31-.67-.62-.92-.06.08-.06.16-.07.24-.13.64-.39 1.22-.87 1.68-.42.4-.91.62-1.49.59-.49-.02-.91-.21-1.24-.58-.41-.48-.45-1.07-.1-1.6.22-.33.51-.57.85-.76.38-.21.78-.37 1.2-.49.13-.04.18-.1.2-.23.06-.67.04-1.34-.1-2-.14-.65-.52-1.11-1.09-1.43-.32-.16-.63-.18-.94-.02-.51.25-.9.6-1.02 1.18-.12.53.25 1.14.77 1.29.06.02.11.03.17.05.12.04.23.09.33.15.18.12.33.27.3.51-.03.25-.21.37-.43.44-.37.11-.73.06-1.08-.08-.75-.33-1.19-.92-1.34-1.72-.1-.54.08-1.04.42-1.46.54-.66 1.22-1.12 2.1-1.2.02 0 .04 0 .05-.06-.54-.11-1.02-.34-1.49-.67-.09.37-.25.68-.48.95-.44.52-1.02.79-1.67.94-1.6.37-3.27-.53-3.85-2.07-.34-.9-.19-1.71.44-2.44.32-.38.72-.67 1.12-.95.59-.4 1.22-.72 1.86-1.02.42-.2.83-.4 1.25-.6.17-.09.34-.19.51-.28.45-.27.77-.64 1-1.11.6-1.23.75-2.52.42-3.85-.08-.34-.24-.65-.49-.9-.17-.16-.32-.32-.5-.46-.39-.3-.81-.39-1.29-.27-.32.08-.61.23-.86.44-.45.39-.8.83-.92 1.43-.09.48.03.9.39 1.24.28.26.58.26.87.01.03-.03.06-.06.1-.09a.928.928 0 0 1 1.44.27c.11.2.12.41.04.63-.1.27-.28.47-.54.59-.68.33-1.38.34-2.04-.02-.91-.48-1.36-1.26-1.31-2.3.01-.26.08-.52.19-.75.46-.93 1.16-1.62 2.13-2.02.58-.23 1.17-.23 1.76-.01.05.02.11.04.16.05 0 0 .01-.01.03-.01-.02-.14-.06-.28-.07-.42-.12-1.11.2-2.1.84-2.99.09-.13.21-.24.32-.35.48-.45 1.04-.59 1.66-.42.99.27 1.59.94 1.82 1.92.17.69-.32 1.6-.96 1.9-.43.21-.86.18-1.27-.07-.35-.2-.49-.56-.42-.95.04-.18.16-.29.37-.31.17-.02.27.02.52.16.49-.5.4-1.23.09-1.63-.23-.3-.57-.36-.91-.16-.15.09-.3.21-.41.36-.61.84-.84 1.76-.56 2.76.21.76.69 1.32 1.43 1.64.5.22.97.17 1.4-.17.65-.5 1.02-1.15 1.06-1.97.03-.54-.05-1.08-.11-1.62-.04-.39-.08-.79-.07-1.19.03-.72.32-1.32.88-1.78.67-.55 1.45-.89 2.3-1.03.44-.08.89-.09 1.33.01.17.04.28-.01.4-.11.55-.47 1.17-.79 1.87-.95 1.47-.33 2.87-.11 4.18.62.31.17.58.4.82.67.07.08.13.11.23.05.56-.31 1.16-.46 1.79-.53.22-.02.45 0 .67.04.41.07.8.2 1.17.39.34.17.63.41.87.71.23.29.42.6.58.93.21.44.26.91.25 1.39-.01.33-.06.66-.15.98-.01.03-.04.06-.01.1.04 0 .07-.02.1-.04.64-.45 1.34-.55 2.1-.38.65.15 1.19.47 1.66.93 1.14 1.11 1.76 2.45 1.77 4.05 0 .44-.06.88-.21 1.3-.04.12-.02.21.05.31.45.62.72 1.31.74 2.09.01.38-.04.75-.16 1.11-.17.51-.4.99-.7 1.43-.31.46-.63.91-.95 1.37-.18.25-.35.51-.5.78-.15.28-.26.58-.31.9-.02.17-.01.33.04.49.22.74.7 1.25 1.4 1.55.2.09.41.13.63.12.35-.02.65-.16.87-.45.41-.54.61-1.42.12-2.17-.07-.17-.18-.28-.41-.35zm-9.52 4.55c-.01 0-.02-.01-.02-.01-.07.02-.12.07-.19.11-.42.26-.87.46-1.38.48-.95.02-1.66-.43-2.09-1.26-.47-.9-.32-1.78.23-2.6.34-.5.83-.68 1.41-.58.6.1.97.48 1.13 1.06.08.27-.02.48-.26.62-.42.24-1.08.07-1.23-.42-.03-.08-.05-.18-.13-.24-.21.18-.33.39-.4.73-.16.7.19 1.41.81 1.69.21.1.4.08.59-.06.19-.14.35-.3.48-.5.34-.5.62-1.04.83-1.61.36-.96.48-1.97.6-2.98.07-.59.08-1.18.12-1.77.01-.16 0-.32 0-.53-.16.26-.27.51-.37.75-.2.46-.39.91-.61 1.36-.13.27-.29.53-.51.75-.28.29-.62.38-1.01.32-.19-.03-.36-.1-.52-.2-.44-.27-.67-.68-.81-1.16-.04-.14-.07-.28-.1-.41-.05.01-.07.04-.09.07-.27.44-.55.88-.88 1.28-.06.08-.06.16-.05.24.04.29.04.58.05.86.03.81-.06 1.6-.28 2.38-.09.33-.22.66-.43.94-.33.44-.77.59-1.3.48-.95-.21-1.65-.96-1.82-1.95-.1-.57-.11-1.13-.06-1.7.02-.21 0-.38-.17-.56-.35-.38-.59-.84-.54-1.37.07-.8.41-1.47 1.06-1.96.45-.34.96-.42 1.5-.28.57.15 1 .51 1.3 1 .2.33.34.68.46 1.05.02.06.04.12.06.17.06-.02.08-.06.1-.09.34-.48.64-.98.93-1.49.05-.09.06-.18.06-.27 0-.51.01-1.01.06-1.51.03-.29.06-.59.17-.87.13-.32.39-.46.72-.42.39.05.68.31.79.7.07.25.06.5.06.75 0 .45-.01.89-.02 1.34 0 .37.02.74.09 1.1.05.27.11.54.21.81.11-.05.16-.13.21-.2.26-.32.46-.68.64-1.05.4-.82.79-1.65 1.22-2.46.03-.05.05-.1.07-.16.05-.2.22-.31.47-.29.27.02.48.16.64.37.15.19.24.41.3.64.12.43.15.87.16 1.31.04 1.24-.04 2.47-.26 3.69-.15.82-.37 1.62-.77 2.36-.01.03-.05.06-.02.08 1.55-.64 3.11-.76 4.72-.12-.05-.06-.06-.09-.08-.11-.62-.84-.74-1.75-.33-2.72.14-.34.33-.66.53-.96l.9-1.35c.19-.28.37-.57.52-.87.36-.72.55-1.49.49-2.3-.01-.14-.03-.28-.07-.42-.09.02-.12.08-.17.12-.29.25-.61.44-.97.55-.72.2-1.38.1-1.95-.4-.59-.52-.66-1.25-.2-1.88.32-.44.77-.69 1.3-.78.32-.05.63-.04.95.01.08.01.12 0 .13-.09.01-.06.01-.11.02-.17.02-.34.01-.68-.04-1.02-.08-.64-.21-1.27-.47-1.86-.2-.46-.46-.87-.83-1.2-.7-.63-1.53-.62-2.17.01-.39.38-.63.86-.76 1.39-.1.42 0 .8.36 1.09.2.15.21.15.37.05.39-.25.9-.2 1.24.12.33.31.32.74-.06 1-.66.45-1.58.47-2.2-.24-.12-.14-.22-.3-.33-.46-.02.02-.04.03-.05.04-.29.48-.49 1-.53 1.56-.03.39.05.76.26 1.09.19.31.59.26.76.06a.76.76 0 0 0 .19-.52c0-.09-.02-.14-.12-.13a.467.467 0 0 1-.36-.12c-.18-.16-.15-.38.06-.5.13-.08.27-.09.42-.06.36.06.65.34.74.7.06.26.02.5-.05.75-.17.59-.84 1.22-1.74.97-1.05-.29-1.64-1.47-1.27-2.52.09-.24.2-.46.32-.69.03-.06.08-.12.09-.2-.08.02-.12.06-.17.1-.21.15-.44.28-.67.4-.57.3-1.18.47-1.83.44-.24-.01-.49.01-.74 0-.57-.01-1.1.1-1.61.37-.58.3-.83.79-.9 1.41-.02.14.06.23.19.28.11.04.23.04.34.01.1-.03.15-.11.19-.19.04-.08-.01-.13-.05-.19l-.03-.06c-.06-.13-.06-.26.01-.32.09-.09.2-.07.3-.03.21.08.34.23.41.44.19.56-.21 1.16-.81 1.22-.71.07-1.42-.55-1.49-1.28-.05-.53.15-.99.47-1.4.04-.05.1-.09.12-.17-.61.1-1.16.47-1.47.96-.16.26-.29.55-.38.85-.09.3-.1.61-.02.92.02.09.03.2.14.24.06-.06.06-.13.09-.19.08-.2.25-.28.45-.2.22.08.36.29.34.52-.01.1-.03.2-.05.3-.11.43-.34.62-.79.62-.09 0-.17 0-.26-.02-.69-.15-1.14-.57-1.36-1.23-.2-.59-.06-1.14.24-1.66.4-.68.96-1.18 1.68-1.51.21-.1.42-.18.64-.27-.03-.04-.07-.05-.11-.07-.35-.15-.69-.32-1.01-.53-.21-.13-.42-.25-.65-.35-.15-.07-.3-.11-.45-.14a.812.812 0 0 0-.51.07c-.12.05-.18.17-.17.3.01.12.09.16.2.19.23.06.43.18.54.4.11.22.04.43-.18.55-.1.05-.2.07-.31.08-.58.03-1.21-.42-1.36-.98-.18-.66.24-1.24.81-1.32.11-.02.21-.03.32-.04.42-.02.8.11 1.17.28.36.16.7.38 1.03.59.3.19.61.35.96.45.04.01.09.03.14.01-.02-.02-.02-.04-.03-.05-.63-.48-1.17-1.04-1.71-1.62-.43-.47-.9-.9-1.38-1.31-.25-.21-.52-.39-.81-.53-.37-.17-.76-.28-1.17-.25-.35.03-.65.18-.89.44-.12.13-.12.21 0 .34.18.2.42.26.68.26.06 0 .11-.03.16-.06.08-.06.12-.12.08-.22a.53.53 0 0 1-.03-.28c.02-.12.06-.23.18-.27.12-.04.21.02.29.1.21.21.3.47.26.77-.1.71-.69 1.14-1.4 1.03-.09-.01-.17-.04-.25-.06-.17-.05-.17-.05-.2.12-.09.47-.26.9-.56 1.28-.81 1.03-2.18 1.56-3.55 1.13-.06-.02-.11-.06-.18-.02-.01.07.03.13.05.19.38 1 .38 2 .07 3.02-.32 1.09-.96 1.91-2.04 2.35-.27.11-.53.23-.8.34-.59.24-1.18.46-1.76.74-.56.27-1.08.59-1.51 1.03-.44.44-.63.96-.52 1.58.11.6.43 1.04.97 1.33.39.21.78.14 1.18.02.9-.27 1.31-1.37.79-2.16a.943.943 0 0 0-.45-.36c-.11-.04-.19-.02-.27.07-.23.24-.27.49-.1.78.19.31.05.58-.26.69a.844.844 0 0 1-1.12-.85c.04-.64.62-1.33 1.25-1.48.29-.07.57-.02.85.07.24.08.46.2.67.34.07-.08.08-.17.12-.25.22-.46.53-.82 1.03-1 .69-.25 1.55-.02 1.98.54.17.22.26.47.23.75-.02.22-.13.36-.27.38-.13-.02-.25-.12-.34-.33-.06-.16-.12-.31-.23-.44-.22-.27-.49-.32-.79-.14-.37.23-.52.58-.47 1 .09.67.41 1.19 1.08 1.44l.57.21c.51.21.93.53 1.23.99.25.38.5.75.7 1.16.07.15.16.29.27.42.03-.07 0-.12-.02-.18-.14-.6-.19-1.2-.05-1.8.1-.42.23-.82.49-1.17.15-.2.33-.34.57-.41.68-.19 1.45.31 1.57 1 .05.32-.1.55-.41.64a.972.972 0 0 1-1.04-.36c-.04-.05-.06-.13-.14-.16-.13.15-.21.32-.27.5-.14.44-.14.88-.07 1.33.07.43.23.82.52 1.15.12.14.25.26.41.35.29.16.54.11.76-.14.11-.12.19-.26.25-.4.18-.37.32-.76.42-1.16.19-.82.25-1.65.27-2.49.01-.86-.03-1.72-.05-2.58-.02-.96-.06-1.92.05-2.88 0-.03.02-.07-.02-.1-.05-.01-.08.03-.11.05-.39.24-.79.46-1.19.66-.3.15-.59.3-.88.46-.41.23-.79.5-1.12.84-.33.34-.56.73-.65 1.2-.02.1-.05.2-.09.29-.06.17-.17.24-.35.23a.714.714 0 0 1-.45-.2c-.21-.19-.3-.44-.33-.71-.04-.47.08-.9.32-1.3.37-.63.87-1.13 1.52-1.47.44-.23.92-.38 1.4-.52.38-.11.77-.2 1.14-.35.35-.14.69-.29.99-.52.17-.13.29-.29.36-.5.07-.25.15-.5.28-.73.1-.18.22-.23.41-.2.24.05.4.25.39.5-.01.17-.03.33-.04.5-.03.63.01 1.25.04 1.88.05.91.02 1.82.07 2.73.05.85.09 1.7.12 2.55.04 1.02-.02 2.03-.25 3.03-.12.52-.31 1.02-.65 1.45-.87 1.1-2.74 1.19-3.64-.03-.03-.04-.05-.1-.12-.11v.07c.17.6.24 1.22.25 1.84 0 .11.05.16.15.2.3.12.58.29.84.49.06.04.1.1.17.12.05-.03.04-.09.05-.14.03-.19.08-.38.16-.56.21-.52.59-.86 1.14-1.01 1.13-.32 2.07.27 2.54.89.16.21.26.45.3.71.04.26-.03.47-.22.64-.25.24-.52.17-.63-.16-.09-.3-.27-.54-.5-.75-.11-.1-.25-.18-.41-.15-.23.04-.42.15-.54.36-.33.6-.28 1.27.18 1.77.25.28.57.38.94.3.45-.1.8-.34 1.11-.68.25-.28.41-.61.55-.95.14-.34.22-.7.34-1.05.16-.45.35-.88.64-1.24.61-.74 1.39-1.09 2.34-.85 1 .25 1.63.94 2 1.88.1.24.06.5-.04.74-.07.17-.17.33-.29.48-.04.05-.1.09-.1.17.25.09.5.17.73.3.99.58 1.62 1.44 1.9 2.55.08.29.09.6.11.9.01.17.01.17.18.16.73-.04 1.43-.2 2.07-.56.05-.03.11-.05.14-.1-.01-.01-.01-.03-.02-.04-.03-.04-.07-.07-.1-.11-.8-.85-1.15-1.87-1.06-3.03.02-.33.12-.64.28-.93.43-.79 1.28-1.15 2.09-.85.97.36 1.54 1.06 1.66 2.1.07.68-.06 1.32-.32 1.94-.02.05-.07.11-.05.18.04 0 .07 0 .1-.01.11-.03.22-.06.33-.1 1.05-.46 1.85-1.16 2.24-2.27.25-.69.39-1.39.22-2.12-.14-.62-.39-1.18-.9-1.58-.41-.32-.86-.57-1.36-.7-1.06-.27-2.08-.11-3.04.39-.67.35-1.05.92-1.15 1.68-.02.16-.03.33-.06.49-.06.31-.28.44-.58.34a.915.915 0 0 1-.62-.72c-.08-.43-.11-.86.04-1.28-.03-.01-.04-.03-.04-.05zm1.62-15.9c-.12-.02-.19-.04-.26-.06-.41-.1-.79-.27-1.12-.54-.37-.3-.56-.69-.6-1.16-.02-.32.14-.53.45-.59.14-.03.27-.02.41.01.42.11.74.35.87.79.03.12.1.14.21.15.07 0 .13-.02.19-.04a.87.87 0 0 0 .36-.3c.28-.36.4-.78.46-1.22.12-.84-.21-1.52-.78-2.11a.8.8 0 0 0-.21-.15c-.48-.26-.99-.4-1.54-.33-.48.06-.94.21-1.36.46-.21.13-.22.13-.09.35.29.53.44 1.09.36 1.71-.07.53-.35.89-.88.99-.65.13-1.22-.05-1.66-.56-.24-.28-.32-.6-.24-.97.09-.4.3-.73.55-1.04.18-.22.39-.41.61-.58.14-.11.14-.11.02-.25a2.14 2.14 0 0 0-.69-.58c-.87-.48-1.8-.69-2.79-.53-.65.11-1.23.37-1.68.87-.2.22-.2.22.03.41.61.5 1.05 1.11 1.16 1.91.06.49-.13.87-.55 1.14-.29.18-.62.25-.96.21-.8-.09-1.41-.49-1.81-1.19-.38-.66-.36-1.34.07-1.98.04-.06.1-.1.1-.18-.02-.01-.03-.02-.04-.02h-.11c-.52.02-1.01.16-1.47.41-.31.17-.6.38-.84.64-.25.29-.4.61-.37 1.01.03.34.14.66.25 1 .08-.06.14-.1.21-.15.48-.34 1-.43 1.56-.27.22.06.44.15.64.25.65.31 1.21.75 1.73 1.25.59.57 1.15 1.15 1.73 1.73.55.55 1.16 1.02 1.87 1.34.06.03.12.08.21.08-.02-.11-.08-.18-.12-.26-.31-.61-.26-1.2.13-1.76.21-.3.48-.54.79-.73.55-.34 1.09-.31 1.6.05.48.33.71.79.62 1.38-.03.2-.12.36-.32.43-.25.09-.47.01-.66-.16-.19-.16-.3-.35-.25-.61.01-.06.03-.11.04-.17.02-.15-.01-.18-.14-.13-.44.16-.77.45-.94.9-.08.22-.06.44.06.64.23.4.58.57 1.02.59.66.03 1.27-.13 1.86-.41.52-.26 1.01-.56 1.46-.93.3-.24.56-.48.85-.74zm-2.7 24.56c-.09-.05-.16-.05-.23-.06-1.2-.23-2.28-.71-3.18-1.55-.27-.25-.51-.53-.67-.87-.36-.78-.31-1.52.24-2.21.03-.04.08-.07.08-.14l-.21-.09c-.33-.15-.61-.36-.76-.7-.19-.42-.12-.81.14-1.19.18-.26.62-.25.81 0 .09.11.11.23.04.36-.03.06-.07.11-.1.17-.08.16-.07.37.03.47.13.12.28.1.43.04.23-.09.39-.26.5-.48.1-.19.11-.38.02-.58-.09-.18-.18-.36-.31-.52-.16-.19-.35-.32-.6-.35-.19-.02-.36.02-.53.09-.52.21-.83.63-1.05 1.13-.14.32-.22.65-.31.99-.17.63-.41 1.23-.85 1.73-1.03 1.17-2.48 1.21-3.58.41-.04-.03-.08-.09-.16-.07 0 .24 0 .47-.03.71-.08.65-.22 1.29-.39 1.93-.1.38-.2.77-.27 1.16-.12.74.4 1.83 1.2 2.07.41.12.68.07.97-.26.39-.45.53-.97.46-1.55-.05-.35-.16-.69-.5-.89-.13-.08-.17-.08-.28.03-.22.22-.24.59-.05.83s.13.49-.16.6c-.06.02-.12.04-.19.04a1 1 0 0 1-.98-.54c-.23-.44-.16-1 .18-1.4.25-.29.57-.47.94-.53.66-.11 1.24.08 1.74.53.05.04.07.11.14.12.06-.03.09-.1.13-.15.2-.26.44-.45.74-.59.27-.13.56-.21.85-.24 1.1-.12 2.04.18 2.79 1.01.2.22.34.48.4.78.05.25.02.47-.14.67-.18.23-.38.23-.55-.01-.24-.34-.51-.67-.84-.92-.2-.16-.43-.27-.68-.32-.45-.09-.8.06-1 .46-.46.95-.3 1.83.45 2.59.07.07.16.13.25.17.41.19.84.31 1.29.32.64.01 1.23-.2 1.81-.47.64-.3 1.13-.77 1.48-1.38.22-.43.37-.88.49-1.35zm.17-1.37c.04-.2.02-.41 0-.6-.06-.76-.36-1.42-.92-1.94-.37-.34-.8-.5-1.3-.49-.29.01-.5.13-.64.37-.27.46-.27.95.09 1.36.1.11.21.22.33.31.57.46 1.23.74 1.94.91.16.04.32.08.5.08zm-5.5-11.59c.1.01.17-.03.25-.07.33-.14.6-.37.86-.6.09-.08.13-.16.1-.28-.09-.48-.21-.94-.42-1.38-.1-.21-.23-.4-.4-.56-.49-.45-1.08-.45-1.56.01-.41.4-.62.9-.68 1.46-.02.23.02.44.13.65.05-.05.06-.1.08-.16.22-.51.74-.67 1.22-.38.28.17.39.43.41.74.02.19.01.37.01.57zm10.62 8.16c0-.22-.02-.43-.1-.64a.642.642 0 0 0-.54-.41c-.24-.04-.41.1-.55.28-.04.06-.08.12-.11.19-.32.75-.29 1.47.13 2.17.07.11.15.21.25.3.07.06.12.08.19-.01.44-.56.7-1.18.73-1.88zm-9.32-8.19c-.05.02-.07.03-.08.04-.33.28-.71.47-1.13.56-.11.02-.13.08-.14.18-.07.78.05 1.52.31 2.25.03.09.08.17.13.25.07.11.1.11.2.03.15-.13.25-.3.32-.48.34-.91.44-1.85.39-2.83zm11.38-7.8c-.36 0-.63.08-.85.31-.41.42-.29 1.02.26 1.25.25.1.36.09.53-.12.31-.34.5-.75.64-1.18.03-.1-.01-.13-.09-.16-.16-.07-.35-.09-.49-.1zM9.4 27.38c-.02 0-.04-.01-.06-.01-.37.11-.71.27-1 .53-.16.14-.28.31-.34.52-.05.16-.03.31.05.46.17.31.35.35.58.08.4-.45.64-.99.78-1.57.01 0 0 0-.01-.01zm6.94-23.76c-.18.35-.23.68-.17 1.03.05.26.19.46.44.58.18.08.31.03.37-.16.03-.1.03-.2.02-.3-.05-.47-.3-.82-.66-1.15zm6.19.52c-.23.3-.36.59-.39.92 0 .05-.02.11.04.13.05.02.1-.01.14-.05.02-.01.03-.03.05-.04.21-.27.23-.58.16-.96z"/><path d="M1.01 24.42c-.01-.13 0-.26.06-.38.06-.13.17-.2.31-.21.15 0 .24.08.29.22.07.2.14.41.2.62.56 1.67 1.32 3.23 2.37 4.64 1.03 1.38 2.23 2.59 3.61 3.62.45.34.94.62 1.43.9.08.05.16.09.23.16.12.12.12.25.01.39s-.26.17-.43.14c-.12-.02-.23-.08-.34-.14a16.2 16.2 0 0 1-2.61-1.81c-.69-.58-1.34-1.21-1.91-1.91-.58-.72-1.15-1.44-1.66-2.22-.7-1.08-1.23-2.23-1.51-3.49L1 24.61c0-.07.01-.13.01-.19z"/><path d="M9.58 33.21c-.17 0-.29-.07-.41-.15-.77-.54-1.51-1.11-2.19-1.76-1.02-.99-1.94-2.06-2.71-3.25-.56-.85-1.04-1.75-1.34-2.73a2.34 2.34 0 0 1-.09-.38c-.01-.09 0-.17.06-.25.15-.19.44-.18.54.05.29.67.62 1.32.98 1.95.89 1.55 1.91 3 3.25 4.21.46.41.94.79 1.45 1.13l.69.48c.13.09.23.19.19.35-.04.16-.15.26-.31.3-.04.05-.09.05-.11.05zm14.45 3.64c-.2.01-.39-.04-.57-.09a.377.377 0 0 1-.15-.09c-.12-.12-.09-.24.07-.29.09-.03.18-.05.27-.07.67-.14 1.33-.32 1.97-.57.63-.24 1.22-.56 1.75-.98.53-.41 1.07-.81 1.55-1.27.31-.3.58-.62.86-.94.07-.08.14-.16.26-.17.14-.01.28.06.35.17.06.12.04.23-.07.36-.62.75-1.33 1.41-2.08 2.04-.8.67-1.69 1.17-2.68 1.51-.4.14-.8.3-1.22.37-.1.01-.2.02-.31.02zM35.38 17.7c.03-.75-.13-1.48-.26-2.21-.11-.61-.22-1.22-.36-1.82a7.91 7.91 0 0 0-.71-1.88c-.09-.17-.19-.34-.25-.53-.03-.07-.06-.16.01-.22.07-.07.17-.08.26-.05.11.03.18.11.23.21.6 1.02 1 2.11 1.24 3.26.17.8.34 1.59.42 2.41.05.46.03.92.02 1.38 0 .06-.01.13-.03.19-.05.17-.17.25-.34.23-.16-.02-.24-.11-.24-.3 0-.22.01-.45.01-.67zM0 17.21c.11-1.29.28-2.56.82-3.76.07-.16.15-.33.23-.49.08-.14.19-.18.33-.15s.22.14.19.29c-.01.08-.04.17-.07.25-.14.39-.28.77-.41 1.16-.25.75-.36 1.53-.44 2.31-.02.17-.03.34-.05.52-.03.21-.11.29-.28.29-.18 0-.31-.12-.32-.31v-.11z"/><path d="M25.49 34.6c-.23 0-.46-.04-.67-.14a.494.494 0 0 1-.24-.21c-.07-.14-.01-.24.14-.27.05-.01.1-.01.15 0 .41.05.8-.04 1.18-.2.42-.18.85-.37 1.24-.61.22-.13.43-.27.61-.45.05-.05.11-.09.17-.13.18-.09.38-.03.5.13.07.11.08.21.01.32-.04.05-.08.11-.13.15-.77.64-1.59 1.17-2.59 1.37-.13.03-.25.04-.37.04zM4.6 25.17c.05 0 .11.02.16.07.04.04.08.08.11.13.48.7 1.05 1.33 1.53 2.02l.06.09c.11.17.11.3 0 .41-.11.13-.31.17-.46.09a.526.526 0 0 1-.2-.16c-.36-.52-.79-1-1.13-1.53-.13-.2-.25-.4-.34-.63a.593.593 0 0 1-.05-.23c.01-.15.15-.26.32-.26zm29.33 1.71c-.09 0-.17-.03-.22-.11-.06-.08-.02-.17.03-.24.21-.33.36-.69.54-1.03.35-.7.61-1.43.72-2.21.02-.1.05-.2.15-.25.11-.05.22-.05.33.02.1.07.11.16.09.27-.07.46-.18.92-.34 1.36-.25.66-.59 1.28-.95 1.89l-.12.18c-.06.08-.13.11-.23.12zM1.3 16.47c.05-.66.14-1.3.33-1.93.04-.14.1-.27.18-.39.08-.1.17-.15.3-.13.17.02.25.14.2.31-.23.72-.34 1.46-.41 2.2-.02.24-.12.35-.31.34-.19-.01-.3-.15-.3-.38.01 0 .01-.02.01-.02zm33.61 1.4c0 .06.01.15 0 .23-.01.15-.11.23-.26.23-.15 0-.24-.07-.27-.22 0-.02-.01-.04-.01-.06-.01-.69-.09-1.38-.14-2.07v-.09c0-.15.06-.23.19-.24.12-.02.23.05.26.18.04.15.07.31.09.47.05.5.11 1.02.14 1.57zM12.71 2.19c0 .33-.29.63-.62.62-.31 0-.54-.24-.54-.55 0-.34.27-.62.61-.62.31 0 .55.25.55.55zM2.85 15.75c0-.26.04-.54.13-.82.03-.09.06-.18.12-.25.1-.12.25-.16.39-.09.12.06.17.15.14.28-.09.35-.14.7-.17 1.06-.01.08-.02.16-.04.23-.05.15-.14.21-.29.21-.15-.01-.25-.09-.28-.25-.01-.06-.01-.11-.01-.17 0-.05.01-.11.01-.2zM28.99 5.9c-.18 0-.31 0-.43-.06a.469.469 0 0 1-.2-.64c.17-.27.67-.4.95-.24.06.03.1.08.13.14.09.18.09.38.03.57-.04.13-.15.19-.28.22-.08.01-.16.01-.2.01zM16.83.13c.31 0 .57.26.57.56 0 .31-.26.56-.57.56-.31 0-.57-.26-.57-.56.01-.31.26-.56.57-.56zm6.69 1.62c0 .31-.26.57-.56.56-.31 0-.56-.27-.55-.58 0-.31.26-.57.57-.56.29.01.54.27.54.58zM21.54.9c0 .31-.24.55-.55.55-.31 0-.56-.25-.55-.57 0-.31.24-.55.55-.55.31 0 .55.25.55.57zm-6.25 35.96c0-.31.24-.55.54-.56.3 0 .55.25.55.55 0 .29-.24.54-.53.55a.536.536 0 0 1-.56-.54zM14.21.94c.31 0 .55.25.55.55a.55.55 0 0 1-1.1 0c-.01-.31.24-.55.55-.55zm4.77.15c-.3 0-.55-.24-.55-.55 0-.3.26-.55.55-.55a.55.55 0 0 1 0 1.1zM3.52 10.6c.3 0 .55.24.55.55 0 .3-.25.55-.55.54-.3 0-.53-.24-.54-.53-.01-.31.23-.55.54-.56zm.99-.91c.3 0 .55.24.55.55 0 .3-.25.55-.56.54-.3 0-.53-.24-.54-.54.01-.3.25-.55.55-.55zm1.73 1.07c0 .3-.25.55-.55.54-.31 0-.54-.25-.54-.56.01-.3.24-.53.54-.53.31 0 .55.25.55.55zm4.1-6.74a.54.54 0 0 1-.54-.55c0-.3.25-.54.56-.54.3.01.53.24.53.54-.01.31-.25.56-.55.55zm-.85 26.52c.09 0 .16.03.23.08.22.15.43.31.65.47.21.15.2.36-.01.51-.13.09-.27.1-.41.03-.28-.15-.52-.37-.73-.6-.07-.08-.09-.18-.03-.28.06-.14.17-.2.3-.21zM4.65 15.17c.02-.2.04-.43.12-.65.05-.15.14-.21.27-.21.16 0 .27.11.26.28-.01.22-.04.44-.07.66-.03.23-.14.32-.31.31-.19-.01-.27-.13-.27-.39zm28.92 9.97c-.18-.01-.27-.13-.21-.29.06-.17.14-.33.22-.49.05-.11.15-.17.28-.17.19 0 .27.12.22.3-.06.19-.15.36-.26.52-.06.09-.15.13-.25.13zm-5.15-4.17c-.02-.74.2-1.42.58-2.05.37-.6.81-1.16 1.2-1.75.37-.55.7-1.11.87-1.75.04-.14.12-.18.26-.16.17.03.28.17.3.35.01.16-.03.32-.07.47-.13.45-.34.86-.61 1.24-.26.36-.53.72-.8 1.08-.25.33-.47.69-.68 1.05-.29.53-.44 1.09-.45 1.7 0 .11 0 .22-.01.32-.02.18-.16.26-.33.21-.15-.04-.24-.17-.26-.34-.01-.06 0-.13 0-.19-.01-.06 0-.12 0-.18zm-1.44-.25c.11-1.63.54-3.15 1.63-4.42.22-.26.44-.53.64-.82.11-.15.25-.19.39-.1.13.07.18.2.13.35-.03.09-.08.17-.14.25-.12.16-.24.33-.37.48-.77.87-1.25 1.87-1.46 3.02-.1.55-.19 1.11-.2 1.67v.06c-.02.2-.06.27-.19.3-.15.03-.3-.05-.37-.2a.456.456 0 0 1-.05-.23c-.01-.13-.01-.25-.01-.36zm4.26-10.29c-.01.17-.01.33-.03.5-.01.12-.06.23-.19.26-.13.04-.24-.01-.34-.1a.614.614 0 0 1-.15-.26c-.01-.03-.03-.08-.01-.1.16-.25.05-.52.05-.78-.01-.28-.08-.56-.15-.83a2.206 2.206 0 0 0-.79-1.14c-.29-.18-.45-.18-.73.03-.27.2-.46.45-.54.78-.03.14-.04.28.04.42.09.15.01.25-.16.25-.16 0-.27-.09-.34-.23a.804.804 0 0 1-.07-.57c.15-.6.55-.97 1.1-1.19.17-.07.36-.04.53.01.6.15 1 .55 1.33 1.05.24.36.33.77.4 1.18.03.23.06.47.05.72zm-16.77 1.1c0 .13-.07.23-.15.32-.27.34-.6.61-.96.83-.41.26-.85.46-1.31.61-.21.07-.42.14-.64.21-.79.24-1.47.67-2.02 1.28-.1.12-.21.14-.32.09-.14-.07-.18-.19-.1-.32.04-.07.1-.14.16-.2.55-.56 1.18-.99 1.93-1.23.47-.15.95-.3 1.4-.52.57-.28 1.08-.63 1.44-1.18.03-.04.06-.08.1-.11.1-.07.2-.06.31-.01.1.05.16.13.16.23zm-.28-1.64c-.02.23-.05.42-.19.59-.13.16-.27.3-.43.43-.55.45-1.16.79-1.83 1-.32.1-.63.2-.94.34-.45.19-.87.43-1.22.77-.08.07-.16.12-.27.1-.19-.04-.26-.2-.15-.35.12-.17.27-.3.44-.41.43-.31.91-.53 1.41-.71.23-.08.46-.16.69-.25.5-.18.95-.45 1.36-.79.27-.22.51-.47.57-.84.02-.11.09-.16.19-.17.13-.01.27.06.33.17.03.04.04.09.04.12zM9.5 20.03c.13-1.13.6-2.06 1.51-2.76.24-.18.5-.34.77-.48.23-.12.47-.21.74-.21.12 0 .23.03.31.13.09.12.06.22-.08.26-1.42.42-2.28 1.37-2.62 2.8-.04.15-.04.3-.06.45-.03.22-.2.3-.39.18-.12-.07-.18-.21-.18-.37zm12.09-6.92c.03-.17.13-.31.28-.42.14-.1.29-.16.45-.2.5-.14 1-.26 1.52-.31.13-.01.25-.05.38-.1.09-.04.18-.03.27.02.16.09.17.28.02.39-.12.09-.26.13-.4.15-.33.05-.66.09-.98.18-.2.05-.39.09-.59.15a.63.63 0 0 0-.41.32c-.08.15-.16.19-.29.15a.345.345 0 0 1-.25-.33zm5.64 2.85c.04-.38.18-.75.38-1.09.13-.21.26-.41.41-.61.15-.21.29-.43.38-.68.05-.14.14-.18.26-.16.13.03.2.13.19.27-.02.22-.12.41-.25.59-.15.23-.31.45-.45.69-.22.36-.36.76-.42 1.17-.02.11-.03.2-.16.22-.11.02-.23-.04-.3-.14a.646.646 0 0 1-.04-.26zm-3.58.13c.02-.12.04-.28.08-.42.11-.45.28-.87.51-1.28.09-.17.2-.33.37-.44.15-.09.31-.08.41.04.08.09.09.19.01.27-.5.49-.65 1.14-.82 1.78-.02.07-.03.14-.05.21-.05.17-.11.22-.25.21a.298.298 0 0 1-.26-.27v-.1z"/><path d="M12.61 17.78c.14 0 .27.03.35.17.05.1.03.17-.07.21-.59.24-.92.71-1.15 1.28-.01.03-.02.05-.03.08-.07.15-.14.2-.26.18-.14-.02-.26-.13-.27-.27-.01-.11.02-.22.06-.32.2-.52.55-.92 1.02-1.22.13-.08.23-.11.35-.11zm3.79 7.86c-.47 0-.85-.05-1.18-.29-.08-.06-.15-.11-.2-.2-.06-.1-.02-.19.09-.21.1-.03.2 0 .29.06.32.21.66.25 1.03.22.23-.02.43-.12.62-.24.08-.05.16-.09.26-.08.11.02.19.07.23.18.03.1-.04.16-.11.22-.32.24-.69.36-1.03.34zm14.81-.67c-.01.31-.25.54-.56.54-.32 0-.59-.29-.59-.62.01-.3.26-.55.56-.55.32.01.6.3.59.63zm-7.51 3.45c-.11 0-.21-.01-.29-.08-.06-.05-.11-.12-.1-.2.02-.08.08-.11.16-.13.34-.08.65-.23.97-.36.2-.08.4-.17.6-.25.15-.06.29-.01.36.1.06.1.06.19-.04.24-.51.27-1.02.54-1.59.67-.01.01-.04.01-.07.01zm5.68-19.81c.23.01.44.15.59.39.14.23.23.48.3.74.03.09.04.2-.07.27-.09.05-.21.02-.3-.06-.08-.07-.12-.18-.16-.28-.07-.17-.12-.34-.19-.5-.08-.19-.18-.2-.32-.05-.03.03-.05.07-.08.1-.09.11-.23.13-.34.04-.11-.08-.12-.17-.04-.3.09-.2.33-.35.61-.35zm.29 15.69c0 .3-.26.55-.56.54a.549.549 0 0 1 .02-1.1c.3.01.55.26.54.56zm-2.28 1.31a.528.528 0 0 1-.55-.54c0-.3.24-.55.55-.55.29 0 .54.24.55.53 0 .3-.24.55-.55.56zm3.65 1.37c-.31 0-.55-.25-.54-.55 0-.3.26-.54.56-.54.3.01.53.25.53.54-.01.32-.25.56-.55.55zm.14 1.33c0 .3-.25.54-.56.54a.53.53 0 0 1-.53-.54c0-.31.24-.55.54-.55.3 0 .55.25.55.55zm-7.97-14.23c0-.1.03-.2.07-.29.12-.27.31-.46.56-.61.17-.11.37-.12.56-.08.11.02.2.08.25.18.05.11.01.2-.11.23h-.04c-.38-.02-.56.24-.72.52-.04.06-.05.13-.08.2-.06.14-.13.18-.24.17a.287.287 0 0 1-.25-.26v-.06zm-.25 11.89c-.09-.01-.18-.02-.25-.08-.12-.09-.16-.25.04-.33.24-.08.48-.18.72-.28.13-.05.26-.1.37-.21.1-.09.24-.06.33.04.09.1.08.19-.02.3-.02.03-.05.05-.08.07-.33.19-.67.36-1.04.46-.01.02-.04.03-.07.03zm.12.97c-.09 0-.17-.02-.24-.09-.12-.11-.1-.25.05-.31.32-.13.64-.26.97-.38.11-.04.21-.01.29.08.08.09.09.18 0 .24-.32.24-.68.39-1.07.46zm1.52 2.7c-.16 0-.27-.04-.34-.15-.07-.11-.05-.2.07-.24.28-.1.56-.18.84-.27.08-.02.16 0 .23.04.17.11.17.27 0 .38-.25.15-.54.19-.8.24zm.53 1.28a.537.537 0 0 1-.33-.12c-.06-.05-.09-.12-.07-.19.02-.07.08-.1.15-.1.22-.02.42-.08.63-.14.13-.03.26-.04.36.07.11.11.09.22-.04.3-.12.06-.53.18-.7.18zm-9.03-6.41c-.13 0-.26-.02-.36-.11-.06-.05-.11-.12-.09-.21.02-.08.08-.11.16-.13.21-.04.41-.07.62-.07.1 0 .2.03.27.11.12.12.1.26-.07.31-.17.07-.35.09-.53.1zm.02-1c-.12 0-.23.01-.33-.04-.08-.05-.16-.11-.13-.22.02-.1.12-.12.21-.12.1 0 .2 0 .3.01.08.01.15.04.21.09.06.06.11.12.08.21s-.12.1-.2.09c-.06-.01-.1-.02-.14-.02zM26.28 5.66c.02-.35-.06-.69-.24-.99a.885.885 0 0 0-.42-.39c-.11-.05-.21-.1-.31-.15a.89.89 0 0 0-.81-.02c-.13.06-.25.07-.36-.02-.12-.1-.12-.21.01-.3.08-.06.17-.11.27-.13.34-.09.68-.09 1.01.06.13.06.26.13.39.18.66.25 1.22 1.13 1.08 2-.03.2-.15.31-.33.29-.17-.02-.33-.15-.3-.35.01-.07.01-.13.01-.18zm-6.55-3.07c.36-.01.7.05 1.03.18.11.04.21.1.28.2.04.06.08.13.04.2-.04.08-.12.1-.2.1-.06 0-.12-.01-.17-.04-.58-.29-1.18-.21-1.77-.07-.2.05-.4.11-.6.19-.08.03-.16.06-.25.06a.31.31 0 0 1-.26-.12c-.08-.1-.07-.19.04-.25.11-.06.23-.12.35-.17.49-.17.99-.29 1.51-.28zm-.19 5.82c0 .3-.26.55-.56.54a.549.549 0 0 1 .02-1.1c.3.01.54.26.54.56zm-1.65-1.84c.31 0 .54.25.53.56-.01.3-.24.53-.54.53-.3 0-.55-.25-.55-.55 0-.3.25-.54.56-.54zm2.12-2.28c-.19-.03-.4-.06-.62-.06-.27 0-.55.02-.82.08-.08.02-.17.03-.26.01-.09-.02-.16-.07-.17-.17-.01-.1.07-.14.14-.17.16-.06.32-.09.48-.12.37-.05.74-.09 1.12-.03.11.02.23.04.32.12.06.05.11.12.09.21-.03.09-.11.11-.19.11-.02.02-.04.02-.09.02zm-7.24.76a.276.276 0 0 1-.23-.15c-.04-.09.02-.15.07-.21.24-.28.55-.46.88-.6.11-.04.21-.04.3.04.1.08.1.17-.01.25-.06.04-.12.07-.18.11-.21.13-.4.28-.58.45-.06.06-.13.12-.25.11z"/><path d="M24.59 4.72c.2.01.39.09.56.24.13.12.23.26.32.41.03.06.06.12.01.18-.05.07-.12.08-.19.07a.325.325 0 0 1-.22-.12l-.21-.21c-.08-.09-.18-.17-.31-.18-.01 0-.03 0-.04-.01-.13-.04-.22-.15-.21-.24.02-.09.12-.14.29-.14zm-5.56.55c-.16.01-.25 0-.33-.08-.11-.11-.08-.21.06-.26.15-.05.31-.07.47-.07.15 0 .3.02.45.04.09.01.18.06.24.14.05.06.08.12.04.2-.03.06-.1.08-.17.08h-.04c-.26-.08-.51-.1-.72-.05zm-5.3-.46a.3.3 0 0 1 .2.04c.06.03.11.08.11.15 0 .08-.06.11-.12.13-.09.03-.18.07-.26.09-.08.03-.17.03-.25-.02-.07-.04-.12-.09-.11-.17 0-.08.06-.11.12-.14.1-.04.22-.07.31-.08zm1.39 26.37a4.67 4.67 0 0 1-1.04-.14c-.21-.05-.39-.14-.56-.28-.04-.04-.09-.08-.12-.12-.07-.11-.02-.2.1-.22.09-.02.17.02.25.06.55.28 1.13.34 1.72.19.88-.22 1.58-.73 2.13-1.44.21-.27.4-.56.6-.85.11-.15.24-.18.37-.1.11.07.15.17.09.28-.65 1.2-1.51 2.16-2.89 2.53-.23.06-.47.11-.65.09z"/><path d="M16.35 31.53c-.08 0-.14 0-.19-.03-.08-.04-.15-.1-.14-.2 0-.09.08-.1.15-.13.31-.13.62-.27.93-.41.45-.2.83-.51 1.17-.88.08-.09.13-.19.2-.28.09-.13.22-.16.34-.08.12.07.15.18.08.33-.06.12-.13.22-.22.32-.32.35-.68.64-1.1.86-.3.15-.6.32-.92.43-.11.04-.21.07-.3.07zm2.13 3.82c-.31 0-.55-.25-.55-.55 0-.32.28-.6.59-.6.31 0 .56.26.56.57 0 .32-.27.58-.6.58zm3.61-.72c-.01.31-.26.55-.58.54a.555.555 0 0 1-.54-.56.56.56 0 0 1 .58-.54c.31.01.55.25.54.56zm.3-1.56c.31 0 .54.25.54.56-.01.3-.26.55-.56.54a.551.551 0 0 1-.53-.55c-.01-.31.24-.55.55-.55zm-1.89 2.17c-.01.3-.26.54-.57.53a.536.536 0 0 1-.52-.55c0-.3.25-.54.56-.54.3.01.53.25.53.56zm-1.87-4.02a.277.277 0 0 1-.24-.16c-.05-.1.02-.16.08-.22.08-.07.16-.14.25-.21.11-.08.22-.08.32-.02.11.08.12.16.04.27a.98.98 0 0 1-.21.24c-.07.06-.15.1-.24.1z"/></svg>