<svg xmlns="http://www.w3.org/2000/svg" viewBox="0 0 72 74.81"><path fill="#BA874D" d="M68.33 39.7c.4.61.41 1.15.05 1.66-.4.58-.96.92-1.67.94-.55.02-.93-.27-1.15-.77a2.21 2.21 0 0 1-.13-1.32c.31-1.46 1.79-2.65 3.3-2.65.84 0 1.5.36 1.99 1.04 1 1.4 1.11 2.94.7 4.55-.34 1.34-1.09 2.47-2.11 3.36-1.1.95-2.44 1.33-3.91 1.15-.44-.05-.88-.14-1.34-.22.01.16.14.21.22.3 1.91 2.15 2.82 4.63 2.47 7.52-.13 1.08-.34 2.13-.8 3.13-.52 1.12-1.22 2.09-2.17 2.88-.36.29-.7.6-1.06.89-1.7 1.39-3.64 1.8-5.77 1.43-.33-.06-.56-.02-.82.2-1.66 1.36-3.6 2.03-5.71 2.27-.37.04-.75.08-1.12.08-.27 0-.34.11-.38.35-.1.66-.27 1.3-.5 1.92-1.25 3.34-3.7 5.29-7.13 6.04-2.11.47-4.16.16-6.14-.66-1.27-.53-2.22-1.43-2.92-2.61-.08-.13-.13-.29-.27-.41-.15.12-.23.29-.35.43-1.04 1.32-2.4 2-4.07 1.87-1.42-.12-2.69-.67-3.7-1.7-1.65-1.67-2.26-3.67-1.86-5.99.16-.93.42-1.83.71-2.72.35-1.1.68-2.21.85-3.35.11-.75.15-1.5-.04-2.24-.19-.75-.62-1.35-1.24-1.85-.12.17-.12.33-.15.47-.26 1.29-.78 2.45-1.74 3.37-.83.79-1.81 1.23-2.97 1.18-.98-.04-1.82-.42-2.47-1.17-.83-.96-.9-2.14-.2-3.2.43-.65 1.02-1.13 1.7-1.51.76-.43 1.56-.74 2.4-.98.27-.08.37-.2.39-.47.11-1.35.08-2.68-.2-4.01-.27-1.3-1.04-2.22-2.19-2.87-.61-.34-1.24-.37-1.87-.06-1.02.5-1.8 1.21-2.05 2.36-.23 1.06.49 2.27 1.54 2.58.11.03.22.06.33.1.23.08.46.17.67.31.37.24.65.55.6 1.03-.06.5-.42.74-.86.87-.74.23-1.47.13-2.16-.17-1.51-.65-2.38-1.85-2.67-3.44-.2-1.08.15-2.08.83-2.91 1.09-1.32 2.44-2.24 4.21-2.39.04 0 .09.01.11-.11-1.07-.22-2.05-.69-2.97-1.34-.19.73-.52 1.35-.98 1.9-.88 1.05-2.04 1.58-3.34 1.87-3.21.73-6.54-1.06-7.7-4.13-.68-1.8-.37-3.43.88-4.88.65-.75 1.43-1.34 2.24-1.89 1.17-.8 2.43-1.43 3.72-2.04.84-.39 1.67-.79 2.5-1.2.35-.17.69-.37 1.02-.57.89-.53 1.55-1.29 2-2.22 1.2-2.47 1.5-5.03.85-7.71-.17-.69-.48-1.29-.99-1.8-.32-.32-.63-.64-.99-.91-.77-.59-1.63-.77-2.57-.54-.64.16-1.22.44-1.72.88-.89.77-1.61 1.67-1.84 2.86-.19.96.05 1.81.78 2.48.57.53 1.16.53 1.74.02.07-.06.13-.12.19-.17.92-.79 2.3-.53 2.88.54.22.41.25.83.08 1.25-.21.53-.57.94-1.08 1.19-1.36.67-2.75.67-4.08-.03-1.83-.97-2.71-2.53-2.62-4.61.02-.52.16-1.03.39-1.5.92-1.87 2.32-3.26 4.27-4.04 1.16-.47 2.34-.45 3.51-.03.11.04.22.07.33.1.01 0 .02-.01.05-.03-.05-.27-.11-.55-.14-.83-.23-2.22.4-4.19 1.69-5.98.19-.26.42-.48.65-.7.95-.9 2.08-1.18 3.32-.84 1.98.54 3.18 1.89 3.64 3.85.33 1.39-.63 3.2-1.92 3.8-.88.41-1.74.34-2.57-.16-.69-.41-.98-1.12-.82-1.9.07-.37.32-.59.73-.63.34-.03.56.03 1.05.31.98-1 .8-2.46.19-3.25-.47-.61-1.15-.72-1.81-.33-.33.19-.62.43-.84.74-1.22 1.67-1.68 3.51-1.13 5.52.42 1.52 1.37 2.64 2.85 3.29 1.01.44 1.94.33 2.8-.34 1.29-1 2.03-2.3 2.12-3.95.06-1.09-.1-2.16-.21-3.24-.08-.79-.17-1.58-.14-2.37.06-1.45.63-2.66 1.76-3.58 1.35-1.1 2.9-1.77 4.61-2.07.89-.15 1.79-.17 2.67.02.35.08.56-.02.81-.23 1.1-.93 2.34-1.59 3.75-1.9 2.95-.67 5.73-.22 8.36 1.25.62.35 1.17.8 1.64 1.33.14.16.25.22.47.1 1.11-.62 2.33-.93 3.58-1.06.45-.05.9 0 1.34.07.81.15 1.6.4 2.33.77.68.35 1.26.82 1.73 1.41.46.58.85 1.2 1.17 1.87.42.88.52 1.82.49 2.79-.02.67-.11 1.32-.31 1.96-.02.06-.07.13-.02.2.08.01.13-.04.19-.09 1.28-.91 2.69-1.1 4.21-.76 1.3.29 2.38.94 3.32 1.86 2.28 2.21 3.52 4.89 3.55 8.09.01.88-.13 1.76-.41 2.6-.08.25-.04.42.11.63.9 1.24 1.44 2.62 1.49 4.17.02.76-.09 1.49-.33 2.21-.34 1.02-.8 1.98-1.41 2.87-.62.92-1.27 1.82-1.91 2.74-.36.51-.71 1.02-1 1.57-.3.56-.52 1.16-.61 1.79-.05.34-.02.66.08.98.44 1.48 1.41 2.49 2.8 3.11.4.18.83.26 1.27.23.71-.05 1.29-.32 1.74-.91.81-1.08 1.21-2.85.24-4.34-.24-.25-.46-.49-.9-.62zm-19.04 9.1c-.03-.01-.04-.02-.05-.01-.14.04-.25.14-.37.21-.85.52-1.75.93-2.75.95-1.91.05-3.31-.86-4.17-2.51-.93-1.8-.64-3.55.46-5.2.68-1.01 1.67-1.36 2.83-1.16 1.2.2 1.94.97 2.26 2.12.15.54-.04.97-.53 1.24-.85.49-2.17.13-2.46-.84-.05-.17-.09-.36-.26-.47-.42.36-.65.78-.81 1.46-.32 1.41.38 2.84 1.63 3.41.43.19.8.16 1.18-.11.38-.27.7-.61.96-.99a14.66 14.66 0 0 0 1.66-3.22c.72-1.92.96-3.94 1.2-5.96.14-1.18.16-2.36.24-3.54.02-.32 0-.64 0-1.05-.33.53-.54 1.01-.75 1.5-.39.91-.79 1.83-1.23 2.72-.27.55-.58 1.06-1.02 1.5-.56.57-1.24.77-2.02.65-.38-.06-.72-.21-1.04-.41-.87-.54-1.35-1.36-1.63-2.32-.08-.27-.14-.55-.2-.83-.11.02-.13.09-.17.15-.54.89-1.11 1.76-1.77 2.56-.13.15-.13.31-.1.49.08.57.08 1.15.11 1.73.06 1.61-.12 3.2-.56 4.75-.19.67-.44 1.31-.86 1.88-.66.89-1.53 1.19-2.59.96-1.9-.41-3.29-1.91-3.65-3.9-.2-1.13-.22-2.27-.11-3.41.04-.43 0-.77-.33-1.12-.71-.76-1.17-1.68-1.08-2.74.14-1.59.82-2.94 2.12-3.92.9-.68 1.91-.85 3-.56 1.15.3 1.99 1.01 2.61 2.01.41.65.68 1.37.91 2.1.04.12.08.23.12.35.12-.04.16-.12.21-.19.68-.95 1.27-1.96 1.86-2.97.1-.17.11-.35.11-.54-.01-1.01.02-2.02.13-3.03.06-.59.12-1.18.35-1.73.25-.63.77-.93 1.44-.85.77.09 1.37.63 1.58 1.41.13.49.13 1 .12 1.51-.01.89-.03 1.79-.04 2.68-.01.74.05 1.47.17 2.2.1.55.23 1.09.42 1.63.21-.1.31-.25.43-.4.52-.64.93-1.36 1.29-2.1.8-1.65 1.58-3.31 2.45-4.92.05-.1.11-.21.14-.32.1-.4.43-.61.94-.57.54.04.95.31 1.27.73.29.38.47.82.6 1.29.24.85.3 1.73.33 2.61.07 2.47-.08 4.93-.51 7.37-.29 1.64-.74 3.23-1.54 4.71-.03.05-.1.11-.04.17 3.1-1.27 6.21-1.52 9.45-.24-.09-.13-.13-.17-.16-.22-1.23-1.69-1.48-3.5-.66-5.43.29-.68.66-1.32 1.07-1.93l1.8-2.7c.38-.56.74-1.13 1.05-1.74.73-1.45 1.1-2.97.99-4.6-.02-.28-.06-.56-.13-.83-.18.04-.24.16-.34.24-.58.5-1.21.89-1.95 1.1-1.43.41-2.75.19-3.89-.8-1.18-1.03-1.33-2.5-.41-3.77.65-.89 1.53-1.37 2.61-1.56.63-.11 1.27-.07 1.9.03.17.03.25-.01.27-.17.01-.11.03-.23.03-.34.04-.68.02-1.36-.07-2.03-.17-1.28-.43-2.53-.94-3.72-.39-.91-.92-1.75-1.66-2.41-1.39-1.25-3.06-1.24-4.35.02-.78.76-1.27 1.72-1.51 2.78-.2.85.01 1.61.72 2.17.28.22.3.21.6.02.78-.49 1.8-.4 2.48.24.67.63.64 1.48-.12 1.99-1.32.89-3.17.94-4.39-.47-.25-.28-.45-.6-.65-.92-.05.04-.09.06-.11.09-.59.96-.98 1.99-1.07 3.12-.07.79.11 1.51.53 2.19.38.61 1.17.51 1.52.11.26-.3.37-.64.38-1.03 0-.17-.04-.27-.25-.26a.895.895 0 0 1-.71-.25c-.35-.33-.3-.77.11-1.01.26-.15.55-.18.84-.13.73.12 1.3.69 1.48 1.41.12.51.03 1-.11 1.49-.33 1.17-1.68 2.44-3.48 1.94-2.1-.59-3.29-2.93-2.53-5.04.17-.48.4-.93.64-1.37.07-.12.16-.23.17-.4-.16.03-.24.13-.34.2-.43.3-.87.56-1.34.8-1.15.6-2.35.94-3.66.89-.49-.02-.98.02-1.47 0-1.13-.03-2.2.21-3.21.73-1.15.6-1.67 1.58-1.81 2.82-.03.28.11.46.38.56.22.08.45.08.68.02.2-.05.3-.21.39-.38.09-.17-.02-.27-.1-.39-.02-.04-.05-.07-.07-.11-.13-.26-.13-.51.02-.65.18-.17.4-.14.61-.07.42.15.69.47.83.88.38 1.12-.42 2.33-1.62 2.44-1.41.13-2.85-1.1-2.97-2.57-.09-1.07.29-1.98.94-2.8.08-.1.21-.18.24-.33-1.21.2-2.33.93-2.94 1.92-.33.53-.58 1.09-.77 1.69-.18.61-.2 1.22-.05 1.84.04.18.07.39.27.49.11-.12.12-.25.17-.37.17-.41.49-.55.91-.41.44.15.73.57.69 1.04-.02.2-.06.4-.11.6-.22.86-.69 1.23-1.58 1.24-.17 0-.35 0-.52-.04-1.38-.3-2.27-1.15-2.71-2.46-.39-1.18-.11-2.28.49-3.32a7.273 7.273 0 0 1 3.35-3.02c.42-.19.84-.36 1.27-.55a.512.512 0 0 0-.23-.14c-.71-.29-1.38-.65-2.03-1.06-.41-.27-.85-.5-1.29-.7a3.54 3.54 0 0 0-.91-.27c-.35-.05-.69-.01-1.02.13-.24.11-.37.35-.34.6.03.24.18.32.4.37.47.11.85.36 1.08.8.23.44.09.87-.35 1.09-.2.1-.41.15-.62.16-1.16.07-2.42-.84-2.72-1.96-.35-1.32.48-2.47 1.62-2.64.21-.03.43-.06.64-.07.83-.04 1.59.22 2.33.56.72.33 1.4.75 2.07 1.18.6.38 1.23.7 1.91.9.09.03.17.06.27.02-.03-.05-.04-.08-.06-.1-1.26-.95-2.35-2.09-3.41-3.25-.86-.94-1.79-1.8-2.77-2.62-.5-.42-1.03-.79-1.63-1.06-.74-.34-1.52-.56-2.35-.5-.71.05-1.31.35-1.77.88-.23.27-.23.42.01.68.37.4.85.52 1.37.53.12 0 .22-.06.32-.12.16-.1.25-.22.15-.43-.08-.17-.09-.36-.07-.55.03-.24.11-.46.36-.54.23-.08.42.03.58.2.42.43.61.95.52 1.54-.2 1.42-1.38 2.29-2.79 2.06-.17-.03-.34-.08-.5-.12-.34-.1-.34-.1-.4.23-.17.94-.52 1.8-1.11 2.55-1.61 2.06-4.36 3.12-7.09 2.27-.12-.04-.23-.12-.36-.05-.01.15.06.26.11.38.76 1.99.75 4.01.15 6.03-.65 2.18-1.92 3.82-4.08 4.7-.53.22-1.06.45-1.59.68-1.17.49-2.37.92-3.51 1.47-1.11.53-2.15 1.18-3.03 2.06-.87.88-1.26 1.93-1.04 3.15.21 1.19.86 2.09 1.94 2.66.78.41 1.56.28 2.36.04 1.8-.53 2.62-2.75 1.59-4.32a1.83 1.83 0 0 0-.9-.72c-.22-.09-.38-.03-.54.13-.46.48-.55.98-.2 1.56.38.63.09 1.17-.51 1.37a1.69 1.69 0 0 1-2.24-1.71c.08-1.29 1.24-2.66 2.5-2.96.58-.14 1.15-.05 1.7.14.48.16.93.39 1.34.68.14-.16.17-.34.24-.49.43-.93 1.07-1.64 2.05-2 1.38-.51 3.11-.04 3.95 1.08.33.44.52.93.47 1.49-.04.44-.25.71-.54.75-.3.04-.55-.15-.71-.57-.12-.31-.25-.62-.46-.88-.44-.54-.98-.64-1.57-.29-.75.45-1.05 1.16-.93 1.99.19 1.35.82 2.39 2.17 2.88.38.14.76.28 1.13.43 1.01.42 1.86 1.07 2.45 1.99.49.75 1 1.49 1.38 2.3.14.3.31.58.54.84.07-.15-.01-.25-.03-.36-.28-1.19-.38-2.39-.1-3.6.2-.83.46-1.64.99-2.33.29-.39.66-.68 1.14-.82 1.35-.37 2.91.63 3.14 2.01.11.64-.19 1.1-.82 1.27-.76.21-1.61-.09-2.08-.72-.08-.11-.11-.26-.27-.32-.25.3-.42.64-.54 1-.28.87-.29 1.76-.13 2.65.15.85.46 1.64 1.03 2.3.24.27.5.52.83.69.58.31 1.08.22 1.52-.27.21-.24.37-.52.51-.8.36-.74.65-1.51.83-2.32.38-1.64.51-3.3.53-4.98.02-1.72-.06-3.43-.1-5.15-.05-1.92-.12-3.84.1-5.75.01-.07.03-.14-.04-.19-.1-.02-.16.06-.23.1-.77.48-1.57.91-2.39 1.32-.59.3-1.18.6-1.77.92-.83.45-1.58 1.01-2.25 1.68-.67.67-1.12 1.46-1.31 2.4-.04.2-.1.39-.17.58-.13.34-.34.47-.7.45-.35-.02-.64-.17-.89-.4-.42-.38-.6-.87-.65-1.42-.09-.94.17-1.8.63-2.61a7.546 7.546 0 0 1 3.04-2.94c.89-.47 1.83-.77 2.79-1.03.76-.21 1.53-.41 2.27-.69.7-.27 1.38-.58 1.99-1.04.34-.26.59-.58.71-1 .15-.5.31-.99.56-1.45.2-.36.44-.47.83-.39.49.1.81.49.78.99-.02.33-.06.66-.08.99-.07 1.26.01 2.51.08 3.76.1 1.82.04 3.64.15 5.45.1 1.7.17 3.4.24 5.1.08 2.04-.04 4.07-.49 6.07-.24 1.05-.62 2.04-1.3 2.9-1.75 2.2-5.49 2.38-7.28-.05-.06-.08-.1-.2-.24-.22 0 .05-.01.09 0 .13.35 1.2.49 2.43.51 3.68 0 .23.1.33.29.41.61.25 1.16.58 1.67.98.11.09.2.21.35.24.11-.07.08-.18.1-.27.06-.39.16-.76.31-1.12.43-1.04 1.18-1.72 2.27-2.02 2.27-.63 4.15.55 5.07 1.78.32.42.52.9.6 1.42.08.51-.07.93-.45 1.29-.5.47-1.04.34-1.25-.32-.19-.59-.55-1.08-1-1.49-.22-.2-.49-.36-.82-.31-.47.07-.85.29-1.08.72-.66 1.21-.55 2.53.35 3.54.51.56 1.15.75 1.88.6.89-.19 1.61-.69 2.21-1.36.5-.56.82-1.22 1.09-1.9.27-.68.44-1.4.68-2.1.31-.89.69-1.75 1.29-2.49 1.22-1.49 2.77-2.18 4.68-1.7 2 .51 3.26 1.87 4 3.76.19.49.13.99-.08 1.48-.15.35-.35.66-.57.97-.07.1-.19.18-.21.34.5.17 1.01.33 1.47.6 1.98 1.16 3.23 2.87 3.8 5.09.15.59.19 1.2.22 1.8.02.33.03.34.35.32 1.46-.08 2.85-.4 4.14-1.13.1-.06.21-.09.27-.21-.01-.03-.02-.06-.04-.08-.07-.07-.14-.15-.21-.22-1.61-1.7-2.3-3.73-2.13-6.06.05-.66.24-1.28.55-1.85.85-1.58 2.55-2.3 4.19-1.69 1.95.72 3.09 2.12 3.31 4.21.15 1.35-.13 2.64-.65 3.89-.05.11-.13.21-.11.37.08-.01.14 0 .19-.02.22-.07.45-.12.66-.21 2.1-.91 3.69-2.33 4.48-4.54.49-1.38.78-2.77.45-4.24-.28-1.24-.77-2.36-1.8-3.17-.81-.64-1.72-1.14-2.72-1.39-2.12-.55-4.16-.22-6.08.77-1.34.69-2.11 1.85-2.3 3.36-.04.33-.07.66-.13.99-.12.62-.56.88-1.15.68-.69-.23-1.1-.73-1.23-1.44-.16-.86-.21-1.72.08-2.57.04-.07.03-.11.03-.15zM52.53 17c-.24-.05-.38-.08-.52-.12a5.37 5.37 0 0 1-2.24-1.08c-.73-.6-1.13-1.37-1.2-2.31-.04-.63.28-1.06.9-1.18.27-.05.55-.05.82.02.85.23 1.49.7 1.73 1.58.06.23.21.29.41.29.13 0 .25-.04.38-.09.3-.12.53-.34.73-.6.56-.72.8-1.56.93-2.44.25-1.68-.42-3.04-1.56-4.22-.12-.12-.27-.22-.42-.3-.96-.52-1.98-.8-3.08-.67-.97.12-1.88.43-2.73.93-.43.25-.43.26-.19.71.57 1.07.88 2.19.72 3.41-.13 1.07-.7 1.77-1.76 1.98-1.3.25-2.44-.11-3.32-1.12-.48-.55-.64-1.21-.48-1.94.18-.8.61-1.46 1.11-2.08.35-.44.78-.81 1.22-1.17.27-.22.27-.22.05-.5-.38-.48-.84-.87-1.38-1.17-1.75-.93-3.61-1.36-5.6-1.03-1.31.21-2.45.73-3.35 1.73-.4.45-.4.44.07.82 1.22 1 2.11 2.21 2.32 3.83.13.99-.26 1.75-1.1 2.27-.58.36-1.24.49-1.91.41-1.6-.19-2.83-.99-3.61-2.38-.75-1.33-.72-2.67.15-3.96.08-.11.21-.21.2-.36-.03-.02-.06-.04-.08-.04-.07-.01-.14 0-.22 0-1.04.03-2.02.33-2.93.81-.63.33-1.2.75-1.67 1.28-.51.57-.81 1.23-.73 2.01.06.68.28 1.31.49 2 .16-.11.29-.2.41-.29.96-.68 2-.85 3.12-.54.45.13.87.3 1.29.5 1.3.62 2.42 1.49 3.46 2.49 1.17 1.13 2.3 2.31 3.45 3.47 1.1 1.1 2.32 2.04 3.74 2.69.13.06.24.15.42.15-.03-.21-.16-.36-.24-.52-.61-1.23-.51-2.4.27-3.51.42-.6.95-1.08 1.57-1.46 1.09-.68 2.18-.61 3.21.09.96.65 1.42 1.57 1.25 2.75-.06.39-.24.73-.63.86-.5.17-.94.01-1.33-.31-.37-.32-.59-.7-.5-1.22.02-.11.06-.22.08-.34.05-.29-.01-.36-.29-.26-.88.33-1.54.89-1.88 1.79-.17.45-.12.87.12 1.29.45.79 1.16 1.14 2.04 1.17 1.31.05 2.55-.25 3.72-.83 1.04-.51 2.01-1.13 2.92-1.86.53-.43 1.05-.91 1.65-1.43zm-5.41 49.12c-.17-.1-.32-.1-.46-.13-2.4-.46-4.57-1.41-6.37-3.1-.54-.51-1.02-1.07-1.33-1.74-.73-1.57-.63-3.05.47-4.42.06-.07.16-.13.15-.28-.13-.06-.28-.12-.42-.18-.67-.3-1.21-.73-1.52-1.41-.39-.84-.24-1.62.27-2.37.36-.53 1.23-.49 1.62-.01.18.22.21.47.07.72-.06.11-.14.22-.2.33-.16.31-.14.74.06.94.25.24.56.2.85.08.46-.18.78-.53 1-.97.19-.38.23-.76.04-1.16-.17-.37-.36-.72-.62-1.04-.31-.38-.7-.64-1.2-.71-.37-.05-.71.05-1.05.19-1.05.43-1.65 1.27-2.1 2.25-.29.63-.45 1.31-.62 1.98-.33 1.27-.82 2.47-1.7 3.47-2.06 2.35-4.97 2.43-7.15.83-.09-.06-.15-.18-.32-.15-.01.47 0 .94-.06 1.41-.17 1.3-.44 2.59-.78 3.86-.21.77-.41 1.53-.53 2.32-.23 1.48.81 3.66 2.41 4.14.82.25 1.36.14 1.93-.52.78-.89 1.06-1.95.91-3.1-.09-.71-.32-1.39-1-1.79-.26-.16-.35-.15-.57.06-.43.43-.48 1.18-.1 1.65.39.49.26.98-.32 1.2-.12.05-.25.08-.38.09-.8.08-1.59-.36-1.97-1.08-.46-.88-.33-2 .35-2.79.5-.58 1.14-.94 1.88-1.07 1.32-.22 2.48.16 3.47 1.06.09.08.15.21.29.24.13-.07.17-.19.25-.3.39-.52.88-.91 1.47-1.18.54-.25 1.11-.41 1.7-.48 2.19-.24 4.08.36 5.59 2.02.4.44.68.96.8 1.56.09.49.03.93-.29 1.34-.36.46-.75.46-1.1-.03-.48-.69-1.01-1.33-1.68-1.85-.41-.31-.85-.54-1.36-.64-.89-.18-1.6.12-1.99.92-.93 1.9-.6 3.66.9 5.19.14.15.32.25.5.34.82.38 1.68.63 2.59.63 1.29.01 2.47-.4 3.61-.95 1.28-.61 2.25-1.54 2.96-2.76.51-.77.81-1.67 1.05-2.61zm.34-2.74c.08-.41.04-.81.01-1.21-.12-1.53-.71-2.84-1.84-3.88-.73-.67-1.59-1.01-2.6-.97-.57.02-1 .26-1.28.74-.53.92-.53 1.9.18 2.73.2.23.42.43.66.62 1.15.91 2.46 1.48 3.88 1.82.32.07.64.15.99.15zm-11-23.19c.19.02.35-.07.5-.13.66-.28 1.19-.75 1.73-1.21.19-.16.25-.32.2-.56-.18-.95-.43-1.88-.85-2.76-.2-.42-.45-.8-.8-1.12-.97-.91-2.17-.9-3.12.03-.82.8-1.24 1.79-1.36 2.92-.05.45.05.89.26 1.31.1-.09.12-.21.17-.31.45-1.01 1.48-1.34 2.44-.77.57.34.79.86.81 1.48.04.36.02.73.02 1.12zm21.25 16.32c.01-.44-.04-.87-.2-1.28-.19-.49-.58-.75-1.08-.83-.48-.07-.82.19-1.09.56-.08.12-.16.24-.22.37-.64 1.49-.58 2.94.25 4.35.13.22.3.42.49.6.14.12.24.17.39-.02.87-1.1 1.4-2.33 1.46-3.75zM39.06 40.14c-.09.05-.14.06-.17.08-.67.55-1.42.93-2.27 1.12-.21.05-.26.16-.28.36-.15 1.55.1 3.05.63 4.5.06.17.15.34.25.5.14.22.21.23.41.06.3-.26.5-.6.64-.96.69-1.82.9-3.69.79-5.66zm22.77-15.6c-.71-.01-1.26.16-1.7.61-.82.85-.58 2.04.52 2.5.5.21.71.17 1.07-.23.61-.69 1-1.5 1.29-2.37.06-.19-.02-.26-.17-.32-.37-.14-.74-.17-1.01-.19zM18.81 54.75c-.03 0-.08-.02-.11-.01-.74.22-1.43.54-2.01 1.07-.31.29-.56.62-.68 1.04-.09.32-.06.63.09.92.33.62.7.69 1.17.17.8-.9 1.29-1.97 1.56-3.14.01-.01-.01-.03-.02-.05zM32.68 7.23c-.35.7-.46 1.37-.33 2.06.09.52.38.93.87 1.16.35.17.63.06.73-.32.06-.19.07-.39.05-.6-.1-.93-.6-1.64-1.32-2.3zm12.39 1.06c-.47.59-.71 1.18-.77 1.84-.01.09-.04.22.08.26.1.04.19-.03.27-.09.03-.03.07-.06.09-.09.42-.56.47-1.17.33-1.92z"/><path d="M2.02 48.84c-.03-.26 0-.52.11-.76.12-.26.33-.41.61-.41.29-.01.49.15.58.43.14.41.27.82.41 1.23 1.11 3.33 2.63 6.46 4.75 9.28 2.06 2.75 4.45 5.18 7.21 7.25.9.68 1.88 1.23 2.86 1.79.16.09.33.18.46.32.24.25.25.51.03.77-.23.27-.52.35-.86.28-.24-.05-.46-.16-.68-.28a33.05 33.05 0 0 1-5.22-3.62c-1.38-1.17-2.67-2.42-3.82-3.82-1.17-1.43-2.31-2.88-3.31-4.44-1.4-2.16-2.47-4.46-3.03-6.99-.05-.22-.08-.45-.11-.68 0-.12.01-.24.01-.35z"/><path d="M19.16 66.42c-.35-.01-.59-.14-.81-.3-1.54-1.07-3.02-2.22-4.37-3.53-2.04-1.97-3.87-4.12-5.43-6.49-1.12-1.71-2.08-3.49-2.69-5.45-.08-.25-.14-.5-.17-.76-.02-.18 0-.35.11-.49.31-.39.89-.36 1.09.1.58 1.34 1.24 2.64 1.97 3.9 1.78 3.11 3.83 6.01 6.5 8.43.91.82 1.88 1.58 2.89 2.27.47.32.92.65 1.38.97.25.17.46.37.38.71-.07.33-.31.51-.61.61-.09.02-.2.03-.24.03zm28.9 7.29c-.4.02-.77-.08-1.15-.18a.594.594 0 0 1-.29-.18c-.24-.25-.19-.47.14-.59.18-.06.36-.1.54-.13 1.34-.27 2.66-.64 3.94-1.13 1.26-.48 2.43-1.12 3.5-1.96 1.05-.83 2.14-1.62 3.11-2.55.62-.59 1.17-1.24 1.72-1.88.14-.17.29-.32.53-.34.29-.03.57.11.7.35.13.23.08.45-.13.71-1.24 1.51-2.67 2.82-4.17 4.07a16.925 16.925 0 0 1-5.36 3.02c-.8.28-1.59.6-2.44.74-.21.03-.43.04-.64.05zM70.75 35.4c.07-1.5-.26-2.95-.51-4.42-.21-1.22-.44-2.44-.72-3.65-.31-1.31-.78-2.56-1.41-3.76-.18-.34-.37-.69-.5-1.05-.05-.15-.11-.31.02-.45.15-.15.33-.16.52-.1.23.06.35.23.46.42 1.2 2.03 2 4.22 2.47 6.52.33 1.6.68 3.19.85 4.81.1.92.06 1.85.04 2.77 0 .13-.03.26-.06.38-.1.34-.33.5-.68.46-.32-.04-.48-.22-.49-.6.01-.44.01-.88.01-1.33zM0 34.42c.21-2.58.55-5.13 1.64-7.52.15-.33.3-.66.47-.97.15-.28.37-.36.65-.3.28.07.44.29.39.58-.03.17-.09.33-.15.5-.27.77-.56 1.54-.82 2.32-.51 1.5-.72 3.05-.87 4.62-.03.34-.07.69-.11 1.03-.05.41-.22.58-.56.58-.37 0-.61-.24-.64-.62v-.22z"/><path d="M50.98 69.2c-.47 0-.92-.09-1.34-.28-.2-.09-.38-.21-.48-.42-.14-.27-.03-.49.27-.54.1-.02.2-.02.3-.01.83.1 1.61-.09 2.36-.4.85-.36 1.69-.74 2.48-1.21.43-.26.86-.53 1.21-.9.1-.1.22-.19.35-.25.36-.17.77-.06.99.27.15.21.17.43.01.64-.08.1-.15.21-.25.3-1.53 1.28-3.18 2.33-5.18 2.73-.23.05-.48.07-.72.07zM9.2 50.34c.1 0 .23.04.32.14.08.08.16.17.23.26.96 1.39 2.09 2.65 3.07 4.03.04.06.09.12.12.18.22.35.22.59 0 .83-.24.27-.64.34-.95.18-.16-.08-.3-.19-.4-.33-.72-1.05-1.57-2-2.26-3.06-.26-.4-.51-.81-.68-1.25-.06-.15-.11-.3-.09-.46.02-.29.3-.52.64-.52zm58.67 3.43c-.17-.01-.34-.06-.44-.21-.12-.17-.04-.33.05-.48.41-.66.73-1.37 1.08-2.07.71-1.4 1.21-2.86 1.45-4.41.03-.21.1-.4.31-.49a.63.63 0 0 1 .66.05c.19.13.22.32.18.54-.14.93-.35 1.84-.68 2.72-.49 1.33-1.18 2.56-1.9 3.78-.07.12-.16.24-.25.35-.12.13-.28.19-.46.22zM2.6 32.95c.09-1.33.28-2.61.66-3.86.08-.28.19-.54.37-.78.15-.2.35-.29.6-.26.34.05.5.29.4.61-.47 1.43-.67 2.91-.81 4.41-.04.48-.25.7-.61.68-.38-.03-.6-.3-.6-.75-.01-.03-.01-.06-.01-.05zm67.22 2.78c0 .12.01.29 0 .46-.03.29-.23.46-.52.47-.3.01-.48-.14-.53-.45-.01-.04-.01-.09-.01-.13-.01-1.39-.18-2.76-.28-4.14 0-.06-.01-.12-.01-.17.01-.3.13-.45.38-.49.23-.03.46.1.53.35.08.31.14.62.17.94.1 1.04.21 2.07.27 3.16zM25.42 4.38c0 .66-.59 1.26-1.23 1.25-.61-.01-1.07-.48-1.08-1.11-.01-.68.55-1.25 1.22-1.24.61.01 1.09.49 1.09 1.1zM5.71 31.51c0-.52.09-1.09.25-1.65.05-.18.12-.36.24-.5.2-.25.5-.31.78-.18.24.12.34.3.27.56-.19.7-.28 1.41-.33 2.13-.01.16-.04.32-.08.47-.09.3-.28.43-.57.42-.31-.01-.5-.19-.56-.5-.02-.11-.02-.23-.02-.34-.01-.13.01-.24.02-.41zm52.27-19.7c-.35-.01-.61 0-.86-.11-.47-.21-.66-.85-.39-1.28.34-.54 1.34-.79 1.89-.48.12.07.21.16.27.28.19.37.17.76.06 1.13-.07.25-.3.38-.55.43-.17.02-.35.02-.42.03zM33.67.26c.62 0 1.14.52 1.14 1.12 0 .61-.52 1.12-1.14 1.11-.62-.01-1.14-.51-1.14-1.12 0-.62.51-1.12 1.14-1.11zm13.36 3.25c-.01.62-.52 1.14-1.13 1.13-.61-.01-1.11-.53-1.1-1.15.01-.62.53-1.14 1.13-1.13.61 0 1.11.52 1.1 1.15zm-3.96-1.72c-.01.61-.49 1.09-1.09 1.1-.62 0-1.11-.5-1.11-1.13.01-.62.48-1.09 1.09-1.1.63 0 1.12.49 1.11 1.13zm-12.5 71.94c-.01-.61.47-1.11 1.08-1.11.6 0 1.1.49 1.1 1.1a1.1 1.1 0 0 1-1.06 1.09c-.6.02-1.11-.47-1.12-1.08zM28.41 1.87c.61 0 1.1.49 1.1 1.1a1.1 1.1 0 0 1-1.07 1.08c-.6.01-1.11-.48-1.12-1.08-.01-.6.48-1.1 1.09-1.1zm9.54.31c-.61 0-1.11-.49-1.11-1.09 0-.6.51-1.1 1.11-1.09.58.01 1.07.49 1.08 1.08.02.6-.47 1.1-1.08 1.1zM7.04 21.21c.61 0 1.11.49 1.1 1.09 0 .61-.5 1.09-1.11 1.09a1.08 1.08 0 0 1-1.08-1.07c0-.62.48-1.11 1.09-1.11zm1.99-1.82c.61 0 1.11.49 1.1 1.09 0 .6-.5 1.09-1.11 1.09-.59-.01-1.07-.48-1.08-1.07-.01-.62.47-1.11 1.09-1.11zm3.45 2.13c0 .61-.49 1.09-1.11 1.08-.61-.01-1.08-.5-1.07-1.12.01-.59.49-1.06 1.08-1.06.62 0 1.11.49 1.1 1.1zm8.19-13.47c-.61 0-1.1-.5-1.09-1.11.01-.61.51-1.09 1.12-1.07.6.01 1.06.48 1.06 1.08.01.62-.48 1.1-1.09 1.1zm-1.69 53.02c.18-.01.32.06.45.16.43.31.87.62 1.3.93.41.3.41.73-.02 1.02-.26.18-.54.2-.82.06-.57-.3-1.03-.73-1.46-1.2-.15-.17-.18-.36-.07-.56a.79.79 0 0 1 .62-.41zM9.3 30.33c.03-.4.08-.86.24-1.3.11-.3.28-.42.54-.41.32.01.54.22.52.55-.03.44-.08.89-.14 1.33-.06.45-.28.65-.63.62-.37-.02-.54-.26-.53-.79zm57.84 19.96c-.37-.01-.54-.25-.41-.59.13-.34.29-.66.44-.98.11-.23.3-.34.56-.34.38.01.55.24.44.6-.11.37-.3.72-.53 1.04a.65.65 0 0 1-.5.27zm-10.31-8.34c-.03-1.49.39-2.83 1.17-4.1.74-1.21 1.61-2.32 2.4-3.49.73-1.1 1.4-2.22 1.73-3.51.07-.28.24-.37.52-.31.33.07.57.34.6.7.02.32-.05.63-.14.94a8.14 8.14 0 0 1-1.22 2.47c-.52.73-1.06 1.44-1.6 2.15-.51.67-.95 1.38-1.36 2.11a6.947 6.947 0 0 0-.89 3.39c0 .22.01.43-.02.65-.04.35-.31.52-.66.42-.29-.09-.49-.34-.52-.67-.01-.13-.01-.26-.01-.39v-.36zm-2.87-.51c.22-3.27 1.09-6.3 3.26-8.85.45-.53.88-1.07 1.27-1.64.21-.31.5-.37.79-.21.27.15.36.4.27.7-.06.18-.16.34-.27.49-.24.32-.48.65-.74.96-1.54 1.74-2.5 3.75-2.92 6.03-.2 1.11-.39 2.21-.41 3.34 0 .04 0 .09-.01.13-.03.4-.13.54-.39.59-.3.06-.6-.11-.75-.4-.07-.15-.1-.3-.1-.46v-.68zm8.53-20.58c-.02.33-.03.66-.06.99-.02.24-.11.45-.38.53-.26.08-.48-.01-.67-.19-.15-.14-.23-.33-.31-.52-.03-.06-.05-.16-.02-.21.32-.5.11-1.04.09-1.56-.02-.56-.15-1.11-.31-1.65-.25-.84-.72-1.53-1.37-2.11a1.16 1.16 0 0 0-.21-.16c-.58-.38-.9-.38-1.46.03-.54.4-.93.9-1.09 1.56-.07.28-.08.55.09.83.18.29.03.51-.31.5-.33-.01-.54-.19-.68-.46-.18-.36-.24-.75-.14-1.14.29-1.19 1.09-1.94 2.19-2.38.34-.14.71-.08 1.07.02 1.19.31 2 1.11 2.65 2.09.47.71.66 1.53.79 2.36.09.49.13.98.13 1.47zm-33.54 2.21c-.01.26-.15.45-.29.63-.54.67-1.19 1.21-1.92 1.67-.83.51-1.7.92-2.62 1.22-.42.14-.85.28-1.28.41a8.67 8.67 0 0 0-4.04 2.57c-.21.23-.42.28-.65.17-.27-.13-.36-.38-.2-.64.09-.15.2-.28.32-.4 1.09-1.12 2.36-1.98 3.87-2.46.95-.3 1.9-.59 2.8-1.03 1.15-.56 2.16-1.27 2.87-2.36.05-.08.13-.16.2-.22.2-.15.41-.12.61-.01.2.09.32.24.33.45zm-.57-3.29c-.04.45-.11.84-.39 1.17-.26.31-.54.6-.86.85a11.1 11.1 0 0 1-3.66 2.01c-.63.2-1.26.41-1.87.67-.89.39-1.73.86-2.44 1.54-.15.15-.32.25-.54.2-.37-.07-.52-.4-.3-.71.24-.33.55-.59.88-.83.86-.62 1.82-1.05 2.81-1.41.46-.17.93-.32 1.39-.49 1-.37 1.9-.9 2.72-1.57.54-.45 1.02-.94 1.14-1.68.03-.21.17-.32.39-.35.26-.03.54.11.65.34.06.1.07.21.08.26zM19 40.05c.25-2.25 1.19-4.13 3.02-5.52.48-.37 1-.69 1.54-.97.46-.24.95-.42 1.48-.41.24 0 .46.06.61.26.18.23.11.44-.17.53-2.84.85-4.55 2.74-5.24 5.6-.07.29-.09.6-.13.9-.06.44-.39.6-.77.36-.22-.14-.35-.41-.34-.75zm24.17-13.83c.07-.33.26-.63.57-.85.27-.19.58-.31.9-.4 1-.28 2.01-.52 3.04-.62.26-.03.51-.1.75-.19.19-.08.37-.06.54.04.32.19.34.55.05.78-.23.18-.51.26-.8.31-.65.1-1.31.19-1.96.35-.39.1-.78.19-1.17.29-.36.1-.64.29-.82.65-.15.31-.33.38-.59.31a.744.744 0 0 1-.51-.67zm11.29 5.69c.07-.76.35-1.5.76-2.18.25-.42.53-.83.81-1.22.3-.42.58-.86.76-1.35.11-.29.27-.37.53-.31s.4.25.38.54c-.04.44-.25.82-.49 1.18-.31.45-.62.9-.9 1.38-.43.73-.71 1.51-.84 2.35-.03.21-.05.4-.31.44a.598.598 0 0 1-.59-.27c-.1-.16-.1-.34-.11-.56zm-7.15.28c.05-.25.08-.55.16-.84.23-.9.57-1.75 1.01-2.56.19-.34.41-.67.75-.88.3-.19.63-.15.83.07.16.18.18.37.01.54-1.01.98-1.3 2.27-1.63 3.55-.04.14-.06.28-.1.42-.1.35-.23.45-.5.41a.606.606 0 0 1-.53-.54c-.01-.04 0-.08 0-.17z"/><path d="M25.22 35.56c.28.01.55.06.7.34.1.19.07.34-.13.42-1.17.49-1.84 1.42-2.3 2.56-.02.05-.04.11-.06.16-.13.29-.28.39-.52.36a.636.636 0 0 1-.54-.54c-.02-.22.04-.43.12-.63.4-1.05 1.11-1.84 2.05-2.44.25-.18.44-.23.68-.23zm7.58 15.72c-.94 0-1.7-.1-2.36-.59-.15-.11-.3-.23-.39-.4-.11-.21-.04-.37.19-.42.21-.05.4.01.57.13.63.43 1.33.51 2.07.43.46-.05.86-.24 1.24-.48.16-.1.33-.18.53-.15.21.04.38.14.45.35.06.2-.08.33-.22.43-.66.5-1.4.74-2.08.7zm29.62-1.33c-.01.61-.5 1.09-1.11 1.08-.64 0-1.19-.59-1.17-1.25.01-.6.52-1.1 1.12-1.09.62.01 1.18.6 1.16 1.26zm-15.01 6.9c-.22 0-.42-.02-.58-.17-.12-.11-.23-.23-.19-.41.03-.16.17-.22.32-.25.68-.16 1.3-.46 1.95-.71.4-.16.79-.34 1.2-.5.29-.11.57-.02.73.21.13.19.12.38-.08.48-1.02.54-2.04 1.07-3.18 1.33-.07.01-.13.01-.17.02zm11.35-39.63c.47.02.89.3 1.17.77.28.46.45.96.59 1.48.05.19.09.41-.15.53-.18.09-.42.05-.6-.11-.17-.15-.25-.35-.33-.55-.13-.33-.24-.68-.39-1.01-.17-.38-.36-.41-.64-.1-.06.06-.1.14-.15.21-.18.22-.46.25-.69.09-.21-.16-.24-.34-.08-.61.23-.4.72-.69 1.27-.7zm.59 31.38c-.01.61-.51 1.1-1.11 1.08-.61-.01-1.08-.52-1.07-1.13.02-.59.5-1.06 1.09-1.06.6.01 1.09.5 1.09 1.11zm-4.56 2.61c-.61.01-1.1-.47-1.11-1.08 0-.61.49-1.1 1.09-1.1.58 0 1.07.48 1.09 1.07.02.6-.46 1.1-1.07 1.11zm7.28 2.76c-.61 0-1.09-.5-1.08-1.11.01-.61.51-1.09 1.12-1.07.59.01 1.06.49 1.06 1.09 0 .61-.48 1.09-1.1 1.09zm.29 2.65c-.01.61-.51 1.09-1.12 1.08a1.08 1.08 0 0 1-1.07-1.08c0-.61.48-1.11 1.09-1.11.61.01 1.11.51 1.1 1.11zM46.42 28.15c0-.21.06-.4.15-.58.24-.53.63-.92 1.11-1.23.35-.22.73-.23 1.13-.16.22.04.4.15.5.37.1.22.02.4-.22.45-.03.01-.06.01-.09.01-.76-.04-1.11.48-1.43 1.05-.07.12-.1.27-.16.4-.12.28-.25.37-.48.34a.574.574 0 0 1-.5-.51c-.02-.05-.01-.1-.01-.14zm-.49 23.79c-.19-.01-.35-.05-.49-.16-.23-.19-.33-.51.08-.65.49-.17.96-.37 1.44-.56.26-.11.53-.21.75-.41.19-.18.47-.12.65.07.18.2.16.38-.04.61-.05.05-.1.11-.16.14-.66.38-1.33.73-2.07.93-.06.01-.11.02-.16.03zm.24 1.94a.67.67 0 0 1-.48-.18c-.24-.22-.21-.49.09-.62.64-.27 1.28-.51 1.93-.75.22-.08.43-.01.59.16.16.18.17.36 0 .49-.64.46-1.35.76-2.13.9zm3.03 5.39c-.31 0-.54-.07-.69-.3-.14-.22-.1-.41.14-.49.56-.19 1.12-.36 1.69-.53.16-.05.31 0 .45.09.33.21.33.54 0 .75-.5.31-1.07.39-1.59.48zm1.07 2.56c-.21-.01-.46-.06-.66-.25-.11-.1-.18-.23-.14-.39.04-.14.17-.2.3-.21.43-.04.85-.16 1.26-.27.26-.07.52-.07.73.14.22.22.19.44-.08.6-.26.15-1.08.38-1.41.38zM32.2 49.01c-.27 0-.52-.03-.73-.21-.13-.11-.22-.24-.18-.41.03-.16.17-.23.31-.26.41-.08.82-.15 1.24-.14.21 0 .4.07.55.22.25.25.2.52-.13.63-.34.11-.7.16-1.06.17zm.05-1.99c-.25 0-.47.03-.66-.09-.17-.1-.32-.23-.27-.44.05-.19.23-.24.41-.24.2 0 .4 0 .6.02.16.01.31.07.42.18.12.11.21.25.15.42-.07.18-.23.19-.4.18-.09 0-.19-.02-.25-.03zm20.3-35.71c.03-.71-.12-1.37-.48-1.99-.2-.34-.47-.62-.84-.78-.21-.09-.42-.2-.62-.31-.53-.28-1.07-.28-1.61-.03-.26.12-.5.15-.73-.04-.24-.19-.24-.41.01-.6.16-.12.35-.21.54-.26.69-.18 1.37-.18 2.03.12.26.12.52.25.79.35 1.31.49 2.44 2.25 2.17 4-.06.4-.3.62-.66.58-.35-.04-.67-.29-.6-.7.02-.1 0-.22 0-.34zM39.46 5.19c.73-.03 1.4.09 2.05.36.21.09.42.19.56.39.08.12.16.25.08.4-.08.16-.24.21-.4.2-.11 0-.23-.03-.33-.08-1.16-.57-2.35-.42-3.55-.14-.41.09-.8.22-1.19.39-.16.07-.32.13-.5.12-.22 0-.4-.08-.53-.25-.16-.2-.13-.38.09-.51s.46-.24.7-.33c.98-.35 1.99-.57 3.02-.55zm-.38 11.63c-.01.61-.52 1.1-1.12 1.08-.61-.02-1.08-.52-1.06-1.14.02-.59.51-1.06 1.1-1.06.6.01 1.09.51 1.08 1.12zm-3.31-3.68c.61.01 1.08.5 1.07 1.12-.01.59-.49 1.06-1.08 1.06-.6 0-1.1-.49-1.1-1.1 0-.61.5-1.09 1.11-1.08zm4.25-4.55c-.37-.07-.8-.12-1.23-.11-.55.01-1.09.04-1.63.16-.17.04-.34.07-.51.02-.18-.05-.32-.15-.35-.34-.03-.2.13-.28.28-.33.31-.12.64-.18.97-.23.74-.11 1.49-.18 2.24-.05.23.04.46.08.64.24.12.11.23.24.17.41-.06.17-.22.22-.38.23h-.2zm-14.49 1.52a.536.536 0 0 1-.45-.31c-.08-.18.03-.3.14-.42.48-.56 1.1-.92 1.77-1.2.21-.09.42-.08.61.07.2.16.19.35-.01.5-.12.08-.25.15-.37.22-.42.26-.8.56-1.16.89-.15.13-.29.25-.53.25z"/><path d="M49.19 9.45c.4.02.79.18 1.12.48.26.23.46.51.63.81.06.11.12.24.03.37-.09.14-.23.16-.38.14-.18-.02-.32-.11-.45-.24l-.41-.44c-.17-.18-.35-.34-.62-.35-.03 0-.06-.01-.08-.01-.26-.08-.44-.3-.41-.49.02-.17.21-.27.57-.27zm-11.13 1.1c-.31.03-.5 0-.66-.16-.21-.21-.17-.43.12-.53.3-.1.62-.14.94-.14.3-.01.6.04.9.09.18.03.35.12.48.27.1.12.16.25.08.39-.07.12-.2.16-.34.16-.03 0-.06 0-.09-.01-.51-.13-1.02-.19-1.43-.07zm-10.6-.92c.18-.01.3.01.4.07.12.07.21.16.22.3 0 .16-.12.22-.25.27-.17.07-.35.13-.53.19-.17.05-.34.06-.5-.04-.13-.08-.23-.18-.23-.34.01-.15.12-.22.24-.27.23-.11.47-.16.65-.18zm2.78 52.74c-.79-.03-1.44-.11-2.09-.28-.41-.1-.79-.29-1.12-.55a.952.952 0 0 1-.24-.25c-.13-.21-.04-.39.2-.45.18-.04.34.03.49.11 1.1.57 2.26.69 3.44.39 1.76-.44 3.15-1.45 4.26-2.88.42-.55.8-1.13 1.2-1.69.22-.31.47-.37.74-.2.21.13.3.34.18.56-1.31 2.4-3.03 4.33-5.79 5.06-.44.11-.91.2-1.27.18z"/><path d="M32.71 63.06c-.17 0-.28-.01-.39-.07-.16-.09-.29-.2-.28-.4.01-.18.16-.21.3-.27l1.86-.81c.91-.41 1.67-1.02 2.33-1.75.16-.17.27-.37.4-.56.18-.26.43-.31.68-.17.25.15.3.37.16.67-.11.24-.26.45-.44.64-.64.69-1.36 1.28-2.2 1.72-.6.31-1.19.64-1.83.86-.22.07-.43.14-.59.14zm4.26 7.64c-.62-.01-1.1-.5-1.09-1.11.01-.64.57-1.2 1.19-1.2.63 0 1.13.51 1.11 1.14-.02.65-.56 1.18-1.21 1.17zm7.21-1.45c-.01.62-.53 1.1-1.16 1.08-.6-.02-1.09-.53-1.08-1.12.01-.62.53-1.1 1.16-1.08.62.02 1.09.52 1.08 1.12zm.59-3.11c.62.01 1.09.49 1.08 1.11-.01.61-.52 1.09-1.12 1.07-.59-.02-1.06-.51-1.06-1.1 0-.6.49-1.09 1.1-1.08zm-3.78 4.34c-.01.61-.52 1.08-1.13 1.06-.59-.02-1.05-.51-1.05-1.1.01-.61.5-1.09 1.11-1.08.62.01 1.09.51 1.07 1.12zm-3.74-8.04c-.21-.02-.38-.11-.48-.31-.1-.2.04-.33.17-.44.16-.14.32-.29.49-.42.21-.16.45-.17.64-.03.22.15.25.32.09.54-.13.17-.25.35-.43.48-.14.1-.29.18-.48.18z"/></svg>