<svg xmlns="http://www.w3.org/2000/svg" viewBox="0 0 199.5 207.27"><path fill="#BA874D" d="M189.32 110.01c1.09 1.69 1.12 3.17.13 4.61-1.11 1.61-2.65 2.55-4.62 2.61-1.51.04-2.57-.74-3.17-2.13a5.924 5.924 0 0 1-.35-3.64c.86-4.06 4.96-7.34 9.13-7.33 2.32.01 4.16.99 5.51 2.88 2.76 3.87 3.09 8.13 1.94 12.6-.95 3.72-3.01 6.85-5.86 9.31-3.06 2.65-6.77 3.68-10.83 3.2-1.22-.15-2.44-.39-3.71-.6.02.44.38.59.6.84 5.28 5.96 7.8 12.83 6.84 20.85-.36 2.99-.94 5.92-2.21 8.67-1.43 3.1-3.37 5.8-6.03 7.97-.99.81-1.95 1.65-2.94 2.46-4.7 3.84-10.09 4.99-15.98 3.95-.91-.16-1.56-.05-2.28.54-4.6 3.77-9.98 5.62-15.82 6.3-1.03.12-2.07.23-3.11.22-.74 0-.95.31-1.05.97-.29 1.82-.75 3.6-1.4 5.32-3.47 9.25-10.26 14.65-19.76 16.74-5.84 1.29-11.54.45-17.02-1.84-3.51-1.47-6.15-3.96-8.08-7.24-.22-.37-.36-.8-.75-1.14-.42.32-.65.79-.96 1.18-2.88 3.64-6.64 5.55-11.28 5.17-3.92-.33-7.45-1.86-10.27-4.7-4.58-4.62-6.25-10.18-5.15-16.6.44-2.57 1.17-5.06 1.95-7.54.97-3.05 1.88-6.12 2.37-9.29.32-2.07.41-4.15-.11-6.2-.53-2.09-1.72-3.73-3.44-5.12-.33.46-.33.9-.41 1.31-.72 3.57-2.15 6.78-4.83 9.33-2.3 2.19-5.02 3.42-8.24 3.27-2.72-.12-5.05-1.16-6.85-3.24-2.29-2.65-2.5-5.93-.56-8.86 1.2-1.81 2.83-3.14 4.7-4.19 2.1-1.18 4.34-2.06 6.65-2.72.74-.21 1.02-.56 1.09-1.3.31-3.73.23-7.43-.55-11.1-.76-3.59-2.89-6.16-6.06-7.94-1.7-.95-3.43-1.02-5.17-.17-2.82 1.37-4.97 3.34-5.68 6.55-.65 2.94 1.37 6.3 4.27 7.14.31.09.62.17.92.27.65.21 1.28.48 1.85.85 1.01.67 1.81 1.52 1.66 2.84-.16 1.37-1.17 2.05-2.38 2.42-2.04.62-4.07.36-5.98-.47-4.18-1.81-6.6-5.12-7.4-9.53-.55-3 .42-5.77 2.31-8.07 3.01-3.66 6.75-6.21 11.65-6.63.1-.01.24.02.29-.31-2.97-.6-5.67-1.91-8.23-3.72-.54 2.03-1.44 3.74-2.72 5.27-2.43 2.9-5.66 4.37-9.24 5.19-8.88 2.03-18.12-2.94-21.33-11.45-1.88-4.99-1.03-9.5 2.43-13.53 1.79-2.08 3.97-3.71 6.22-5.25 3.24-2.22 6.75-3.97 10.3-5.64 2.32-1.09 4.62-2.19 6.91-3.33.97-.48 1.9-1.03 2.83-1.58 2.48-1.47 4.28-3.56 5.54-6.15 3.33-6.84 4.17-13.95 2.34-21.35-.47-1.91-1.34-3.58-2.74-4.98-.88-.88-1.75-1.76-2.73-2.52-2.13-1.64-4.51-2.14-7.13-1.49-1.78.44-3.38 1.23-4.77 2.42-2.47 2.14-4.45 4.62-5.09 7.92-.52 2.66.14 5 2.17 6.88 1.58 1.46 3.21 1.46 4.82.06.18-.16.35-.33.53-.48 2.54-2.19 6.37-1.48 7.97 1.49.61 1.12.68 2.29.22 3.47-.57 1.48-1.57 2.6-3 3.29-3.78 1.84-7.63 1.86-11.31-.09-5.06-2.68-7.51-7-7.26-12.77.06-1.45.43-2.86 1.07-4.16 2.55-5.19 6.42-9.03 11.82-11.2 3.21-1.3 6.47-1.25 9.73-.08.3.11.6.19.91.29.03.01.06-.03.15-.07-.13-.76-.32-1.53-.4-2.31-.65-6.14 1.11-11.61 4.68-16.56.52-.72 1.15-1.33 1.79-1.93 2.64-2.5 5.76-3.27 9.21-2.32 5.48 1.5 8.81 5.23 10.1 10.66.92 3.85-1.75 8.86-5.33 10.54-2.43 1.14-4.83.93-7.11-.43-1.9-1.13-2.71-3.09-2.28-5.25.21-1.03.89-1.62 2.01-1.73.93-.09 1.54.09 2.91.87 2.71-2.78 2.21-6.82.52-9.02-1.3-1.68-3.18-1.99-5.02-.91-.91.53-1.71 1.2-2.33 2.05-3.37 4.62-4.67 9.72-3.12 15.29 1.17 4.21 3.8 7.33 7.9 9.11 2.8 1.22 5.36.92 7.77-.94 3.58-2.77 5.63-6.36 5.88-10.93.16-3.01-.27-5.99-.59-8.97-.23-2.19-.46-4.37-.37-6.58.16-4.02 1.74-7.37 4.86-9.91 3.74-3.04 8.03-4.91 12.77-5.74 2.46-.43 4.95-.48 7.39.06.96.21 1.56-.05 2.24-.63 3.04-2.58 6.49-4.39 10.38-5.27 8.16-1.85 15.88-.62 23.16 3.46 1.72.96 3.23 2.22 4.54 3.7.4.45.7.6 1.29.27 3.09-1.71 6.44-2.57 9.93-2.94 1.24-.14 2.48-.01 3.7.2 2.25.4 4.42 1.1 6.46 2.15 1.88.96 3.48 2.26 4.8 3.92a26.95 26.95 0 0 1 3.24 5.18c1.18 2.44 1.44 5.06 1.37 7.72-.05 1.85-.31 3.66-.86 5.43-.05.18-.2.36-.05.56.22.02.37-.12.53-.24 3.56-2.51 7.45-3.04 11.65-2.1 3.6.81 6.6 2.62 9.19 5.14 6.31 6.13 9.77 13.55 9.83 22.42.02 2.44-.36 4.87-1.15 7.19-.23.69-.12 1.17.3 1.74 2.5 3.45 4 7.26 4.12 11.56.06 2.1-.25 4.14-.9 6.14-.93 2.83-2.22 5.48-3.89 7.94-1.73 2.55-3.52 5.06-5.28 7.58-.99 1.41-1.96 2.82-2.77 4.34-.83 1.56-1.44 3.2-1.7 4.97-.14.93-.04 1.84.22 2.72 1.22 4.1 3.9 6.9 7.76 8.61 1.11.49 2.3.72 3.51.64 1.96-.13 3.59-.88 4.82-2.52 2.25-2.99 3.36-7.89.67-12.04-.49-.79-1.1-1.44-2.33-1.8zm-52.75 25.21c-.07-.02-.11-.05-.14-.04-.4.1-.69.39-1.03.6-2.35 1.44-4.84 2.57-7.62 2.64-5.28.13-9.18-2.37-11.55-6.96-2.58-4.97-1.79-9.84 1.28-14.4 1.88-2.79 4.62-3.76 7.84-3.21 3.32.57 5.37 2.67 6.26 5.89.42 1.49-.12 2.68-1.46 3.45-2.35 1.35-6 .36-6.81-2.31-.14-.47-.26-1-.71-1.31-1.17 1.01-1.81 2.17-2.24 4.05-.9 3.86 1.04 7.83 4.51 9.38 1.19.53 2.22.44 3.26-.31 1.06-.76 1.93-1.68 2.66-2.74a41.29 41.29 0 0 0 4.61-8.93c1.98-5.33 2.65-10.93 3.32-16.53.39-3.26.45-6.54.66-9.81.06-.89.01-1.78.01-2.91-.91 1.46-1.49 2.81-2.07 4.15-1.09 2.53-2.18 5.07-3.4 7.54-.74 1.51-1.62 2.93-2.82 4.14-1.56 1.58-3.43 2.12-5.59 1.8-1.04-.16-1.99-.57-2.88-1.12-2.41-1.5-3.73-3.77-4.51-6.42-.22-.75-.38-1.53-.56-2.29-.3.04-.37.24-.47.41-1.5 2.46-3.06 4.88-4.9 7.11-.35.43-.35.87-.29 1.35.23 1.59.23 3.19.29 4.79.17 4.47-.34 8.86-1.55 13.17-.52 1.86-1.21 3.64-2.37 5.21-1.82 2.45-4.24 3.29-7.18 2.65-5.26-1.15-9.12-5.3-10.1-10.79-.56-3.13-.62-6.28-.32-9.44.11-1.18 0-2.13-.93-3.11-1.97-2.1-3.25-4.67-2.99-7.6.38-4.41 2.27-8.14 5.86-10.86 2.49-1.88 5.3-2.35 8.3-1.56 3.18.84 5.52 2.81 7.23 5.57 1.13 1.81 1.89 3.79 2.53 5.81.1.32.22.64.34.97.34-.11.45-.34.58-.53 1.88-2.64 3.53-5.43 5.15-8.23.28-.48.31-.97.31-1.5-.02-2.8.06-5.6.36-8.39.17-1.63.34-3.27.96-4.8.7-1.75 2.13-2.58 4-2.35 2.13.26 3.79 1.73 4.37 3.9.37 1.37.35 2.77.34 4.17-.02 2.48-.07 4.96-.1 7.44-.03 2.04.13 4.08.48 6.09.27 1.52.64 3.02 1.17 4.52.58-.27.87-.71 1.19-1.1 1.44-1.78 2.56-3.77 3.56-5.82 2.22-4.56 4.37-9.17 6.78-13.64.15-.28.3-.57.37-.88.28-1.11 1.2-1.7 2.62-1.58 1.48.12 2.63.87 3.53 2.03.82 1.06 1.3 2.29 1.67 3.56.68 2.37.84 4.8.91 7.24.2 6.85-.23 13.67-1.42 20.42-.8 4.55-2.04 8.96-4.25 13.05-.08.14-.27.32-.12.46 8.59-3.52 17.21-4.2 26.17-.65-.26-.35-.35-.48-.44-.61-3.42-4.68-4.1-9.7-1.82-15.05.8-1.88 1.82-3.65 2.96-5.35 1.66-2.5 3.33-4.99 4.99-7.48 1.04-1.56 2.06-3.14 2.91-4.83 2.02-4.01 3.05-8.23 2.73-12.74-.05-.78-.16-1.55-.37-2.31-.49.1-.67.44-.94.67-1.6 1.37-3.35 2.46-5.39 3.04-3.97 1.13-7.63.54-10.78-2.21-3.27-2.86-3.68-6.93-1.13-10.43 1.79-2.46 4.25-3.81 7.22-4.31 1.76-.3 3.51-.2 5.25.08.46.08.68-.02.74-.48.04-.32.07-.63.09-.95.11-1.88.04-3.76-.2-5.63-.47-3.54-1.19-7.01-2.61-10.31-1.09-2.53-2.54-4.84-4.59-6.68-3.86-3.47-8.49-3.43-12.04.05-2.15 2.11-3.51 4.77-4.18 7.71-.55 2.35.02 4.45 2 6.02.77.61.82.59 1.66.06 2.16-1.37 5-1.1 6.87.66 1.85 1.74 1.76 4.09-.34 5.52-3.65 2.48-8.77 2.6-12.17-1.3-.68-.79-1.24-1.66-1.8-2.56-.13.1-.24.16-.3.25-1.63 2.66-2.7 5.52-2.96 8.65-.18 2.18.3 4.19 1.46 6.07 1.05 1.69 3.25 1.42 4.22.3.72-.82 1.04-1.78 1.04-2.86 0-.48-.12-.76-.68-.71-.75.06-1.42-.17-1.98-.69-.98-.9-.84-2.12.31-2.79.73-.42 1.52-.49 2.32-.36 2.02.34 3.61 1.9 4.1 3.91.35 1.42.08 2.78-.3 4.14-.93 3.26-4.66 6.75-9.63 5.37-5.83-1.62-9.12-8.12-7.02-13.96.47-1.32 1.11-2.56 1.78-3.8.18-.33.45-.64.48-1.1-.43.09-.67.36-.95.55a35.51 35.51 0 0 1-3.7 2.22c-3.17 1.66-6.51 2.61-10.13 2.46-1.36-.05-2.72.04-4.08.01-3.14-.08-6.1.57-8.9 2.03-3.19 1.66-4.62 4.39-5 7.8-.09.78.31 1.28 1.06 1.55.62.22 1.26.22 1.89.05.55-.15.82-.59 1.07-1.06.25-.47-.06-.75-.29-1.07-.07-.1-.13-.2-.18-.31-.36-.73-.35-1.41.05-1.8.51-.48 1.11-.39 1.69-.18 1.17.43 1.9 1.29 2.3 2.45 1.06 3.12-1.17 6.45-4.49 6.77-3.91.37-7.88-3.05-8.23-7.11-.25-2.95.81-5.48 2.61-7.76.22-.28.57-.49.67-.92-3.36.56-6.45 2.59-8.15 5.32-.91 1.47-1.62 3.03-2.12 4.68-.51 1.68-.54 3.39-.14 5.1.12.5.19 1.08.75 1.36.31-.33.34-.71.48-1.04.46-1.13 1.37-1.53 2.52-1.13 1.22.43 2.01 1.58 1.91 2.87-.04.55-.16 1.11-.3 1.65-.61 2.4-1.91 3.42-4.37 3.45-.48 0-.97-.01-1.43-.11-3.82-.82-6.3-3.18-7.52-6.82-1.09-3.26-.32-6.33 1.35-9.2 2.2-3.77 5.32-6.56 9.3-8.37 1.16-.53 2.33-1 3.53-1.51-.18-.23-.41-.3-.63-.4-1.96-.81-3.83-1.8-5.62-2.95-1.15-.73-2.34-1.37-3.59-1.93a9.63 9.63 0 0 0-2.52-.75 5.05 5.05 0 0 0-2.82.36c-.67.3-1.01.96-.94 1.65.07.68.51.89 1.12 1.04 1.3.31 2.36 1 2.99 2.21.64 1.23.25 2.4-.98 3.03-.54.28-1.12.42-1.73.45-3.21.19-6.71-2.32-7.54-5.42-.98-3.65 1.33-6.85 4.49-7.33.59-.09 1.18-.17 1.78-.2 2.3-.1 4.42.62 6.47 1.55 2.01.91 3.87 2.08 5.72 3.27 1.66 1.06 3.4 1.93 5.3 2.5.24.07.48.16.76.04-.09-.14-.12-.22-.18-.27-3.49-2.65-6.51-5.79-9.46-9-2.38-2.6-4.97-4.98-7.67-7.25-1.38-1.16-2.86-2.18-4.51-2.93-2.06-.93-4.2-1.56-6.5-1.39-1.97.14-3.62.97-4.92 2.44-.65.73-.65 1.17.02 1.89 1.01 1.1 2.35 1.45 3.79 1.47.33 0 .61-.17.88-.34.45-.29.69-.62.43-1.19-.22-.48-.25-1.01-.18-1.53.08-.67.31-1.27 1.01-1.5.65-.22 1.17.09 1.61.54 1.17 1.19 1.68 2.62 1.45 4.27-.56 3.94-3.82 6.33-7.73 5.7-.47-.08-.94-.21-1.39-.34-.94-.28-.94-.29-1.12.65-.48 2.6-1.44 4.98-3.08 7.07-4.47 5.71-12.08 8.63-19.65 6.28-.32-.1-.63-.33-1-.14-.03.4.17.72.29 1.05 2.11 5.52 2.08 11.1.41 16.71-1.8 6.04-5.32 10.59-11.3 13.01-1.48.6-2.94 1.26-4.42 1.87-3.25 1.35-6.55 2.56-9.73 4.07-3.09 1.47-5.96 3.26-8.39 5.71-2.41 2.43-3.49 5.34-2.89 8.74.59 3.31 2.39 5.79 5.39 7.37 2.16 1.14 4.33.77 6.53.12 5-1.48 7.26-7.61 4.4-11.97-.62-.94-1.45-1.58-2.49-1.98-.61-.24-1.06-.09-1.5.36-1.29 1.34-1.52 2.72-.56 4.32 1.05 1.74.26 3.24-1.41 3.81-3.18 1.08-6.41-1.39-6.21-4.74.22-3.57 3.44-7.38 6.92-8.2 1.62-.38 3.17-.13 4.71.38 1.33.44 2.56 1.08 3.71 1.88.38-.45.46-.94.66-1.37 1.2-2.56 2.96-4.53 5.69-5.53 3.84-1.41 8.61-.11 10.96 3 .92 1.22 1.44 2.59 1.3 4.13-.12 1.21-.7 1.98-1.49 2.08-.84.11-1.51-.42-1.97-1.59-.33-.86-.69-1.71-1.28-2.43-1.23-1.49-2.7-1.79-4.35-.79-2.08 1.25-2.9 3.21-2.58 5.52.51 3.73 2.28 6.62 6 7.99 1.05.39 2.1.76 3.14 1.19 2.81 1.16 5.14 2.96 6.79 5.51 1.34 2.08 2.76 4.12 3.82 6.37.39.82.86 1.6 1.5 2.31.19-.4-.02-.69-.09-.99-.77-3.31-1.06-6.64-.27-9.98.55-2.31 1.29-4.54 2.74-6.47.81-1.09 1.84-1.9 3.16-2.26 3.75-1.03 8.06 1.74 8.69 5.56.29 1.77-.53 3.04-2.27 3.53-2.09.59-4.47-.25-5.77-2-.22-.3-.31-.73-.75-.9-.71.84-1.16 1.77-1.48 2.76-.79 2.42-.79 4.88-.36 7.35.41 2.36 1.27 4.54 2.86 6.38.66.76 1.39 1.44 2.29 1.92 1.6.86 2.99.61 4.2-.75.59-.66 1.03-1.43 1.41-2.22.99-2.06 1.79-4.19 2.31-6.42 1.06-4.54 1.41-9.16 1.47-13.8.07-4.76-.17-9.52-.29-14.27-.13-5.32-.33-10.64.28-15.94.02-.18.09-.4-.12-.54-.27-.05-.44.16-.63.28-2.14 1.34-4.36 2.53-6.61 3.66-1.64.82-3.28 1.67-4.89 2.55-2.3 1.25-4.38 2.79-6.22 4.65-1.85 1.87-3.09 4.05-3.63 6.64-.11.55-.27 1.09-.47 1.61-.35.93-.95 1.3-1.95 1.25-.96-.05-1.77-.46-2.47-1.1-1.16-1.05-1.67-2.42-1.81-3.94-.25-2.61.46-5 1.75-7.23 2.03-3.51 4.84-6.24 8.43-8.14 2.46-1.29 5.08-2.13 7.74-2.86 2.12-.59 4.25-1.13 6.3-1.92 1.94-.75 3.83-1.61 5.5-2.89.95-.72 1.62-1.6 1.97-2.77.4-1.38.85-2.75 1.54-4.02.54-.99 1.23-1.3 2.29-1.09 1.35.27 2.23 1.37 2.16 2.74-.05.92-.16 1.83-.21 2.75-.19 3.48.03 6.95.23 10.43.29 5.03.1 10.08.41 15.11.28 4.71.47 9.43.66 14.14.23 5.65-.1 11.27-1.36 16.81-.66 2.91-1.71 5.65-3.6 8.02-4.85 6.1-15.21 6.59-20.16-.14-.17-.23-.28-.56-.66-.61 0 .14-.03.26 0 .37.96 3.33 1.35 6.74 1.41 10.19.01.63.26.91.82 1.13 1.68.68 3.21 1.61 4.64 2.73.31.24.55.58.96.67.29-.19.23-.49.28-.76.17-1.07.45-2.11.86-3.11 1.18-2.89 3.28-4.76 6.3-5.6 6.28-1.76 11.49 1.51 14.05 4.94.87 1.17 1.44 2.48 1.66 3.94.21 1.42-.19 2.58-1.24 3.57-1.4 1.31-2.88.93-3.47-.89-.53-1.64-1.52-2.99-2.77-4.14-.62-.57-1.37-.99-2.28-.85-1.3.2-2.34.81-2.98 1.98-1.83 3.34-1.53 7.01.97 9.81 1.4 1.56 3.18 2.09 5.22 1.65 2.48-.53 4.46-1.9 6.12-3.77 1.38-1.55 2.27-3.37 3.03-5.27.76-1.9 1.21-3.89 1.89-5.81.86-2.47 1.91-4.86 3.57-6.89 3.37-4.13 7.68-6.04 12.97-4.7 5.54 1.41 9.04 5.19 11.07 10.41.53 1.36.36 2.75-.22 4.09-.41.96-.97 1.83-1.58 2.68-.21.28-.53.5-.58.95 1.38.48 2.79.92 4.07 1.66 5.5 3.22 8.96 7.96 10.54 14.11.42 1.63.52 3.31.61 4.99.05.92.08.95.98.9 4.04-.23 7.91-1.12 11.47-3.12.27-.15.59-.26.75-.57-.04-.07-.06-.15-.11-.21-.19-.21-.38-.41-.58-.61-4.45-4.72-6.37-10.34-5.89-16.79.13-1.82.66-3.53 1.53-5.14 2.37-4.37 7.07-6.36 11.6-4.7 5.39 1.98 8.55 5.87 9.18 11.65.4 3.75-.35 7.32-1.79 10.77-.13.3-.36.59-.3 1.01.23-.02.39-.01.54-.05.61-.18 1.24-.32 1.83-.58 5.82-2.53 10.24-6.45 12.43-12.58 1.36-3.82 2.16-7.69 1.24-11.76-.78-3.44-2.14-6.54-5-8.78-2.25-1.77-4.76-3.15-7.53-3.86-5.88-1.52-11.54-.6-16.86 2.14-3.72 1.92-5.84 5.11-6.38 9.31-.12.91-.18 1.83-.35 2.73-.32 1.71-1.54 2.44-3.19 1.87-1.9-.65-3.05-2.03-3.42-3.98-.44-2.38-.58-4.77.23-7.11a.714.714 0 0 1-.09-.33zm8.98-88.11c-.67-.15-1.06-.23-1.45-.32-2.29-.54-4.38-1.5-6.2-3-2.03-1.66-3.13-3.8-3.31-6.41-.12-1.75.77-2.93 2.49-3.26.75-.15 1.51-.14 2.26.06 2.35.64 4.12 1.93 4.8 4.38.18.64.58.8 1.14.81.37 0 .7-.11 1.04-.25.84-.35 1.46-.96 2.01-1.66 1.56-1.98 2.22-4.32 2.58-6.76.68-4.67-1.17-8.43-4.32-11.68-.33-.34-.75-.61-1.16-.84-2.66-1.45-5.49-2.22-8.53-1.85-2.69.32-5.21 1.18-7.55 2.57-1.19.7-1.19.71-.52 1.96 1.59 2.96 2.43 6.06 2 9.46-.37 2.96-1.95 4.91-4.88 5.48-3.6.7-6.75-.3-9.19-3.09-1.34-1.53-1.79-3.35-1.33-5.37.49-2.21 1.68-4.04 3.07-5.77.98-1.22 2.15-2.26 3.37-3.23.76-.61.75-.62.13-1.4a12.527 12.527 0 0 0-3.83-3.23c-4.84-2.65-9.98-3.81-15.49-2.93-3.62.58-6.8 2.03-9.29 4.81-1.11 1.24-1.1 1.22.18 2.27 3.38 2.78 5.84 6.13 6.42 10.6.36 2.74-.71 4.85-3.04 6.29-1.62 1-3.43 1.36-5.3 1.14-4.43-.52-7.83-2.73-10.02-6.6-2.08-3.68-2-7.4.41-10.98.21-.31.57-.57.56-1.01-.09-.05-.16-.11-.23-.11-.2-.01-.4-.01-.6-.01-2.89.09-5.59.91-8.13 2.26-1.74.93-3.32 2.08-4.64 3.56-1.41 1.59-2.23 3.4-2.03 5.58.17 1.88.77 3.64 1.36 5.53.44-.31.79-.56 1.14-.8 2.65-1.89 5.53-2.37 8.66-1.49 1.24.35 2.41.84 3.57 1.39 3.61 1.73 6.71 4.14 9.59 6.91 3.25 3.14 6.38 6.4 9.56 9.6 3.04 3.06 6.43 5.64 10.37 7.45.35.16.66.42 1.17.42-.09-.6-.44-.99-.66-1.44-1.7-3.4-1.42-6.64.73-9.74 1.16-1.67 2.64-2.99 4.36-4.06 3.02-1.89 6.04-1.69 8.89.26 2.65 1.81 3.94 4.35 3.45 7.63-.16 1.09-.67 2.01-1.76 2.39-1.37.47-2.61.04-3.67-.86-1.03-.87-1.65-1.95-1.37-3.37.06-.31.17-.62.22-.93.14-.81-.04-1-.8-.72-2.44.9-4.27 2.47-5.2 4.96-.46 1.24-.34 2.42.32 3.57 1.25 2.19 3.22 3.15 5.65 3.25 3.63.15 7.06-.7 10.31-2.29 2.88-1.41 5.58-3.13 8.08-5.14 1.51-1.22 2.95-2.55 4.61-3.99zm-15 136.1c-.48-.26-.88-.28-1.27-.35-6.65-1.28-12.65-3.91-17.65-8.6-1.5-1.41-2.83-2.95-3.7-4.83-2.02-4.34-1.73-8.44 1.31-12.25.17-.21.43-.36.42-.77-.37-.16-.76-.32-1.16-.5-1.84-.83-3.35-2.01-4.22-3.9-1.07-2.34-.65-4.49.76-6.57.99-1.46 3.41-1.36 4.5-.02.5.62.58 1.3.2 2.01-.17.31-.39.6-.56.92-.44.87-.39 2.06.17 2.6.7.67 1.56.55 2.36.23 1.29-.5 2.17-1.46 2.78-2.68.53-1.06.63-2.12.12-3.23-.47-1.02-.99-2.01-1.71-2.88-.87-1.06-1.93-1.78-3.32-1.95-1.03-.13-1.98.14-2.91.52-2.91 1.18-4.58 3.51-5.82 6.24-.8 1.76-1.24 3.62-1.73 5.48-.92 3.52-2.27 6.84-4.7 9.6-5.71 6.5-13.77 6.73-19.82 2.3-.24-.18-.42-.5-.88-.41-.03 1.3.01 2.62-.16 3.92-.47 3.61-1.22 7.17-2.17 10.69-.57 2.12-1.13 4.24-1.47 6.42-.64 4.1 2.23 10.15 6.67 11.48 2.28.69 3.77.39 5.36-1.44 2.16-2.48 2.94-5.4 2.53-8.59-.25-1.95-.87-3.84-2.76-4.95-.73-.43-.97-.42-1.57.18-1.2 1.19-1.33 3.27-.29 4.58 1.07 1.35.71 2.7-.89 3.33-.33.13-.69.21-1.04.24-2.22.21-4.41-1-5.46-2.99-1.28-2.44-.9-5.54.98-7.74 1.38-1.61 3.15-2.62 5.22-2.96 3.67-.61 6.88.43 9.61 2.94.26.23.42.59.8.67.35-.19.48-.54.69-.82 1.09-1.43 2.45-2.51 4.08-3.27 1.5-.7 3.08-1.14 4.71-1.32 6.07-.66 11.31 1.01 15.48 5.61 1.12 1.23 1.89 2.66 2.21 4.32.26 1.37.1 2.59-.79 3.73-1 1.28-2.09 1.27-3.04-.08-1.34-1.9-2.8-3.69-4.67-5.12-1.13-.87-2.36-1.49-3.76-1.78-2.47-.5-4.44.33-5.52 2.54-2.57 5.28-1.67 10.13 2.48 14.38.39.4.88.7 1.39.94 2.27 1.05 4.65 1.74 7.16 1.76 3.56.03 6.84-1.12 10-2.62 3.54-1.68 6.25-4.27 8.2-7.65 1.35-2.27 2.2-4.76 2.85-7.36zm.95-7.6c.22-1.14.11-2.25.02-3.35-.33-4.24-1.97-7.87-5.11-10.76-2.03-1.87-4.42-2.79-7.21-2.69-1.58.06-2.77.71-3.55 2.06-1.47 2.55-1.48 5.28.51 7.56.55.64 1.17 1.2 1.83 1.72 3.18 2.53 6.82 4.11 10.75 5.03.9.21 1.79.42 2.76.43zm-30.47-64.25c.53.05.96-.19 1.39-.37 1.83-.78 3.3-2.08 4.79-3.34.52-.44.7-.9.57-1.56-.51-2.63-1.18-5.21-2.35-7.65-.56-1.16-1.26-2.22-2.21-3.11-2.7-2.52-6.01-2.5-8.66.08-2.28 2.21-3.43 4.96-3.76 8.08-.13 1.25.13 2.45.73 3.62.28-.26.34-.58.47-.86 1.24-2.81 4.11-3.71 6.76-2.13 1.57.93 2.18 2.38 2.26 4.11.05 1.02.01 2.05.01 3.13zm58.86 45.22c.02-1.22-.11-2.4-.56-3.53-.54-1.35-1.6-2.09-2.99-2.29-1.34-.2-2.28.53-3.03 1.56-.23.32-.45.67-.61 1.03-1.78 4.13-1.62 8.15.7 12.04.37.62.83 1.17 1.37 1.66.38.34.67.46 1.07-.04 2.42-3.08 3.89-6.5 4.05-10.43zm-51.65-45.37c-.26.13-.37.16-.46.23-1.85 1.53-3.94 2.58-6.28 3.11-.59.13-.72.45-.77.99-.41 4.3.27 8.44 1.73 12.48.18.48.42.95.7 1.39.4.62.58.64 1.12.16.83-.73 1.4-1.65 1.78-2.67 1.88-5.03 2.47-10.23 2.18-15.69zm63.07-43.22c-1.98-.02-3.5.45-4.71 1.7-2.28 2.35-1.59 5.66 1.43 6.92 1.39.58 1.97.48 2.96-.64 1.69-1.91 2.78-4.15 3.57-6.56.17-.53-.05-.71-.48-.88-.98-.39-2.01-.48-2.77-.54zM52.11 151.7c-.09-.01-.21-.06-.31-.03-2.05.62-3.96 1.51-5.56 2.96-.87.79-1.54 1.72-1.88 2.87-.26.89-.18 1.74.25 2.55.92 1.73 1.95 1.92 3.24.47 2.23-2.5 3.57-5.46 4.33-8.7.01-.02-.03-.05-.07-.12zM90.55 20.04c-.97 1.93-1.27 3.79-.93 5.72.26 1.45 1.04 2.56 2.41 3.21.97.46 1.74.15 2.04-.87.16-.53.19-1.09.13-1.66-.26-2.62-1.66-4.58-3.65-6.4zm34.32 2.93c-1.29 1.65-1.97 3.26-2.14 5.09-.02.26-.11.6.23.73.28.11.53-.08.76-.25.09-.07.19-.15.26-.25 1.15-1.55 1.28-3.26.89-5.32z"/><path d="M5.59 135.32c-.07-.73.01-1.44.32-2.11.33-.72.92-1.12 1.69-1.14.81-.02 1.35.43 1.61 1.19.38 1.13.75 2.28 1.13 3.41 3.08 9.24 7.3 17.9 13.15 25.71 5.72 7.63 12.34 14.36 19.98 20.08 2.51 1.87 5.22 3.41 7.92 4.97.45.26.91.5 1.28.89.66.69.69 1.41.08 2.14-.63.75-1.44.97-2.38.78-.67-.14-1.28-.45-1.87-.78a91.712 91.712 0 0 1-14.46-10.04c-3.82-3.24-7.4-6.7-10.57-10.6-3.23-3.97-6.39-7.99-9.18-12.29-3.88-5.98-6.83-12.37-8.39-19.36-.14-.62-.23-1.26-.31-1.89-.03-.32 0-.64 0-.96zm47.5 48.72c-.96-.02-1.62-.39-2.25-.83-4.27-2.98-8.36-6.14-12.12-9.77-5.67-5.47-10.73-11.41-15.04-17.99-3.1-4.73-5.76-9.68-7.44-15.11-.21-.69-.4-1.38-.47-2.1-.05-.49 0-.96.32-1.36.85-1.07 2.46-1 3.01.29 1.6 3.71 3.44 7.3 5.45 10.8 4.93 8.61 10.6 16.65 18.01 23.35 2.52 2.28 5.2 4.37 8.02 6.28 1.29.87 2.55 1.79 3.83 2.68.7.48 1.26 1.03 1.06 1.97-.2.91-.85 1.42-1.7 1.68-.27.08-.56.09-.68.11zm80.07 20.19c-1.1.05-2.14-.23-3.18-.51-.32-.08-.59-.25-.81-.49-.66-.68-.52-1.31.39-1.62.49-.17 1-.27 1.51-.37 3.72-.75 7.38-1.78 10.92-3.14 3.48-1.33 6.74-3.11 9.69-5.42 2.92-2.3 5.93-4.48 8.62-7.06 1.71-1.64 3.23-3.43 4.78-5.21.4-.46.8-.89 1.46-.95.79-.07 1.57.31 1.93.96.35.65.23 1.25-.36 1.97-3.44 4.18-7.39 7.83-11.55 11.29a46.767 46.767 0 0 1-14.84 8.36c-2.23.76-4.41 1.66-6.75 2.05-.62.08-1.21.11-1.81.14zm62.88-106.14c.19-4.15-.72-8.19-1.42-12.24-.59-3.39-1.21-6.77-2-10.11-.86-3.63-2.16-7.11-3.92-10.41-.51-.95-1.03-1.9-1.39-2.92-.14-.41-.31-.86.06-1.24.41-.41.92-.43 1.45-.29.63.17.97.64 1.29 1.17 3.32 5.63 5.53 11.68 6.85 18.08.92 4.42 1.89 8.83 2.35 13.33.26 2.55.16 5.11.12 7.67 0 .35-.08.72-.17 1.06-.26.95-.92 1.38-1.88 1.27-.9-.1-1.34-.62-1.35-1.66 0-1.24.01-2.48.01-3.71zM.01 95.38c.59-7.15 1.53-14.21 4.53-20.83.41-.91.82-1.82 1.3-2.69.42-.77 1.04-1.01 1.8-.82.79.19 1.22.8 1.08 1.6-.08.47-.25.92-.4 1.38-.75 2.15-1.54 4.28-2.27 6.43-1.41 4.15-1.99 8.46-2.42 12.79-.1.95-.18 1.91-.3 2.86-.14 1.15-.6 1.61-1.54 1.61-1.02 0-1.7-.66-1.78-1.72-.02-.21 0-.41 0-.61z"/><path d="M141.25 191.74c-1.29-.01-2.54-.24-3.72-.77-.55-.25-1.05-.59-1.33-1.15-.38-.76-.07-1.36.75-1.49.27-.04.56-.05.83-.01 2.29.29 4.45-.24 6.53-1.12 2.35-.99 4.68-2.04 6.88-3.36 1.2-.72 2.37-1.48 3.35-2.49.28-.29.6-.52.97-.69 1-.47 2.12-.17 2.75.74.41.59.47 1.18.04 1.78-.21.29-.42.59-.69.82-4.24 3.53-8.81 6.46-14.34 7.57-.67.12-1.34.18-2.02.17zM25.49 139.49c.28.01.63.12.89.38.23.22.45.46.63.72 2.65 3.86 5.8 7.34 8.5 11.17.12.16.24.32.34.49.61.96.61 1.64 0 2.29-.68.74-1.76.94-2.63.49-.43-.22-.83-.52-1.1-.91-1.99-2.9-4.35-5.53-6.27-8.49-.72-1.11-1.4-2.24-1.89-3.47-.16-.41-.3-.83-.26-1.28.08-.77.86-1.4 1.79-1.39zm162.55 9.48c-.48-.03-.94-.17-1.23-.59-.32-.47-.11-.92.15-1.34 1.14-1.84 2.02-3.81 2.99-5.73 1.96-3.87 3.37-7.92 4.01-12.23.09-.58.28-1.1.85-1.36.62-.29 1.25-.26 1.82.13.53.36.6.89.51 1.49-.39 2.57-.98 5.1-1.88 7.53-1.37 3.68-3.28 7.09-5.26 10.47-.2.34-.45.66-.69.98-.32.4-.75.59-1.27.65zM7.22 91.29c.25-3.68.77-7.23 1.82-10.68.23-.76.54-1.5 1.02-2.15.42-.56.97-.82 1.67-.72.93.13 1.4.8 1.11 1.7-1.29 3.97-1.87 8.07-2.25 12.21-.12 1.32-.69 1.94-1.69 1.87-1.05-.07-1.66-.83-1.67-2.09-.01-.07-.01-.15-.01-.14zm186.23 7.72c0 .33.04.81-.01 1.29-.08.82-.62 1.28-1.45 1.3-.84.02-1.34-.39-1.48-1.24-.02-.12-.03-.24-.03-.36-.03-3.84-.49-7.66-.79-11.48-.01-.16-.02-.32-.02-.48.02-.83.35-1.25 1.06-1.35.65-.08 1.28.29 1.46.98.21.85.38 1.72.48 2.59.31 2.86.63 5.72.78 8.75zM70.42 12.15c0 1.84-1.62 3.48-3.41 3.46-1.69-.02-2.97-1.34-2.99-3.07-.02-1.9 1.52-3.46 3.38-3.44 1.69.01 3.02 1.36 3.02 3.05zM15.81 87.3c.01-1.45.25-3.02.71-4.56.15-.5.33-.99.66-1.4.55-.68 1.39-.87 2.15-.5.68.33.94.82.75 1.55-.52 1.93-.78 3.9-.92 5.9-.03.43-.1.88-.22 1.29-.25.84-.77 1.19-1.59 1.15-.85-.04-1.39-.51-1.54-1.38-.05-.31-.07-.63-.07-.95 0-.31.04-.62.07-1.1zm144.83-54.59c-.98-.02-1.7-.01-2.38-.32-1.3-.59-1.84-2.34-1.08-3.55.94-1.49 3.73-2.2 5.24-1.34.32.18.57.44.74.76.52 1.02.48 2.1.17 3.14-.21.7-.83 1.06-1.53 1.19-.46.1-.94.1-1.16.12zM93.29.71c1.71.01 3.16 1.43 3.17 3.1.01 1.69-1.44 3.1-3.16 3.09-1.73-.02-3.15-1.42-3.16-3.11 0-1.71 1.41-3.09 3.15-3.08zm37.02 9.01c-.02 1.72-1.44 3.15-3.13 3.12-1.7-.03-3.08-1.47-3.05-3.2.02-1.72 1.46-3.15 3.13-3.13 1.69.03 3.07 1.47 3.05 3.21zm-10.97-4.76c-.02 1.7-1.35 3.03-3.03 3.04-1.73.01-3.08-1.38-3.06-3.13.02-1.71 1.34-3.03 3.03-3.03 1.74-.01 3.08 1.36 3.06 3.12zM84.71 204.28a3.029 3.029 0 0 1 3-3.09c1.67-.01 3.05 1.37 3.04 3.05a3.059 3.059 0 0 1-2.95 3.03c-1.67.06-3.07-1.3-3.09-2.99zM78.73 5.18c1.7 0 3.06 1.37 3.04 3.05a3.058 3.058 0 0 1-2.98 3c-1.67.03-3.08-1.34-3.1-3.01-.03-1.66 1.35-3.03 3.04-3.04zm26.43.87c-1.69.01-3.07-1.35-3.07-3.02.01-1.66 1.42-3.05 3.08-3.03 1.62.02 2.97 1.36 3 2.98a3.02 3.02 0 0 1-3.01 3.07zM19.5 58.76a3.035 3.035 0 0 1 3.06 3.03 3.014 3.014 0 0 1-3.07 3.01c-1.66-.02-2.95-1.3-2.98-2.96-.03-1.71 1.3-3.07 2.99-3.08zm5.51-5.05a3.04 3.04 0 0 1 3.06 3.03c0 1.67-1.39 3.03-3.08 3.01a2.998 2.998 0 0 1-2.98-2.97c-.03-1.7 1.3-3.06 3-3.07zm9.58 5.92a3.005 3.005 0 0 1-3.07 3c-1.69-.02-3-1.38-2.97-3.09a2.999 2.999 0 0 1 3-2.95 3.02 3.02 0 0 1 3.04 3.04zM57.28 22.3a3.014 3.014 0 0 1-3.01-3.07c.03-1.69 1.4-3.01 3.1-2.97 1.65.03 2.93 1.34 2.94 3 .01 1.7-1.34 3.05-3.03 3.04zM52.6 169.21c.51-.02.89.18 1.26.44 1.2.86 2.4 1.71 3.59 2.58 1.15.84 1.13 2.01-.05 2.82-.72.49-1.49.56-2.26.15-1.57-.84-2.85-2.02-4.03-3.33-.41-.46-.5-.99-.19-1.55.36-.68.97-1.02 1.68-1.11zM25.77 84.04c.09-1.11.22-2.38.66-3.59.3-.82.77-1.15 1.5-1.14.89.01 1.51.61 1.45 1.53-.08 1.23-.21 2.46-.39 3.68-.18 1.25-.77 1.8-1.74 1.73-1.03-.08-1.5-.74-1.48-2.21zm160.27 55.3c-1.01-.03-1.5-.7-1.15-1.62.36-.93.79-1.83 1.22-2.73.3-.63.83-.95 1.54-.94 1.04.02 1.52.65 1.21 1.66-.32 1.04-.84 1.98-1.46 2.87-.33.49-.81.73-1.36.76zm-28.58-23.11c-.1-4.12 1.08-7.85 3.24-11.36 2.06-3.34 4.46-6.43 6.64-9.68 2.03-3.03 3.89-6.14 4.81-9.72.2-.77.66-1.02 1.44-.86.93.18 1.58.93 1.66 1.94.07.89-.15 1.75-.4 2.59-.73 2.47-1.87 4.76-3.38 6.84-1.45 2.01-2.93 3.99-4.43 5.96-1.41 1.85-2.63 3.81-3.76 5.84-1.63 2.92-2.42 6.06-2.47 9.4-.01.6.02 1.2-.05 1.8-.12.98-.87 1.43-1.82 1.15-.81-.24-1.36-.93-1.45-1.87-.03-.36-.02-.72-.02-1.08-.01-.31-.01-.63-.01-.95zm-7.96-1.42c.6-9.06 3.02-17.45 9.04-24.51 1.24-1.46 2.45-2.95 3.53-4.54.59-.86 1.38-1.03 2.18-.58.74.41 1.01 1.12.74 1.93-.17.5-.44.94-.75 1.36-.67.89-1.32 1.81-2.05 2.65-4.25 4.82-6.94 10.38-8.1 16.72-.56 3.07-1.08 6.14-1.13 9.26 0 .12-.01.24-.02.36-.09 1.1-.36 1.5-1.07 1.64-.82.16-1.67-.3-2.07-1.1-.2-.4-.27-.83-.28-1.28-.02-.63-.02-1.27-.02-1.91zm23.63-57.01c-.05.92-.08 1.84-.16 2.75-.06.67-.31 1.25-1.04 1.46-.73.21-1.34-.03-1.86-.54-.4-.4-.65-.91-.86-1.43-.07-.18-.14-.45-.06-.58.9-1.4.3-2.89.25-4.32-.05-1.55-.42-3.08-.86-4.58-.68-2.33-1.99-4.25-3.81-5.85-.18-.16-.37-.31-.57-.44-1.6-1.06-2.48-1.05-4.04.09-1.5 1.1-2.58 2.5-3.02 4.33-.19.79-.23 1.54.24 2.3.49.81.08 1.4-.87 1.39-.9-.01-1.5-.53-1.88-1.28-.51-.99-.65-2.07-.39-3.15.81-3.31 3.03-5.36 6.07-6.6.93-.38 1.97-.21 2.96.04 3.3.85 5.54 3.08 7.36 5.79 1.32 1.97 1.82 4.24 2.2 6.54.23 1.36.36 2.71.34 4.08zm-92.92 6.11c-.02.73-.4 1.25-.8 1.75-1.49 1.86-3.3 3.36-5.32 4.62a34.277 34.277 0 0 1-7.26 3.39c-1.18.39-2.35.78-3.54 1.14-4.4 1.32-8.12 3.7-11.18 7.11-.58.64-1.15.79-1.8.48-.76-.37-1-1.06-.56-1.78.25-.4.56-.78.9-1.12 3.03-3.12 6.53-5.5 10.71-6.82 2.63-.83 5.26-1.65 7.75-2.86 3.18-1.55 6-3.51 7.96-6.54.15-.23.35-.45.57-.61.54-.41 1.13-.34 1.69-.04.52.29.87.7.88 1.28zm-1.56-9.11c-.11 1.25-.3 2.34-1.07 3.25-.72.86-1.51 1.65-2.37 2.37-3.02 2.5-6.4 4.35-10.13 5.56-1.75.57-3.5 1.14-5.19 1.86-2.48 1.07-4.8 2.39-6.75 4.28-.43.41-.88.68-1.5.57-1.03-.19-1.43-1.11-.83-1.96.66-.92 1.52-1.64 2.43-2.3 2.39-1.73 5.04-2.92 7.8-3.91 1.28-.46 2.56-.9 3.84-1.37 2.76-1.02 5.27-2.49 7.54-4.36 1.5-1.24 2.83-2.6 3.15-4.65.09-.59.48-.89 1.07-.96.72-.08 1.5.31 1.81.94.12.25.16.54.2.68zm-26.01 56.17c.7-6.24 3.3-11.44 8.37-15.29 1.34-1.02 2.77-1.9 4.26-2.68 1.28-.67 2.63-1.16 4.11-1.14.66.01 1.27.16 1.7.72.49.65.31 1.23-.47 1.46-7.86 2.35-12.62 7.61-14.51 15.52-.19.81-.24 1.66-.35 2.49-.16 1.23-1.09 1.67-2.13 1-.66-.4-.99-1.14-.98-2.08zm66.98-38.33c.19-.92.71-1.74 1.57-2.34.76-.53 1.62-.87 2.5-1.12 2.77-.78 5.56-1.44 8.43-1.73.73-.07 1.41-.27 2.08-.54.52-.21 1.02-.17 1.49.11.89.52.95 1.53.13 2.16-.65.51-1.42.72-2.21.85-1.81.29-3.64.52-5.42.98-1.08.28-2.17.52-3.25.81-1 .27-1.79.81-2.27 1.79-.43.86-.91 1.05-1.62.86a1.93 1.93 0 0 1-1.43-1.83zm31.29 15.78c.2-2.1.97-4.14 2.11-6.05.69-1.17 1.46-2.29 2.25-3.39.84-1.18 1.6-2.38 2.11-3.74.3-.79.75-1.02 1.47-.86.72.16 1.12.7 1.04 1.5-.12 1.23-.69 2.28-1.37 3.28-.86 1.25-1.71 2.5-2.49 3.81-1.2 2.02-1.97 4.19-2.32 6.5-.09.59-.14 1.12-.87 1.22a1.69 1.69 0 0 1-1.64-.76c-.28-.42-.28-.9-.29-1.51zm-19.84.77c.13-.69.23-1.52.44-2.33.63-2.48 1.58-4.85 2.81-7.09.52-.95 1.13-1.84 2.08-2.43.84-.52 1.74-.43 2.29.2.43.49.51 1.04.04 1.49-2.79 2.7-3.59 6.3-4.52 9.85-.1.39-.17.78-.28 1.16-.28.96-.63 1.24-1.38 1.15a1.68 1.68 0 0 1-1.46-1.5c-.02-.13-.02-.25-.02-.5z"/><path d="M69.87 98.52c.79.02 1.52.16 1.94.93.29.54.19.94-.37 1.17-3.25 1.35-5.11 3.94-6.37 7.08-.06.15-.11.3-.18.44-.37.81-.77 1.08-1.44.99-.77-.11-1.42-.74-1.5-1.49-.07-.61.11-1.19.33-1.75 1.11-2.9 3.07-5.11 5.68-6.76.72-.46 1.26-.6 1.91-.61zm21 43.58c-2.6.01-4.72-.26-6.54-1.63-.42-.31-.83-.63-1.08-1.1-.31-.58-.11-1.03.52-1.18.58-.14 1.11.03 1.59.35 1.75 1.18 3.68 1.4 5.73 1.2 1.29-.13 2.37-.66 3.42-1.33.45-.29.91-.51 1.46-.42.59.1 1.06.38 1.25.98.17.57-.22.9-.6 1.2-1.82 1.37-3.87 2.03-5.75 1.93zm82.09-3.7a3.039 3.039 0 0 1-3.08 3c-1.77-.01-3.29-1.63-3.25-3.46.04-1.67 1.44-3.05 3.09-3.03 1.75.01 3.27 1.66 3.24 3.49zm-41.61 19.12c-.6 0-1.15-.06-1.6-.46-.34-.3-.63-.65-.54-1.14.08-.46.47-.61.88-.7 1.88-.43 3.61-1.26 5.39-1.98 1.11-.45 2.2-.95 3.32-1.38.81-.31 1.59-.06 2.01.57.36.53.34 1.05-.21 1.34-2.81 1.51-5.65 2.97-8.8 3.69-.16.04-.32.04-.45.06zm31.47-109.79c1.29.06 2.46.84 3.25 2.13.77 1.26 1.25 2.67 1.64 4.1.14.52.25 1.13-.41 1.47-.5.25-1.18.14-1.66-.31-.46-.42-.68-.98-.9-1.53-.37-.93-.68-1.88-1.08-2.79-.47-1.06-1-1.12-1.79-.28-.16.17-.27.39-.42.58-.5.61-1.29.7-1.91.25-.58-.43-.65-.94-.23-1.68.63-1.14 1.97-1.94 3.51-1.94zm1.62 86.94c-.02 1.68-1.41 3.04-3.08 3-1.68-.04-3-1.44-2.95-3.13a3.027 3.027 0 0 1 3.02-2.94c1.67 0 3.02 1.38 3.01 3.07zm-12.64 7.23c-1.7.03-3.06-1.3-3.06-3a3.035 3.035 0 0 1 3.03-3.06c1.61 0 2.97 1.34 3.02 2.96.05 1.67-1.3 3.08-2.99 3.1zm20.19 7.63a3.005 3.005 0 0 1-3-3.07 3.027 3.027 0 0 1 3.11-2.97c1.64.04 2.93 1.37 2.93 3.02-.01 1.71-1.34 3.04-3.04 3.02zm.8 7.36c-.01 1.68-1.4 3.01-3.09 2.99-1.66-.03-2.95-1.32-2.96-2.98-.01-1.69 1.34-3.07 3.02-3.07 1.67 0 3.05 1.4 3.03 3.06zM128.61 78c.01-.57.18-1.1.4-1.61.65-1.47 1.74-2.56 3.08-3.4.96-.6 2.04-.65 3.12-.45.61.11 1.11.43 1.39 1.02.29.62.05 1.1-.62 1.25-.08.02-.16.02-.24.02-2.12-.12-3.09 1.34-3.97 2.9-.19.34-.28.74-.44 1.11-.34.77-.7 1.02-1.33.94-.74-.1-1.31-.68-1.39-1.42-.01-.12 0-.24 0-.36zm-1.35 65.92c-.52-.03-.98-.13-1.36-.44-.64-.53-.9-1.41.23-1.81 1.35-.47 2.67-1.02 4-1.56.73-.3 1.46-.58 2.08-1.14.54-.49 1.32-.35 1.81.21.48.55.45 1.06-.12 1.69-.13.15-.27.3-.44.4-1.83 1.05-3.69 2.02-5.75 2.57-.16.03-.32.05-.45.08zm.67 5.37c-.51.01-.96-.14-1.32-.49-.65-.62-.58-1.36.25-1.71 1.77-.74 3.55-1.43 5.35-2.09.61-.22 1.19-.04 1.63.45.44.49.48 1-.01 1.35-1.79 1.26-3.75 2.11-5.9 2.49zm8.4 14.94c-.87 0-1.49-.2-1.9-.84-.38-.6-.27-1.13.38-1.35 1.54-.53 3.11-1.01 4.67-1.48.43-.13.87-.01 1.26.24.92.59.92 1.51-.01 2.08-1.39.86-2.98 1.08-4.4 1.35zm2.95 7.09c-.58-.03-1.28-.17-1.84-.69-.31-.29-.5-.64-.38-1.07.11-.4.47-.54.83-.58 1.2-.1 2.34-.46 3.5-.75.71-.18 1.43-.2 2.01.38.6.6.52 1.22-.21 1.65-.72.43-3 1.07-3.91 1.06zm-50.07-35.51c-.73.01-1.43-.09-2.02-.59-.35-.3-.61-.66-.51-1.14.09-.45.46-.63.87-.71 1.14-.21 2.28-.41 3.44-.39.57.01 1.1.19 1.52.6.69.69.56 1.44-.36 1.75-.95.31-1.94.45-2.94.48zm.14-5.52c-.69 0-1.29.08-1.83-.25-.46-.28-.89-.63-.74-1.22.14-.53.65-.66 1.14-.66.55-.01 1.11 0 1.66.05.44.04.85.2 1.18.51.33.31.59.68.42 1.15-.18.49-.64.53-1.09.51-.29-.03-.56-.07-.74-.09zm56.26-98.94c.1-1.96-.32-3.8-1.32-5.5-.56-.96-1.29-1.71-2.32-2.17-.58-.26-1.15-.55-1.71-.85-1.48-.79-2.99-.8-4.49-.11-.72.33-1.37.4-2.01-.11-.68-.54-.66-1.14.03-1.66.45-.34.96-.58 1.5-.72 1.9-.49 3.79-.5 5.62.32.73.33 1.44.7 2.18.98 3.64 1.36 6.75 6.24 6.01 11.1-.17 1.12-.82 1.72-1.83 1.61-.96-.1-1.84-.81-1.67-1.93.05-.32.01-.65.01-.96zm-36.28-16.98c2.01-.07 3.88.26 5.68 1.01.59.25 1.17.54 1.55 1.08.23.33.43.7.23 1.11-.22.45-.66.58-1.11.57-.31-.01-.65-.07-.93-.21-3.22-1.59-6.52-1.17-9.83-.4-1.12.26-2.23.62-3.3 1.08-.44.19-.89.35-1.39.34-.6-.01-1.1-.22-1.46-.69-.44-.56-.37-1.05.24-1.4.62-.35 1.27-.67 1.95-.92 2.73-.99 5.52-1.63 8.37-1.57zm-1.05 32.24c-.03 1.68-1.44 3.04-3.1 2.99a3.037 3.037 0 0 1-2.94-3.15 3.036 3.036 0 0 1 3.04-2.93c1.68.02 3.02 1.4 3 3.09zm-9.17-10.2c1.7.02 3 1.38 2.96 3.09a3.005 3.005 0 0 1-3 2.95 3.04 3.04 0 0 1-3.04-3.05c.01-1.68 1.38-3.01 3.08-2.99zm11.79-12.62c-1.03-.18-2.21-.33-3.42-.32-1.52.02-3.03.11-4.52.45-.47.11-.95.19-1.42.07-.5-.13-.88-.41-.96-.95-.08-.57.37-.76.78-.92.86-.32 1.77-.51 2.68-.64 2.06-.3 4.12-.51 6.2-.14.64.11 1.26.23 1.76.67.34.3.63.66.48 1.14-.16.48-.6.61-1.06.63-.12.01-.24.01-.52.01zm-40.15 4.22c-.5-.05-.99-.29-1.25-.85-.23-.49.09-.83.37-1.17 1.33-1.56 3.04-2.56 4.9-3.33.59-.24 1.17-.22 1.69.2.54.45.54.96-.03 1.37-.32.23-.68.41-1.02.62-1.16.71-2.21 1.56-3.22 2.48-.39.36-.78.69-1.44.68z"/><path d="M136.28 26.17c1.1.06 2.18.51 3.11 1.34.72.64 1.28 1.42 1.75 2.25.18.31.32.66.08 1.01-.26.38-.64.43-1.06.4-.51-.04-.9-.3-1.24-.66-.39-.4-.76-.82-1.14-1.22-.47-.51-.98-.94-1.72-.97-.08 0-.16-.02-.24-.04-.71-.22-1.23-.83-1.15-1.35.09-.48.63-.76 1.61-.76zm-30.84 3.06c-.86.08-1.4 0-1.83-.44-.59-.59-.47-1.19.33-1.45.84-.28 1.72-.38 2.59-.4.83-.02 1.67.11 2.49.24.51.08.98.33 1.33.75.27.32.45.69.22 1.09-.19.34-.55.44-.93.43-.08 0-.16 0-.24-.02-1.39-.38-2.81-.53-3.96-.2zm-29.37-2.56c.51-.04.82.03 1.1.2.32.19.59.44.6.84.01.44-.34.6-.68.74-.48.19-.97.36-1.46.52-.47.15-.95.16-1.39-.1-.36-.21-.64-.5-.63-.95.01-.42.34-.61.68-.76.63-.27 1.29-.43 1.78-.49zm7.72 146.14c-2.18-.07-4-.31-5.79-.76a7.937 7.937 0 0 1-3.09-1.53c-.25-.2-.49-.42-.66-.69-.37-.59-.12-1.09.56-1.24.5-.11.94.08 1.37.31 3.04 1.57 6.25 1.9 9.54 1.07 4.88-1.23 8.74-4.02 11.79-7.98 1.17-1.52 2.23-3.12 3.33-4.69.6-.85 1.31-1.02 2.05-.56.59.37.84.94.51 1.54-3.63 6.64-8.39 11.98-16.04 14.02-1.27.33-2.57.58-3.57.51z"/><path d="M90.62 174.71c-.47-.01-.79-.02-1.08-.18-.44-.24-.81-.55-.78-1.1.03-.49.46-.58.83-.74 1.72-.74 3.44-1.48 5.15-2.26 2.51-1.13 4.62-2.82 6.46-4.85.43-.48.75-1.03 1.12-1.55.51-.71 1.2-.86 1.87-.46.69.41.84 1.02.44 1.85-.31.65-.73 1.23-1.22 1.76-1.78 1.92-3.77 3.56-6.1 4.76-1.67.86-3.3 1.78-5.08 2.4-.58.2-1.15.39-1.61.37zm11.81 21.18c-1.71-.03-3.05-1.39-3.03-3.07.02-1.76 1.57-3.32 3.29-3.32a3.08 3.08 0 0 1 3.08 3.16c-.03 1.79-1.54 3.26-3.34 3.23zm19.99-4c-.03 1.72-1.46 3.05-3.21 2.99-1.67-.06-3.02-1.46-2.99-3.11.04-1.71 1.47-3.04 3.22-2.99 1.7.06 3.01 1.43 2.98 3.11zm1.64-8.63c1.71.02 3.01 1.37 2.98 3.08a3.02 3.02 0 0 1-3.11 2.97c-1.63-.05-2.93-1.41-2.93-3.04-.01-1.68 1.36-3.03 3.06-3.01zm-10.48 12.03c-.04 1.69-1.43 2.99-3.13 2.93a3.006 3.006 0 0 1-2.9-3.05c.01-1.68 1.39-3.01 3.08-2.99 1.69.03 2.99 1.4 2.95 3.11zM103.21 173c-.58-.04-1.05-.31-1.32-.86-.27-.56.1-.9.46-1.23.45-.4.89-.8 1.37-1.16.59-.45 1.24-.46 1.77-.09.6.43.69.9.24 1.5-.35.48-.69.98-1.19 1.33-.38.29-.8.51-1.33.51z"/></svg>