<?xml version="1.0" encoding="utf-8"?>
<!-- Generator: Adobe Illustrator 23.0.1, SVG Export Plug-In . SVG Version: 6.00 Build 0)  -->
<svg version="1.1" id="Calque_1" xmlns="http://www.w3.org/2000/svg" xmlns:xlink="http://www.w3.org/1999/xlink" x="0px" y="0px"
	 viewBox="0 0 36 37.4" enable-background="new 0 0 36 37.4" xml:space="preserve">
<g>
	<path fill="#BA874D" d="M34.16,19.85c0.2,0.31,0.2,0.57,0.02,0.83c-0.2,0.29-0.48,0.46-0.83,0.47c-0.27,0.01-0.46-0.13-0.57-0.38
		c-0.09-0.21-0.11-0.43-0.06-0.66c0.16-0.73,0.89-1.33,1.65-1.32c0.42,0,0.75,0.18,0.99,0.52c0.5,0.7,0.56,1.47,0.35,2.27
		c-0.17,0.67-0.54,1.24-1.06,1.68c-0.55,0.48-1.22,0.66-1.96,0.58c-0.22-0.03-0.44-0.07-0.67-0.11c0,0.08,0.07,0.11,0.11,0.15
		c0.95,1.08,1.41,2.31,1.23,3.76c-0.06,0.54-0.17,1.07-0.4,1.57c-0.26,0.56-0.61,1.05-1.09,1.44c-0.18,0.15-0.35,0.3-0.53,0.44
		c-0.85,0.69-1.82,0.9-2.88,0.71c-0.16-0.03-0.28-0.01-0.41,0.1c-0.83,0.68-1.8,1.01-2.85,1.14c-0.19,0.02-0.37,0.04-0.56,0.04
		c-0.13,0-0.17,0.06-0.19,0.17c-0.05,0.33-0.14,0.65-0.25,0.96c-0.63,1.67-1.85,2.64-3.56,3.02c-1.05,0.23-2.08,0.08-3.07-0.33
		c-0.63-0.26-1.11-0.72-1.46-1.31c-0.04-0.07-0.07-0.14-0.14-0.21c-0.08,0.06-0.12,0.14-0.17,0.21c-0.52,0.66-1.2,1-2.04,0.93
		c-0.71-0.06-1.34-0.34-1.85-0.85c-0.83-0.83-1.13-1.84-0.93-2.99c0.08-0.46,0.21-0.91,0.35-1.36c0.17-0.55,0.34-1.1,0.43-1.68
		c0.06-0.37,0.07-0.75-0.02-1.12c-0.1-0.38-0.31-0.67-0.62-0.92c-0.06,0.08-0.06,0.16-0.07,0.24c-0.13,0.64-0.39,1.22-0.87,1.68
		c-0.42,0.4-0.91,0.62-1.49,0.59c-0.49-0.02-0.91-0.21-1.24-0.58c-0.41-0.48-0.45-1.07-0.1-1.6c0.22-0.33,0.51-0.57,0.85-0.76
		c0.38-0.21,0.78-0.37,1.2-0.49c0.13-0.04,0.18-0.1,0.2-0.23c0.06-0.67,0.04-1.34-0.1-2c-0.14-0.65-0.52-1.11-1.09-1.43
		C8.09,22.86,7.78,22.84,7.47,23c-0.51,0.25-0.9,0.6-1.02,1.18c-0.12,0.53,0.25,1.14,0.77,1.29c0.06,0.02,0.11,0.03,0.17,0.05
		c0.12,0.04,0.23,0.09,0.33,0.15c0.18,0.12,0.33,0.27,0.3,0.51c-0.03,0.25-0.21,0.37-0.43,0.44c-0.37,0.11-0.73,0.06-1.08-0.08
		c-0.75-0.33-1.19-0.92-1.34-1.72c-0.1-0.54,0.08-1.04,0.42-1.46c0.54-0.66,1.22-1.12,2.1-1.2c0.02,0,0.04,0,0.05-0.06
		c-0.54-0.11-1.02-0.34-1.49-0.67C6.16,21.8,6,22.11,5.77,22.38c-0.44,0.52-1.02,0.79-1.67,0.94c-1.6,0.37-3.27-0.53-3.85-2.07
		c-0.34-0.9-0.19-1.71,0.44-2.44c0.32-0.38,0.72-0.67,1.12-0.95c0.59-0.4,1.22-0.72,1.86-1.02c0.42-0.2,0.83-0.4,1.25-0.6
		c0.17-0.09,0.34-0.19,0.51-0.28c0.45-0.27,0.77-0.64,1-1.11c0.6-1.23,0.75-2.52,0.42-3.85c-0.08-0.34-0.24-0.65-0.49-0.9
		C6.19,9.94,6.04,9.78,5.86,9.64c-0.39-0.3-0.81-0.39-1.29-0.27C4.25,9.45,3.96,9.6,3.71,9.81c-0.45,0.39-0.8,0.83-0.92,1.43
		c-0.09,0.48,0.03,0.9,0.39,1.24c0.28,0.26,0.58,0.26,0.87,0.01c0.03-0.03,0.06-0.06,0.1-0.09c0.46-0.4,1.15-0.27,1.44,0.27
		c0.11,0.2,0.12,0.41,0.04,0.63c-0.1,0.27-0.28,0.47-0.54,0.59c-0.68,0.33-1.38,0.34-2.04-0.02c-0.91-0.48-1.36-1.26-1.31-2.3
		c0.01-0.26,0.08-0.52,0.19-0.75C2.39,9.89,3.09,9.2,4.06,8.8c0.58-0.23,1.17-0.23,1.76-0.01c0.05,0.02,0.11,0.04,0.16,0.05
		c0,0,0.01-0.01,0.03-0.01C5.99,8.69,5.95,8.55,5.94,8.41C5.82,7.3,6.14,6.31,6.78,5.42c0.09-0.13,0.21-0.24,0.32-0.35
		c0.48-0.45,1.04-0.59,1.66-0.42c0.99,0.27,1.59,0.94,1.82,1.92c0.17,0.69-0.32,1.6-0.96,1.9C9.19,8.68,8.76,8.65,8.35,8.4
		C8,8.2,7.86,7.84,7.93,7.45C7.97,7.27,8.09,7.16,8.3,7.14C8.47,7.12,8.57,7.16,8.82,7.3c0.49-0.5,0.4-1.23,0.09-1.63
		c-0.23-0.3-0.57-0.36-0.91-0.16C7.85,5.6,7.7,5.72,7.59,5.87C6.98,6.71,6.75,7.63,7.03,8.63c0.21,0.76,0.69,1.32,1.43,1.64
		c0.5,0.22,0.97,0.17,1.4-0.17c0.65-0.5,1.02-1.15,1.06-1.97c0.03-0.54-0.05-1.08-0.11-1.62c-0.04-0.39-0.08-0.79-0.07-1.19
		C10.77,4.6,11.06,4,11.62,3.54c0.67-0.55,1.45-0.89,2.3-1.03c0.44-0.08,0.89-0.09,1.33,0.01c0.17,0.04,0.28-0.01,0.4-0.11
		c0.55-0.47,1.17-0.79,1.87-0.95c1.47-0.33,2.87-0.11,4.18,0.62c0.31,0.17,0.58,0.4,0.82,0.67c0.07,0.08,0.13,0.11,0.23,0.05
		c0.56-0.31,1.16-0.46,1.79-0.53c0.22-0.02,0.45,0,0.67,0.04c0.41,0.07,0.8,0.2,1.17,0.39c0.34,0.17,0.63,0.41,0.87,0.71
		c0.23,0.29,0.42,0.6,0.58,0.93c0.21,0.44,0.26,0.91,0.25,1.39c-0.01,0.33-0.06,0.66-0.15,0.98c-0.01,0.03-0.04,0.06-0.01,0.1
		c0.04,0,0.07-0.02,0.1-0.04c0.64-0.45,1.34-0.55,2.1-0.38c0.65,0.15,1.19,0.47,1.66,0.93c1.14,1.11,1.76,2.45,1.77,4.05
		c0,0.44-0.06,0.88-0.21,1.3c-0.04,0.12-0.02,0.21,0.05,0.31c0.45,0.62,0.72,1.31,0.74,2.09c0.01,0.38-0.04,0.75-0.16,1.11
		c-0.17,0.51-0.4,0.99-0.7,1.43c-0.31,0.46-0.63,0.91-0.95,1.37c-0.18,0.25-0.35,0.51-0.5,0.78c-0.15,0.28-0.26,0.58-0.31,0.9
		c-0.02,0.17-0.01,0.33,0.04,0.49c0.22,0.74,0.7,1.25,1.4,1.55c0.2,0.09,0.41,0.13,0.63,0.12c0.35-0.02,0.65-0.16,0.87-0.45
		c0.41-0.54,0.61-1.42,0.12-2.17C34.5,20.03,34.39,19.92,34.16,19.85z M24.64,24.4c-0.01,0-0.02-0.01-0.02-0.01
		c-0.07,0.02-0.12,0.07-0.19,0.11c-0.42,0.26-0.87,0.46-1.38,0.48c-0.95,0.02-1.66-0.43-2.09-1.26c-0.47-0.9-0.32-1.78,0.23-2.6
		c0.34-0.5,0.83-0.68,1.41-0.58c0.6,0.1,0.97,0.48,1.13,1.06c0.08,0.27-0.02,0.48-0.26,0.62c-0.42,0.24-1.08,0.07-1.23-0.42
		c-0.03-0.08-0.05-0.18-0.13-0.24c-0.21,0.18-0.33,0.39-0.4,0.73c-0.16,0.7,0.19,1.41,0.81,1.69c0.21,0.1,0.4,0.08,0.59-0.06
		c0.19-0.14,0.35-0.3,0.48-0.5c0.34-0.5,0.62-1.04,0.83-1.61c0.36-0.96,0.48-1.97,0.6-2.98c0.07-0.59,0.08-1.18,0.12-1.77
		c0.01-0.16,0-0.32,0-0.53c-0.16,0.26-0.27,0.51-0.37,0.75c-0.2,0.46-0.39,0.91-0.61,1.36c-0.13,0.27-0.29,0.53-0.51,0.75
		c-0.28,0.29-0.62,0.38-1.01,0.32c-0.19-0.03-0.36-0.1-0.52-0.2c-0.44-0.27-0.67-0.68-0.81-1.16c-0.04-0.14-0.07-0.28-0.1-0.41
		c-0.05,0.01-0.07,0.04-0.09,0.07c-0.27,0.44-0.55,0.88-0.88,1.28c-0.06,0.08-0.06,0.16-0.05,0.24c0.04,0.29,0.04,0.58,0.05,0.86
		c0.03,0.81-0.06,1.6-0.28,2.38c-0.09,0.33-0.22,0.66-0.43,0.94c-0.33,0.44-0.77,0.59-1.3,0.48c-0.95-0.21-1.65-0.96-1.82-1.95
		c-0.1-0.57-0.11-1.13-0.06-1.7c0.02-0.21,0-0.38-0.17-0.56c-0.35-0.38-0.59-0.84-0.54-1.37c0.07-0.8,0.41-1.47,1.06-1.96
		c0.45-0.34,0.96-0.42,1.5-0.28c0.57,0.15,1,0.51,1.3,1c0.2,0.33,0.34,0.68,0.46,1.05c0.02,0.06,0.04,0.12,0.06,0.17
		c0.06-0.02,0.08-0.06,0.1-0.09c0.34-0.48,0.64-0.98,0.93-1.49c0.05-0.09,0.06-0.18,0.06-0.27c0-0.51,0.01-1.01,0.06-1.51
		c0.03-0.29,0.06-0.59,0.17-0.87c0.13-0.32,0.39-0.46,0.72-0.42c0.39,0.05,0.68,0.31,0.79,0.7c0.07,0.25,0.06,0.5,0.06,0.75
		c0,0.45-0.01,0.89-0.02,1.34c0,0.37,0.02,0.74,0.09,1.1c0.05,0.27,0.11,0.54,0.21,0.81c0.11-0.05,0.16-0.13,0.21-0.2
		c0.26-0.32,0.46-0.68,0.64-1.05c0.4-0.82,0.79-1.65,1.22-2.46c0.03-0.05,0.05-0.1,0.07-0.16c0.05-0.2,0.22-0.31,0.47-0.29
		c0.27,0.02,0.48,0.16,0.64,0.37c0.15,0.19,0.24,0.41,0.3,0.64c0.12,0.43,0.15,0.87,0.16,1.31c0.04,1.24-0.04,2.47-0.26,3.69
		c-0.15,0.82-0.37,1.62-0.77,2.36c-0.01,0.03-0.05,0.06-0.02,0.08c1.55-0.64,3.11-0.76,4.72-0.12c-0.05-0.06-0.06-0.09-0.08-0.11
		c-0.62-0.84-0.74-1.75-0.33-2.72c0.14-0.34,0.33-0.66,0.53-0.96c0.3-0.45,0.6-0.9,0.9-1.35c0.19-0.28,0.37-0.57,0.52-0.87
		c0.36-0.72,0.55-1.49,0.49-2.3c-0.01-0.14-0.03-0.28-0.07-0.42c-0.09,0.02-0.12,0.08-0.17,0.12c-0.29,0.25-0.61,0.44-0.97,0.55
		c-0.72,0.2-1.38,0.1-1.95-0.4c-0.59-0.52-0.66-1.25-0.2-1.88c0.32-0.44,0.77-0.69,1.3-0.78c0.32-0.05,0.63-0.04,0.95,0.01
		c0.08,0.01,0.12,0,0.13-0.09c0.01-0.06,0.01-0.11,0.02-0.17c0.02-0.34,0.01-0.68-0.04-1.02c-0.08-0.64-0.21-1.27-0.47-1.86
		c-0.2-0.46-0.46-0.87-0.83-1.2c-0.7-0.63-1.53-0.62-2.17,0.01c-0.39,0.38-0.63,0.86-0.76,1.39c-0.1,0.42,0,0.8,0.36,1.09
		C27.93,10,27.94,10,28.1,9.9c0.39-0.25,0.9-0.2,1.24,0.12c0.33,0.31,0.32,0.74-0.06,1c-0.66,0.45-1.58,0.47-2.2-0.24
		c-0.12-0.14-0.22-0.3-0.33-0.46c-0.02,0.02-0.04,0.03-0.05,0.04c-0.29,0.48-0.49,1-0.53,1.56c-0.03,0.39,0.05,0.76,0.26,1.09
		c0.19,0.31,0.59,0.26,0.76,0.06c0.13-0.15,0.19-0.32,0.19-0.52c0-0.09-0.02-0.14-0.12-0.13c-0.14,0.01-0.26-0.03-0.36-0.12
		c-0.18-0.16-0.15-0.38,0.06-0.5c0.13-0.08,0.27-0.09,0.42-0.06c0.36,0.06,0.65,0.34,0.74,0.7c0.06,0.26,0.02,0.5-0.05,0.75
		c-0.17,0.59-0.84,1.22-1.74,0.97c-1.05-0.29-1.64-1.47-1.27-2.52c0.09-0.24,0.2-0.46,0.32-0.69c0.03-0.06,0.08-0.12,0.09-0.2
		c-0.08,0.02-0.12,0.06-0.17,0.1c-0.21,0.15-0.44,0.28-0.67,0.4c-0.57,0.3-1.18,0.47-1.83,0.44c-0.24-0.01-0.49,0.01-0.74,0
		c-0.57-0.01-1.1,0.1-1.61,0.37c-0.58,0.3-0.83,0.79-0.9,1.41c-0.02,0.14,0.06,0.23,0.19,0.28c0.11,0.04,0.23,0.04,0.34,0.01
		c0.1-0.03,0.15-0.11,0.19-0.19c0.04-0.08-0.01-0.13-0.05-0.19c-0.01-0.02-0.02-0.04-0.03-0.06c-0.06-0.13-0.06-0.26,0.01-0.32
		c0.09-0.09,0.2-0.07,0.3-0.03c0.21,0.08,0.34,0.23,0.41,0.44c0.19,0.56-0.21,1.16-0.81,1.22c-0.71,0.07-1.42-0.55-1.49-1.28
		c-0.05-0.53,0.15-0.99,0.47-1.4c0.04-0.05,0.1-0.09,0.12-0.17c-0.61,0.1-1.16,0.47-1.47,0.96c-0.16,0.26-0.29,0.55-0.38,0.85
		c-0.09,0.3-0.1,0.61-0.02,0.92c0.02,0.09,0.03,0.2,0.14,0.24c0.06-0.06,0.06-0.13,0.09-0.19c0.08-0.2,0.25-0.28,0.45-0.2
		c0.22,0.08,0.36,0.29,0.34,0.52c-0.01,0.1-0.03,0.2-0.05,0.3c-0.11,0.43-0.34,0.62-0.79,0.62c-0.09,0-0.17,0-0.26-0.02
		c-0.69-0.15-1.14-0.57-1.36-1.23c-0.2-0.59-0.06-1.14,0.24-1.66c0.4-0.68,0.96-1.18,1.68-1.51c0.21-0.1,0.42-0.18,0.64-0.27
		c-0.03-0.04-0.07-0.05-0.11-0.07c-0.35-0.15-0.69-0.32-1.01-0.53c-0.21-0.13-0.42-0.25-0.65-0.35c-0.15-0.07-0.3-0.11-0.45-0.14
		c-0.18-0.03-0.35-0.01-0.51,0.07c-0.12,0.05-0.18,0.17-0.17,0.3c0.01,0.12,0.09,0.16,0.2,0.19c0.23,0.06,0.43,0.18,0.54,0.4
		c0.11,0.22,0.04,0.43-0.18,0.55c-0.1,0.05-0.2,0.07-0.31,0.08c-0.58,0.03-1.21-0.42-1.36-0.98c-0.18-0.66,0.24-1.24,0.81-1.32
		c0.11-0.02,0.21-0.03,0.32-0.04c0.42-0.02,0.8,0.11,1.17,0.28c0.36,0.16,0.7,0.38,1.03,0.59c0.3,0.19,0.61,0.35,0.96,0.45
		c0.04,0.01,0.09,0.03,0.14,0.01c-0.02-0.02-0.02-0.04-0.03-0.05c-0.63-0.48-1.17-1.04-1.71-1.62c-0.43-0.47-0.9-0.9-1.38-1.31
		c-0.25-0.21-0.52-0.39-0.81-0.53c-0.37-0.17-0.76-0.28-1.17-0.25c-0.35,0.03-0.65,0.18-0.89,0.44c-0.12,0.13-0.12,0.21,0,0.34
		c0.18,0.2,0.42,0.26,0.68,0.26c0.06,0,0.11-0.03,0.16-0.06C13.8,7.76,13.84,7.7,13.8,7.6c-0.04-0.09-0.04-0.18-0.03-0.28
		c0.02-0.12,0.06-0.23,0.18-0.27c0.12-0.04,0.21,0.02,0.29,0.1c0.21,0.21,0.3,0.47,0.26,0.77c-0.1,0.71-0.69,1.14-1.4,1.03
		c-0.09-0.01-0.17-0.04-0.25-0.06c-0.17-0.05-0.17-0.05-0.2,0.12c-0.09,0.47-0.26,0.9-0.56,1.28c-0.81,1.03-2.18,1.56-3.55,1.13
		c-0.06-0.02-0.11-0.06-0.18-0.02c-0.01,0.07,0.03,0.13,0.05,0.19c0.38,1,0.38,2,0.07,3.02c-0.32,1.09-0.96,1.91-2.04,2.35
		c-0.27,0.11-0.53,0.23-0.8,0.34c-0.59,0.24-1.18,0.46-1.76,0.74c-0.56,0.27-1.08,0.59-1.51,1.03c-0.44,0.44-0.63,0.96-0.52,1.58
		c0.11,0.6,0.43,1.04,0.97,1.33c0.39,0.21,0.78,0.14,1.18,0.02c0.9-0.27,1.31-1.37,0.79-2.16c-0.11-0.17-0.26-0.28-0.45-0.36
		c-0.11-0.04-0.19-0.02-0.27,0.07c-0.23,0.24-0.27,0.49-0.1,0.78c0.19,0.31,0.05,0.58-0.26,0.69c-0.57,0.2-1.16-0.25-1.12-0.85
		c0.04-0.64,0.62-1.33,1.25-1.48c0.29-0.07,0.57-0.02,0.85,0.07c0.24,0.08,0.46,0.2,0.67,0.34c0.07-0.08,0.08-0.17,0.12-0.25
		c0.22-0.46,0.53-0.82,1.03-1c0.69-0.25,1.55-0.02,1.98,0.54c0.17,0.22,0.26,0.47,0.23,0.75c-0.02,0.22-0.13,0.36-0.27,0.38
		C8.32,19.5,8.2,19.4,8.11,19.19c-0.06-0.16-0.12-0.31-0.23-0.44c-0.22-0.27-0.49-0.32-0.79-0.14c-0.37,0.23-0.52,0.58-0.47,1
		c0.09,0.67,0.41,1.19,1.08,1.44c0.19,0.07,0.38,0.14,0.57,0.21c0.51,0.21,0.93,0.53,1.23,0.99C9.75,22.63,10,23,10.2,23.41
		c0.07,0.15,0.16,0.29,0.27,0.42c0.03-0.07,0-0.12-0.02-0.18c-0.14-0.6-0.19-1.2-0.05-1.8c0.1-0.42,0.23-0.82,0.49-1.17
		c0.15-0.2,0.33-0.34,0.57-0.41c0.68-0.19,1.45,0.31,1.57,1c0.05,0.32-0.1,0.55-0.41,0.64c-0.38,0.11-0.81-0.04-1.04-0.36
		c-0.04-0.05-0.06-0.13-0.14-0.16c-0.13,0.15-0.21,0.32-0.27,0.5c-0.14,0.44-0.14,0.88-0.07,1.33c0.07,0.43,0.23,0.82,0.52,1.15
		c0.12,0.14,0.25,0.26,0.41,0.35c0.29,0.16,0.54,0.11,0.76-0.14c0.11-0.12,0.19-0.26,0.25-0.4c0.18-0.37,0.32-0.76,0.42-1.16
		c0.19-0.82,0.25-1.65,0.27-2.49c0.01-0.86-0.03-1.72-0.05-2.58c-0.02-0.96-0.06-1.92,0.05-2.88c0-0.03,0.02-0.07-0.02-0.1
		c-0.05-0.01-0.08,0.03-0.11,0.05c-0.39,0.24-0.79,0.46-1.19,0.66c-0.3,0.15-0.59,0.3-0.88,0.46c-0.41,0.23-0.79,0.5-1.12,0.84
		c-0.33,0.34-0.56,0.73-0.65,1.2c-0.02,0.1-0.05,0.2-0.09,0.29c-0.06,0.17-0.17,0.24-0.35,0.23c-0.17-0.01-0.32-0.08-0.45-0.2
		c-0.21-0.19-0.3-0.44-0.33-0.71c-0.04-0.47,0.08-0.9,0.32-1.3c0.37-0.63,0.87-1.13,1.52-1.47c0.44-0.23,0.92-0.38,1.4-0.52
		c0.38-0.11,0.77-0.2,1.14-0.35c0.35-0.14,0.69-0.29,0.99-0.52c0.17-0.13,0.29-0.29,0.36-0.5c0.07-0.25,0.15-0.5,0.28-0.73
		c0.1-0.18,0.22-0.23,0.41-0.2c0.24,0.05,0.4,0.25,0.39,0.5c-0.01,0.17-0.03,0.33-0.04,0.5c-0.03,0.63,0.01,1.25,0.04,1.88
		c0.05,0.91,0.02,1.82,0.07,2.73c0.05,0.85,0.09,1.7,0.12,2.55c0.04,1.02-0.02,2.03-0.25,3.03c-0.12,0.52-0.31,1.02-0.65,1.45
		c-0.87,1.1-2.74,1.19-3.64-0.03c-0.03-0.04-0.05-0.1-0.12-0.11c0,0.02,0,0.05,0,0.07c0.17,0.6,0.24,1.22,0.25,1.84
		c0,0.11,0.05,0.16,0.15,0.2c0.3,0.12,0.58,0.29,0.84,0.49c0.06,0.04,0.1,0.1,0.17,0.12c0.05-0.03,0.04-0.09,0.05-0.14
		c0.03-0.19,0.08-0.38,0.16-0.56c0.21-0.52,0.59-0.86,1.14-1.01c1.13-0.32,2.07,0.27,2.54,0.89c0.16,0.21,0.26,0.45,0.3,0.71
		c0.04,0.26-0.03,0.47-0.22,0.64c-0.25,0.24-0.52,0.17-0.63-0.16c-0.09-0.3-0.27-0.54-0.5-0.75c-0.11-0.1-0.25-0.18-0.41-0.15
		c-0.23,0.04-0.42,0.15-0.54,0.36c-0.33,0.6-0.28,1.27,0.18,1.77c0.25,0.28,0.57,0.38,0.94,0.3c0.45-0.1,0.8-0.34,1.11-0.68
		c0.25-0.28,0.41-0.61,0.55-0.95c0.14-0.34,0.22-0.7,0.34-1.05c0.16-0.45,0.35-0.88,0.64-1.24c0.61-0.74,1.39-1.09,2.34-0.85
		c1,0.25,1.63,0.94,2,1.88c0.1,0.24,0.06,0.5-0.04,0.74c-0.07,0.17-0.17,0.33-0.29,0.48c-0.04,0.05-0.1,0.09-0.1,0.17
		c0.25,0.09,0.5,0.17,0.73,0.3c0.99,0.58,1.62,1.44,1.9,2.55c0.08,0.29,0.09,0.6,0.11,0.9c0.01,0.17,0.01,0.17,0.18,0.16
		c0.73-0.04,1.43-0.2,2.07-0.56c0.05-0.03,0.11-0.05,0.14-0.1c-0.01-0.01-0.01-0.03-0.02-0.04c-0.03-0.04-0.07-0.07-0.1-0.11
		c-0.8-0.85-1.15-1.87-1.06-3.03c0.02-0.33,0.12-0.64,0.28-0.93c0.43-0.79,1.28-1.15,2.09-0.85c0.97,0.36,1.54,1.06,1.66,2.1
		c0.07,0.68-0.06,1.32-0.32,1.94c-0.02,0.05-0.07,0.11-0.05,0.18c0.04,0,0.07,0,0.1-0.01c0.11-0.03,0.22-0.06,0.33-0.1
		c1.05-0.46,1.85-1.16,2.24-2.27c0.25-0.69,0.39-1.39,0.22-2.12c-0.14-0.62-0.39-1.18-0.9-1.58c-0.41-0.32-0.86-0.57-1.36-0.7
		c-1.06-0.27-2.08-0.11-3.04,0.39c-0.67,0.35-1.05,0.92-1.15,1.68c-0.02,0.16-0.03,0.33-0.06,0.49c-0.06,0.31-0.28,0.44-0.58,0.34
		c-0.34-0.12-0.55-0.37-0.62-0.72c-0.08-0.43-0.11-0.86,0.04-1.28C24.65,24.44,24.64,24.42,24.64,24.4z M26.26,8.5
		C26.14,8.48,26.07,8.46,26,8.44c-0.41-0.1-0.79-0.27-1.12-0.54c-0.37-0.3-0.56-0.69-0.6-1.16c-0.02-0.32,0.14-0.53,0.45-0.59
		c0.14-0.03,0.27-0.02,0.41,0.01c0.42,0.11,0.74,0.35,0.87,0.79c0.03,0.12,0.1,0.14,0.21,0.15c0.07,0,0.13-0.02,0.19-0.04
		c0.15-0.06,0.26-0.17,0.36-0.3c0.28-0.36,0.4-0.78,0.46-1.22c0.12-0.84-0.21-1.52-0.78-2.11c-0.06-0.06-0.13-0.11-0.21-0.15
		c-0.48-0.26-0.99-0.4-1.54-0.33c-0.48,0.06-0.94,0.21-1.36,0.46c-0.21,0.13-0.22,0.13-0.09,0.35c0.29,0.53,0.44,1.09,0.36,1.71
		c-0.07,0.53-0.35,0.89-0.88,0.99c-0.65,0.13-1.22-0.05-1.66-0.56c-0.24-0.28-0.32-0.6-0.24-0.97c0.09-0.4,0.3-0.73,0.55-1.04
		c0.18-0.22,0.39-0.41,0.61-0.58c0.14-0.11,0.14-0.11,0.02-0.25c-0.19-0.24-0.42-0.44-0.69-0.58c-0.87-0.48-1.8-0.69-2.79-0.53
		c-0.65,0.11-1.23,0.37-1.68,0.87c-0.2,0.22-0.2,0.22,0.03,0.41c0.61,0.5,1.05,1.11,1.16,1.91c0.06,0.49-0.13,0.87-0.55,1.14
		c-0.29,0.18-0.62,0.25-0.96,0.21c-0.8-0.09-1.41-0.49-1.81-1.19c-0.38-0.66-0.36-1.34,0.07-1.98c0.04-0.06,0.1-0.1,0.1-0.18
		c-0.02-0.01-0.03-0.02-0.04-0.02c-0.04,0-0.07,0-0.11,0c-0.52,0.02-1.01,0.16-1.47,0.41c-0.31,0.17-0.6,0.38-0.84,0.64
		c-0.25,0.29-0.4,0.61-0.37,1.01c0.03,0.34,0.14,0.66,0.25,1c0.08-0.06,0.14-0.1,0.21-0.15c0.48-0.34,1-0.43,1.56-0.27
		c0.22,0.06,0.44,0.15,0.64,0.25c0.65,0.31,1.21,0.75,1.73,1.25c0.59,0.57,1.15,1.15,1.73,1.73c0.55,0.55,1.16,1.02,1.87,1.34
		c0.06,0.03,0.12,0.08,0.21,0.08c-0.02-0.11-0.08-0.18-0.12-0.26c-0.31-0.61-0.26-1.2,0.13-1.76c0.21-0.3,0.48-0.54,0.79-0.73
		c0.55-0.34,1.09-0.31,1.6,0.05c0.48,0.33,0.71,0.79,0.62,1.38c-0.03,0.2-0.12,0.36-0.32,0.43c-0.25,0.09-0.47,0.01-0.66-0.16
		c-0.19-0.16-0.3-0.35-0.25-0.61c0.01-0.06,0.03-0.11,0.04-0.17c0.02-0.15-0.01-0.18-0.14-0.13c-0.44,0.16-0.77,0.45-0.94,0.9
		c-0.08,0.22-0.06,0.44,0.06,0.64c0.23,0.4,0.58,0.57,1.02,0.59c0.66,0.03,1.27-0.13,1.86-0.41c0.52-0.26,1.01-0.56,1.46-0.93
		C25.71,9,25.97,8.76,26.26,8.5z M23.56,33.06c-0.09-0.05-0.16-0.05-0.23-0.06c-1.2-0.23-2.28-0.71-3.18-1.55
		c-0.27-0.25-0.51-0.53-0.67-0.87c-0.36-0.78-0.31-1.52,0.24-2.21c0.03-0.04,0.08-0.07,0.08-0.14c-0.07-0.03-0.14-0.06-0.21-0.09
		c-0.33-0.15-0.61-0.36-0.76-0.7c-0.19-0.42-0.12-0.81,0.14-1.19c0.18-0.26,0.62-0.25,0.81,0c0.09,0.11,0.11,0.23,0.04,0.36
		c-0.03,0.06-0.07,0.11-0.1,0.17c-0.08,0.16-0.07,0.37,0.03,0.47c0.13,0.12,0.28,0.1,0.43,0.04c0.23-0.09,0.39-0.26,0.5-0.48
		c0.1-0.19,0.11-0.38,0.02-0.58c-0.09-0.18-0.18-0.36-0.31-0.52c-0.16-0.19-0.35-0.32-0.6-0.35c-0.19-0.02-0.36,0.02-0.53,0.09
		c-0.52,0.21-0.83,0.63-1.05,1.13c-0.14,0.32-0.22,0.65-0.31,0.99c-0.17,0.63-0.41,1.23-0.85,1.73c-1.03,1.17-2.48,1.21-3.58,0.41
		c-0.04-0.03-0.08-0.09-0.16-0.07c0,0.24,0,0.47-0.03,0.71c-0.08,0.65-0.22,1.29-0.39,1.93c-0.1,0.38-0.2,0.77-0.27,1.16
		c-0.12,0.74,0.4,1.83,1.2,2.07c0.41,0.12,0.68,0.07,0.97-0.26c0.39-0.45,0.53-0.97,0.46-1.55c-0.05-0.35-0.16-0.69-0.5-0.89
		c-0.13-0.08-0.17-0.08-0.28,0.03c-0.22,0.22-0.24,0.59-0.05,0.83c0.19,0.24,0.13,0.49-0.16,0.6c-0.06,0.02-0.12,0.04-0.19,0.04
		c-0.4,0.04-0.8-0.18-0.98-0.54c-0.23-0.44-0.16-1,0.18-1.4c0.25-0.29,0.57-0.47,0.94-0.53c0.66-0.11,1.24,0.08,1.74,0.53
		c0.05,0.04,0.07,0.11,0.14,0.12c0.06-0.03,0.09-0.1,0.13-0.15c0.2-0.26,0.44-0.45,0.74-0.59c0.27-0.13,0.56-0.21,0.85-0.24
		c1.1-0.12,2.04,0.18,2.79,1.01c0.2,0.22,0.34,0.48,0.4,0.78c0.05,0.25,0.02,0.47-0.14,0.67c-0.18,0.23-0.38,0.23-0.55-0.01
		c-0.24-0.34-0.51-0.67-0.84-0.92c-0.2-0.16-0.43-0.27-0.68-0.32c-0.45-0.09-0.8,0.06-1,0.46c-0.46,0.95-0.3,1.83,0.45,2.59
		c0.07,0.07,0.16,0.13,0.25,0.17c0.41,0.19,0.84,0.31,1.29,0.32c0.64,0.01,1.23-0.2,1.81-0.47c0.64-0.3,1.13-0.77,1.48-1.38
		C23.29,33.98,23.44,33.53,23.56,33.06z M23.73,31.69c0.04-0.2,0.02-0.41,0-0.6c-0.06-0.76-0.36-1.42-0.92-1.94
		c-0.37-0.34-0.8-0.5-1.3-0.49c-0.29,0.01-0.5,0.13-0.64,0.37c-0.27,0.46-0.27,0.95,0.09,1.36c0.1,0.11,0.21,0.22,0.33,0.31
		c0.57,0.46,1.23,0.74,1.94,0.91C23.39,31.65,23.55,31.69,23.73,31.69z M18.23,20.1c0.1,0.01,0.17-0.03,0.25-0.07
		c0.33-0.14,0.6-0.37,0.86-0.6c0.09-0.08,0.13-0.16,0.1-0.28c-0.09-0.48-0.21-0.94-0.42-1.38c-0.1-0.21-0.23-0.4-0.4-0.56
		c-0.49-0.45-1.08-0.45-1.56,0.01c-0.41,0.4-0.62,0.9-0.68,1.46c-0.02,0.23,0.02,0.44,0.13,0.65c0.05-0.05,0.06-0.1,0.08-0.16
		c0.22-0.51,0.74-0.67,1.22-0.38c0.28,0.17,0.39,0.43,0.41,0.74C18.24,19.72,18.23,19.9,18.23,20.1z M28.85,28.26
		c0-0.22-0.02-0.43-0.1-0.64c-0.1-0.24-0.29-0.38-0.54-0.41c-0.24-0.04-0.41,0.1-0.55,0.28c-0.04,0.06-0.08,0.12-0.11,0.19
		c-0.32,0.75-0.29,1.47,0.13,2.17c0.07,0.11,0.15,0.21,0.25,0.3c0.07,0.06,0.12,0.08,0.19-0.01C28.56,29.58,28.82,28.96,28.85,28.26
		z M19.53,20.07c-0.05,0.02-0.07,0.03-0.08,0.04c-0.33,0.28-0.71,0.47-1.13,0.56c-0.11,0.02-0.13,0.08-0.14,0.18
		c-0.07,0.78,0.05,1.52,0.31,2.25c0.03,0.09,0.08,0.17,0.13,0.25c0.07,0.11,0.1,0.11,0.2,0.03c0.15-0.13,0.25-0.3,0.32-0.48
		C19.48,21.99,19.58,21.05,19.53,20.07z M30.91,12.27c-0.36,0-0.63,0.08-0.85,0.31c-0.41,0.42-0.29,1.02,0.26,1.25
		c0.25,0.1,0.36,0.09,0.53-0.12c0.31-0.34,0.5-0.75,0.64-1.18c0.03-0.1-0.01-0.13-0.09-0.16C31.24,12.3,31.05,12.28,30.91,12.27z
		 M9.4,27.38c-0.02,0-0.04-0.01-0.06-0.01c-0.37,0.11-0.71,0.27-1,0.53c-0.16,0.14-0.28,0.31-0.34,0.52
		c-0.05,0.16-0.03,0.31,0.05,0.46c0.17,0.31,0.35,0.35,0.58,0.08c0.4-0.45,0.64-0.99,0.78-1.57C9.42,27.39,9.41,27.39,9.4,27.38z
		 M16.34,3.62c-0.18,0.35-0.23,0.68-0.17,1.03c0.05,0.26,0.19,0.46,0.44,0.58c0.18,0.08,0.31,0.03,0.37-0.16
		c0.03-0.1,0.03-0.2,0.02-0.3C16.95,4.3,16.7,3.95,16.34,3.62z M22.53,4.14c-0.23,0.3-0.36,0.59-0.39,0.92
		c0,0.05-0.02,0.11,0.04,0.13c0.05,0.02,0.1-0.01,0.14-0.05c0.02-0.01,0.03-0.03,0.05-0.04C22.58,4.83,22.6,4.52,22.53,4.14z"/>
	<g>
		<path d="M1.01,24.42c-0.01-0.13,0-0.26,0.06-0.38c0.06-0.13,0.17-0.2,0.31-0.21c0.15,0,0.24,0.08,0.29,0.22
			c0.07,0.2,0.14,0.41,0.2,0.62c0.56,1.67,1.32,3.23,2.37,4.64c1.03,1.38,2.23,2.59,3.61,3.62c0.45,0.34,0.94,0.62,1.43,0.9
			c0.08,0.05,0.16,0.09,0.23,0.16c0.12,0.12,0.12,0.25,0.01,0.39c-0.11,0.14-0.26,0.17-0.43,0.14c-0.12-0.02-0.23-0.08-0.34-0.14
			c-0.93-0.52-1.8-1.12-2.61-1.81c-0.69-0.58-1.34-1.21-1.91-1.91c-0.58-0.72-1.15-1.44-1.66-2.22c-0.7-1.08-1.23-2.23-1.51-3.49
			c-0.02-0.11-0.04-0.23-0.06-0.34C1,24.54,1.01,24.48,1.01,24.42z"/>
		<path d="M9.58,33.21c-0.17,0-0.29-0.07-0.41-0.15c-0.77-0.54-1.51-1.11-2.19-1.76c-1.02-0.99-1.94-2.06-2.71-3.25
			c-0.56-0.85-1.04-1.75-1.34-2.73c-0.04-0.12-0.07-0.25-0.09-0.38c-0.01-0.09,0-0.17,0.06-0.25c0.15-0.19,0.44-0.18,0.54,0.05
			c0.29,0.67,0.62,1.32,0.98,1.95c0.89,1.55,1.91,3,3.25,4.21c0.46,0.41,0.94,0.79,1.45,1.13c0.23,0.16,0.46,0.32,0.69,0.48
			c0.13,0.09,0.23,0.19,0.19,0.35c-0.04,0.16-0.15,0.26-0.31,0.3C9.65,33.21,9.6,33.21,9.58,33.21z"/>
		<path d="M24.03,36.85c-0.2,0.01-0.39-0.04-0.57-0.09c-0.06-0.02-0.11-0.05-0.15-0.09c-0.12-0.12-0.09-0.24,0.07-0.29
			c0.09-0.03,0.18-0.05,0.27-0.07c0.67-0.14,1.33-0.32,1.97-0.57c0.63-0.24,1.22-0.56,1.75-0.98c0.53-0.41,1.07-0.81,1.55-1.27
			c0.31-0.3,0.58-0.62,0.86-0.94c0.07-0.08,0.14-0.16,0.26-0.17c0.14-0.01,0.28,0.06,0.35,0.17c0.06,0.12,0.04,0.23-0.07,0.36
			c-0.62,0.75-1.33,1.41-2.08,2.04c-0.8,0.67-1.69,1.17-2.68,1.51c-0.4,0.14-0.8,0.3-1.22,0.37C24.24,36.84,24.14,36.85,24.03,36.85
			z"/>
		<path d="M35.38,17.7c0.03-0.75-0.13-1.48-0.26-2.21c-0.11-0.61-0.22-1.22-0.36-1.82c-0.16-0.66-0.39-1.28-0.71-1.88
			c-0.09-0.17-0.19-0.34-0.25-0.53c-0.03-0.07-0.06-0.16,0.01-0.22c0.07-0.07,0.17-0.08,0.26-0.05c0.11,0.03,0.18,0.11,0.23,0.21
			c0.6,1.02,1,2.11,1.24,3.26c0.17,0.8,0.34,1.59,0.42,2.41c0.05,0.46,0.03,0.92,0.02,1.38c0,0.06-0.01,0.13-0.03,0.19
			c-0.05,0.17-0.17,0.25-0.34,0.23c-0.16-0.02-0.24-0.11-0.24-0.3C35.37,18.15,35.38,17.92,35.38,17.7z"/>
		<path d="M0,17.21c0.11-1.29,0.28-2.56,0.82-3.76c0.07-0.16,0.15-0.33,0.23-0.49c0.08-0.14,0.19-0.18,0.33-0.15
			c0.14,0.03,0.22,0.14,0.19,0.29c-0.01,0.08-0.04,0.17-0.07,0.25c-0.14,0.39-0.28,0.77-0.41,1.16c-0.25,0.75-0.36,1.53-0.44,2.31
			c-0.02,0.17-0.03,0.34-0.05,0.52c-0.03,0.21-0.11,0.29-0.28,0.29c-0.18,0-0.31-0.12-0.32-0.31C0,17.28,0,17.25,0,17.21z"/>
		<path d="M25.49,34.6c-0.23,0-0.46-0.04-0.67-0.14c-0.1-0.05-0.19-0.11-0.24-0.21c-0.07-0.14-0.01-0.24,0.14-0.27
			c0.05-0.01,0.1-0.01,0.15,0c0.41,0.05,0.8-0.04,1.18-0.2c0.42-0.18,0.85-0.37,1.24-0.61c0.22-0.13,0.43-0.27,0.61-0.45
			c0.05-0.05,0.11-0.09,0.17-0.13c0.18-0.09,0.38-0.03,0.5,0.13c0.07,0.11,0.08,0.21,0.01,0.32c-0.04,0.05-0.08,0.11-0.13,0.15
			c-0.77,0.64-1.59,1.17-2.59,1.37C25.73,34.59,25.61,34.6,25.49,34.6z"/>
		<path d="M4.6,25.17c0.05,0,0.11,0.02,0.16,0.07c0.04,0.04,0.08,0.08,0.11,0.13c0.48,0.7,1.05,1.33,1.53,2.02
			c0.02,0.03,0.04,0.06,0.06,0.09c0.11,0.17,0.11,0.3,0,0.41C6.35,28.02,6.15,28.06,6,27.98c-0.08-0.04-0.15-0.09-0.2-0.16
			c-0.36-0.52-0.79-1-1.13-1.53c-0.13-0.2-0.25-0.4-0.34-0.63c-0.03-0.07-0.05-0.15-0.05-0.23C4.29,25.28,4.43,25.17,4.6,25.17z"/>
		<path d="M33.93,26.88c-0.09,0-0.17-0.03-0.22-0.11c-0.06-0.08-0.02-0.17,0.03-0.24c0.21-0.33,0.36-0.69,0.54-1.03
			c0.35-0.7,0.61-1.43,0.72-2.21c0.02-0.1,0.05-0.2,0.15-0.25c0.11-0.05,0.22-0.05,0.33,0.02c0.1,0.07,0.11,0.16,0.09,0.27
			c-0.07,0.46-0.18,0.92-0.34,1.36c-0.25,0.66-0.59,1.28-0.95,1.89c-0.04,0.06-0.08,0.12-0.12,0.18
			C34.1,26.84,34.03,26.87,33.93,26.88z"/>
		<path d="M1.3,16.47c0.05-0.66,0.14-1.3,0.33-1.93c0.04-0.14,0.1-0.27,0.18-0.39c0.08-0.1,0.17-0.15,0.3-0.13
			c0.17,0.02,0.25,0.14,0.2,0.31c-0.23,0.72-0.34,1.46-0.41,2.2c-0.02,0.24-0.12,0.35-0.31,0.34c-0.19-0.01-0.3-0.15-0.3-0.38
			C1.3,16.49,1.3,16.47,1.3,16.47z"/>
		<path d="M34.91,17.87c0,0.06,0.01,0.15,0,0.23c-0.01,0.15-0.11,0.23-0.26,0.23c-0.15,0-0.24-0.07-0.27-0.22
			c0-0.02-0.01-0.04-0.01-0.06c-0.01-0.69-0.09-1.38-0.14-2.07c0-0.03,0-0.06,0-0.09c0-0.15,0.06-0.23,0.19-0.24
			c0.12-0.02,0.23,0.05,0.26,0.18c0.04,0.15,0.07,0.31,0.09,0.47C34.82,16.8,34.88,17.32,34.91,17.87z"/>
		<path d="M12.71,2.19c0,0.33-0.29,0.63-0.62,0.62c-0.31,0-0.54-0.24-0.54-0.55c0-0.34,0.27-0.62,0.61-0.62
			C12.47,1.64,12.71,1.89,12.71,2.19z"/>
		<path d="M2.85,15.75c0-0.26,0.04-0.54,0.13-0.82c0.03-0.09,0.06-0.18,0.12-0.25c0.1-0.12,0.25-0.16,0.39-0.09
			c0.12,0.06,0.17,0.15,0.14,0.28c-0.09,0.35-0.14,0.7-0.17,1.06c-0.01,0.08-0.02,0.16-0.04,0.23c-0.05,0.15-0.14,0.21-0.29,0.21
			c-0.15-0.01-0.25-0.09-0.28-0.25c-0.01-0.06-0.01-0.11-0.01-0.17C2.84,15.9,2.85,15.84,2.85,15.75z"/>
		<path d="M28.99,5.9c-0.18,0-0.31,0-0.43-0.06c-0.23-0.11-0.33-0.42-0.2-0.64c0.17-0.27,0.67-0.4,0.95-0.24
			c0.06,0.03,0.1,0.08,0.13,0.14c0.09,0.18,0.09,0.38,0.03,0.57c-0.04,0.13-0.15,0.19-0.28,0.22C29.11,5.9,29.03,5.9,28.99,5.9z"/>
		<path d="M16.83,0.13c0.31,0,0.57,0.26,0.57,0.56c0,0.31-0.26,0.56-0.57,0.56c-0.31,0-0.57-0.26-0.57-0.56
			C16.27,0.38,16.52,0.13,16.83,0.13z"/>
		<path d="M23.52,1.75c0,0.31-0.26,0.57-0.56,0.56c-0.31,0-0.56-0.27-0.55-0.58c0-0.31,0.26-0.57,0.57-0.56
			C23.27,1.18,23.52,1.44,23.52,1.75z"/>
		<path d="M21.54,0.9c0,0.31-0.24,0.55-0.55,0.55c-0.31,0-0.56-0.25-0.55-0.57c0-0.31,0.24-0.55,0.55-0.55
			C21.3,0.33,21.54,0.58,21.54,0.9z"/>
		<path d="M15.29,36.86c0-0.31,0.24-0.55,0.54-0.56c0.3,0,0.55,0.25,0.55,0.55c0,0.29-0.24,0.54-0.53,0.55
			C15.54,37.41,15.29,37.17,15.29,36.86z"/>
		<path d="M14.21,0.94c0.31,0,0.55,0.25,0.55,0.55c0,0.29-0.25,0.54-0.54,0.54c-0.3,0.01-0.56-0.24-0.56-0.54
			C13.65,1.18,13.9,0.94,14.21,0.94z"/>
		<path d="M18.98,1.09c-0.3,0-0.55-0.24-0.55-0.55c0-0.3,0.26-0.55,0.55-0.55c0.29,0,0.54,0.25,0.54,0.54
			C19.53,0.84,19.28,1.09,18.98,1.09z"/>
		<path d="M3.52,10.6c0.3,0,0.55,0.24,0.55,0.55c0,0.3-0.25,0.55-0.55,0.54c-0.3,0-0.53-0.24-0.54-0.53
			C2.97,10.85,3.21,10.61,3.52,10.6z"/>
		<path d="M4.51,9.69c0.3,0,0.55,0.24,0.55,0.55c0,0.3-0.25,0.55-0.56,0.54c-0.3,0-0.53-0.24-0.54-0.54
			C3.97,9.94,4.21,9.69,4.51,9.69z"/>
		<path d="M6.24,10.76c0,0.3-0.25,0.55-0.55,0.54c-0.31,0-0.54-0.25-0.54-0.56c0.01-0.3,0.24-0.53,0.54-0.53
			C6,10.21,6.24,10.46,6.24,10.76z"/>
		<path d="M10.34,4.02c-0.3,0-0.55-0.25-0.54-0.55c0-0.3,0.25-0.54,0.56-0.54c0.3,0.01,0.53,0.24,0.53,0.54
			C10.88,3.78,10.64,4.03,10.34,4.02z"/>
		<path d="M9.49,30.54c0.09,0,0.16,0.03,0.23,0.08c0.22,0.15,0.43,0.31,0.65,0.47c0.21,0.15,0.2,0.36-0.01,0.51
			c-0.13,0.09-0.27,0.1-0.41,0.03c-0.28-0.15-0.52-0.37-0.73-0.6c-0.07-0.08-0.09-0.18-0.03-0.28C9.25,30.61,9.36,30.55,9.49,30.54z
			"/>
		<path d="M4.65,15.17c0.02-0.2,0.04-0.43,0.12-0.65c0.05-0.15,0.14-0.21,0.27-0.21c0.16,0,0.27,0.11,0.26,0.28
			c-0.01,0.22-0.04,0.44-0.07,0.66c-0.03,0.23-0.14,0.32-0.31,0.31C4.73,15.55,4.65,15.43,4.65,15.17z"/>
		<path d="M33.57,25.14c-0.18-0.01-0.27-0.13-0.21-0.29c0.06-0.17,0.14-0.33,0.22-0.49c0.05-0.11,0.15-0.17,0.28-0.17
			c0.19,0,0.27,0.12,0.22,0.3c-0.06,0.19-0.15,0.36-0.26,0.52C33.76,25.1,33.67,25.14,33.57,25.14z"/>
		<path d="M28.42,20.97c-0.02-0.74,0.2-1.42,0.58-2.05c0.37-0.6,0.81-1.16,1.2-1.75c0.37-0.55,0.7-1.11,0.87-1.75
			c0.04-0.14,0.12-0.18,0.26-0.16c0.17,0.03,0.28,0.17,0.3,0.35c0.01,0.16-0.03,0.32-0.07,0.47c-0.13,0.45-0.34,0.86-0.61,1.24
			c-0.26,0.36-0.53,0.72-0.8,1.08c-0.25,0.33-0.47,0.69-0.68,1.05c-0.29,0.53-0.44,1.09-0.45,1.7c0,0.11,0,0.22-0.01,0.32
			c-0.02,0.18-0.16,0.26-0.33,0.21c-0.15-0.04-0.24-0.17-0.26-0.34c-0.01-0.06,0-0.13,0-0.19C28.41,21.09,28.42,21.03,28.42,20.97z"
			/>
		<path d="M26.98,20.72c0.11-1.63,0.54-3.15,1.63-4.42c0.22-0.26,0.44-0.53,0.64-0.82c0.11-0.15,0.25-0.19,0.39-0.1
			c0.13,0.07,0.18,0.2,0.13,0.35c-0.03,0.09-0.08,0.17-0.14,0.25c-0.12,0.16-0.24,0.33-0.37,0.48c-0.77,0.87-1.25,1.87-1.46,3.02
			c-0.1,0.55-0.19,1.11-0.2,1.67c0,0.02,0,0.04,0,0.06c-0.02,0.2-0.06,0.27-0.19,0.3c-0.15,0.03-0.3-0.05-0.37-0.2
			c-0.04-0.07-0.05-0.15-0.05-0.23C26.98,20.95,26.98,20.83,26.98,20.72z"/>
		<path d="M31.24,10.43c-0.01,0.17-0.01,0.33-0.03,0.5c-0.01,0.12-0.06,0.23-0.19,0.26c-0.13,0.04-0.24-0.01-0.34-0.1
			c-0.07-0.07-0.12-0.16-0.15-0.26c-0.01-0.03-0.03-0.08-0.01-0.1c0.16-0.25,0.05-0.52,0.05-0.78c-0.01-0.28-0.08-0.56-0.15-0.83
			c-0.12-0.42-0.36-0.77-0.69-1.06c-0.03-0.03-0.07-0.06-0.1-0.08C29.34,7.8,29.18,7.8,28.9,8.01c-0.27,0.2-0.46,0.45-0.54,0.78
			c-0.03,0.14-0.04,0.28,0.04,0.42c0.09,0.15,0.01,0.25-0.16,0.25c-0.16,0-0.27-0.09-0.34-0.23c-0.09-0.18-0.12-0.37-0.07-0.57
			c0.15-0.6,0.55-0.97,1.1-1.19c0.17-0.07,0.36-0.04,0.53,0.01c0.6,0.15,1,0.55,1.33,1.05c0.24,0.36,0.33,0.77,0.4,1.18
			C31.22,9.94,31.25,10.18,31.24,10.43z"/>
		<path d="M14.47,11.53c0,0.13-0.07,0.23-0.15,0.32c-0.27,0.34-0.6,0.61-0.96,0.83c-0.41,0.26-0.85,0.46-1.31,0.61
			c-0.21,0.07-0.42,0.14-0.64,0.21c-0.79,0.24-1.47,0.67-2.02,1.28c-0.1,0.12-0.21,0.14-0.32,0.09c-0.14-0.07-0.18-0.19-0.1-0.32
			c0.04-0.07,0.1-0.14,0.16-0.2c0.55-0.56,1.18-0.99,1.93-1.23c0.47-0.15,0.95-0.3,1.4-0.52c0.57-0.28,1.08-0.63,1.44-1.18
			c0.03-0.04,0.06-0.08,0.1-0.11c0.1-0.07,0.2-0.06,0.31-0.01C14.41,11.35,14.47,11.43,14.47,11.53z"/>
		<path d="M14.19,9.89c-0.02,0.23-0.05,0.42-0.19,0.59c-0.13,0.16-0.27,0.3-0.43,0.43c-0.55,0.45-1.16,0.79-1.83,1
			c-0.32,0.1-0.63,0.2-0.94,0.34c-0.45,0.19-0.87,0.43-1.22,0.77c-0.08,0.07-0.16,0.12-0.27,0.1c-0.19-0.04-0.26-0.2-0.15-0.35
			c0.12-0.17,0.27-0.3,0.44-0.41c0.43-0.31,0.91-0.53,1.41-0.71c0.23-0.08,0.46-0.16,0.69-0.25c0.5-0.18,0.95-0.45,1.36-0.79
			c0.27-0.22,0.51-0.47,0.57-0.84c0.02-0.11,0.09-0.16,0.19-0.17c0.13-0.01,0.27,0.06,0.33,0.17C14.18,9.81,14.19,9.86,14.19,9.89z"
			/>
		<path d="M9.5,20.03c0.13-1.13,0.6-2.06,1.51-2.76c0.24-0.18,0.5-0.34,0.77-0.48c0.23-0.12,0.47-0.21,0.74-0.21
			c0.12,0,0.23,0.03,0.31,0.13c0.09,0.12,0.06,0.22-0.08,0.26c-1.42,0.42-2.28,1.37-2.62,2.8c-0.04,0.15-0.04,0.3-0.06,0.45
			c-0.03,0.22-0.2,0.3-0.39,0.18C9.56,20.33,9.5,20.19,9.5,20.03z"/>
		<path d="M21.59,13.11c0.03-0.17,0.13-0.31,0.28-0.42c0.14-0.1,0.29-0.16,0.45-0.2c0.5-0.14,1-0.26,1.52-0.31
			c0.13-0.01,0.25-0.05,0.38-0.1c0.09-0.04,0.18-0.03,0.27,0.02c0.16,0.09,0.17,0.28,0.02,0.39c-0.12,0.09-0.26,0.13-0.4,0.15
			c-0.33,0.05-0.66,0.09-0.98,0.18c-0.2,0.05-0.39,0.09-0.59,0.15c-0.18,0.05-0.32,0.15-0.41,0.32c-0.08,0.15-0.16,0.19-0.29,0.15
			C21.7,13.4,21.59,13.27,21.59,13.11z"/>
		<path d="M27.23,15.96c0.04-0.38,0.18-0.75,0.38-1.09c0.13-0.21,0.26-0.41,0.41-0.61c0.15-0.21,0.29-0.43,0.38-0.68
			c0.05-0.14,0.14-0.18,0.26-0.16c0.13,0.03,0.2,0.13,0.19,0.27c-0.02,0.22-0.12,0.41-0.25,0.59c-0.15,0.23-0.31,0.45-0.45,0.69
			c-0.22,0.36-0.36,0.76-0.42,1.17c-0.02,0.11-0.03,0.2-0.16,0.22c-0.11,0.02-0.23-0.04-0.3-0.14
			C27.24,16.15,27.23,16.07,27.23,15.96z"/>
		<path d="M23.65,16.09c0.02-0.12,0.04-0.28,0.08-0.42c0.11-0.45,0.28-0.87,0.51-1.28c0.09-0.17,0.2-0.33,0.37-0.44
			c0.15-0.09,0.31-0.08,0.41,0.04c0.08,0.09,0.09,0.19,0.01,0.27c-0.5,0.49-0.65,1.14-0.82,1.78c-0.02,0.07-0.03,0.14-0.05,0.21
			c-0.05,0.17-0.11,0.22-0.25,0.21c-0.14-0.02-0.25-0.13-0.26-0.27C23.65,16.16,23.65,16.14,23.65,16.09z"/>
		<path d="M12.61,17.78c0.14,0,0.27,0.03,0.35,0.17c0.05,0.1,0.03,0.17-0.07,0.21c-0.59,0.24-0.92,0.71-1.15,1.28
			c-0.01,0.03-0.02,0.05-0.03,0.08c-0.07,0.15-0.14,0.2-0.26,0.18c-0.14-0.02-0.26-0.13-0.27-0.27c-0.01-0.11,0.02-0.22,0.06-0.32
			c0.2-0.52,0.55-0.92,1.02-1.22C12.39,17.81,12.49,17.78,12.61,17.78z"/>
		<path d="M16.4,25.64c-0.47,0-0.85-0.05-1.18-0.29c-0.08-0.06-0.15-0.11-0.2-0.2c-0.06-0.1-0.02-0.19,0.09-0.21
			c0.1-0.03,0.2,0,0.29,0.06c0.32,0.21,0.66,0.25,1.03,0.22c0.23-0.02,0.43-0.12,0.62-0.24c0.08-0.05,0.16-0.09,0.26-0.08
			c0.11,0.02,0.19,0.07,0.23,0.18c0.03,0.1-0.04,0.16-0.11,0.22C17.11,25.54,16.74,25.66,16.4,25.64z"/>
		<path d="M31.21,24.97c-0.01,0.31-0.25,0.54-0.56,0.54c-0.32,0-0.59-0.29-0.59-0.62c0.01-0.3,0.26-0.55,0.56-0.55
			C30.94,24.35,31.22,24.64,31.21,24.97z"/>
		<path d="M23.7,28.42c-0.11,0-0.21-0.01-0.29-0.08c-0.06-0.05-0.11-0.12-0.1-0.2c0.02-0.08,0.08-0.11,0.16-0.13
			c0.34-0.08,0.65-0.23,0.97-0.36c0.2-0.08,0.4-0.17,0.6-0.25c0.15-0.06,0.29-0.01,0.36,0.1c0.06,0.1,0.06,0.19-0.04,0.24
			c-0.51,0.27-1.02,0.54-1.59,0.67C23.76,28.42,23.73,28.42,23.7,28.42z"/>
		<path d="M29.38,8.61c0.23,0.01,0.44,0.15,0.59,0.39c0.14,0.23,0.23,0.48,0.3,0.74c0.03,0.09,0.04,0.2-0.07,0.27
			c-0.09,0.05-0.21,0.02-0.3-0.06c-0.08-0.07-0.12-0.18-0.16-0.28c-0.07-0.17-0.12-0.34-0.19-0.5c-0.08-0.19-0.18-0.2-0.32-0.05
			c-0.03,0.03-0.05,0.07-0.08,0.1c-0.09,0.11-0.23,0.13-0.34,0.04c-0.11-0.08-0.12-0.17-0.04-0.3C28.86,8.76,29.1,8.61,29.38,8.61z"
			/>
		<path d="M29.67,24.3c0,0.3-0.26,0.55-0.56,0.54c-0.3-0.01-0.54-0.26-0.53-0.57c0.01-0.29,0.25-0.53,0.55-0.53
			C29.43,23.75,29.68,24,29.67,24.3z"/>
		<path d="M27.39,25.61c-0.31,0.01-0.55-0.23-0.55-0.54c0-0.3,0.24-0.55,0.55-0.55c0.29,0,0.54,0.24,0.55,0.53
			C27.94,25.35,27.7,25.6,27.39,25.61z"/>
		<path d="M31.04,26.98c-0.31,0-0.55-0.25-0.54-0.55c0-0.3,0.26-0.54,0.56-0.54c0.3,0.01,0.53,0.25,0.53,0.54
			C31.58,26.75,31.34,26.99,31.04,26.98z"/>
		<path d="M31.18,28.31c0,0.3-0.25,0.54-0.56,0.54c-0.3,0-0.53-0.24-0.53-0.54c0-0.31,0.24-0.55,0.54-0.55
			C30.93,27.76,31.18,28.01,31.18,28.31z"/>
		<path d="M23.21,14.08c0-0.1,0.03-0.2,0.07-0.29c0.12-0.27,0.31-0.46,0.56-0.61c0.17-0.11,0.37-0.12,0.56-0.08
			c0.11,0.02,0.2,0.08,0.25,0.18c0.05,0.11,0.01,0.2-0.11,0.23c-0.01,0-0.03,0-0.04,0c-0.38-0.02-0.56,0.24-0.72,0.52
			c-0.04,0.06-0.05,0.13-0.08,0.2c-0.06,0.14-0.13,0.18-0.24,0.17c-0.13-0.02-0.24-0.12-0.25-0.26
			C23.21,14.12,23.21,14.1,23.21,14.08z"/>
		<path d="M22.96,25.97c-0.09-0.01-0.18-0.02-0.25-0.08c-0.12-0.09-0.16-0.25,0.04-0.33c0.24-0.08,0.48-0.18,0.72-0.28
			c0.13-0.05,0.26-0.1,0.37-0.21c0.1-0.09,0.24-0.06,0.33,0.04c0.09,0.1,0.08,0.19-0.02,0.3c-0.02,0.03-0.05,0.05-0.08,0.07
			c-0.33,0.19-0.67,0.36-1.04,0.46C23.02,25.96,22.99,25.97,22.96,25.97z"/>
		<path d="M23.08,26.94c-0.09,0-0.17-0.02-0.24-0.09c-0.12-0.11-0.1-0.25,0.05-0.31c0.32-0.13,0.64-0.26,0.97-0.38
			c0.11-0.04,0.21-0.01,0.29,0.08c0.08,0.09,0.09,0.18,0,0.24C23.83,26.72,23.47,26.87,23.08,26.94z"/>
		<path d="M24.6,29.64c-0.16,0-0.27-0.04-0.34-0.15c-0.07-0.11-0.05-0.2,0.07-0.24c0.28-0.1,0.56-0.18,0.84-0.27
			c0.08-0.02,0.16,0,0.23,0.04c0.17,0.11,0.17,0.27,0,0.38C25.15,29.55,24.86,29.59,24.6,29.64z"/>
		<path d="M25.13,30.92c-0.11-0.01-0.23-0.03-0.33-0.12c-0.06-0.05-0.09-0.12-0.07-0.19c0.02-0.07,0.08-0.1,0.15-0.1
			c0.22-0.02,0.42-0.08,0.63-0.14c0.13-0.03,0.26-0.04,0.36,0.07c0.11,0.11,0.09,0.22-0.04,0.3C25.71,30.8,25.3,30.92,25.13,30.92z"
			/>
		<path d="M16.1,24.51c-0.13,0-0.26-0.02-0.36-0.11c-0.06-0.05-0.11-0.12-0.09-0.21c0.02-0.08,0.08-0.11,0.16-0.13
			c0.21-0.04,0.41-0.07,0.62-0.07c0.1,0,0.2,0.03,0.27,0.11c0.12,0.12,0.1,0.26-0.07,0.31C16.46,24.48,16.28,24.5,16.1,24.51z"/>
		<path d="M16.12,23.51c-0.12,0-0.23,0.01-0.33-0.04c-0.08-0.05-0.16-0.11-0.13-0.22c0.02-0.1,0.12-0.12,0.21-0.12
			c0.1,0,0.2,0,0.3,0.01c0.08,0.01,0.15,0.04,0.21,0.09c0.06,0.06,0.11,0.12,0.08,0.21c-0.03,0.09-0.12,0.1-0.2,0.09
			C16.2,23.52,16.16,23.51,16.12,23.51z"/>
		<path d="M26.28,5.66c0.02-0.35-0.06-0.69-0.24-0.99c-0.1-0.17-0.23-0.31-0.42-0.39c-0.11-0.05-0.21-0.1-0.31-0.15
			c-0.27-0.14-0.54-0.14-0.81-0.02c-0.13,0.06-0.25,0.07-0.36-0.02c-0.12-0.1-0.12-0.21,0.01-0.3c0.08-0.06,0.17-0.11,0.27-0.13
			c0.34-0.09,0.68-0.09,1.01,0.06c0.13,0.06,0.26,0.13,0.39,0.18c0.66,0.25,1.22,1.13,1.08,2c-0.03,0.2-0.15,0.31-0.33,0.29
			c-0.17-0.02-0.33-0.15-0.3-0.35C26.28,5.77,26.28,5.71,26.28,5.66z"/>
		<path d="M19.73,2.59c0.36-0.01,0.7,0.05,1.03,0.18c0.11,0.04,0.21,0.1,0.28,0.2c0.04,0.06,0.08,0.13,0.04,0.2
			c-0.04,0.08-0.12,0.1-0.2,0.1c-0.06,0-0.12-0.01-0.17-0.04c-0.58-0.29-1.18-0.21-1.77-0.07c-0.2,0.05-0.4,0.11-0.6,0.19
			c-0.08,0.03-0.16,0.06-0.25,0.06c-0.11,0-0.2-0.04-0.26-0.12c-0.08-0.1-0.07-0.19,0.04-0.25c0.11-0.06,0.23-0.12,0.35-0.17
			C18.71,2.7,19.21,2.58,19.73,2.59z"/>
		<path d="M19.54,8.41c0,0.3-0.26,0.55-0.56,0.54c-0.3-0.01-0.54-0.26-0.53-0.57C18.46,8.09,18.7,7.85,19,7.85
			C19.3,7.86,19.54,8.11,19.54,8.41z"/>
		<path d="M17.89,6.57c0.31,0,0.54,0.25,0.53,0.56c-0.01,0.3-0.24,0.53-0.54,0.53c-0.3,0-0.55-0.25-0.55-0.55
			C17.33,6.81,17.58,6.57,17.89,6.57z"/>
		<path d="M20.01,4.29c-0.19-0.03-0.4-0.06-0.62-0.06c-0.27,0-0.55,0.02-0.82,0.08c-0.08,0.02-0.17,0.03-0.26,0.01
			c-0.09-0.02-0.16-0.07-0.17-0.17c-0.01-0.1,0.07-0.14,0.14-0.17c0.16-0.06,0.32-0.09,0.48-0.12c0.37-0.05,0.74-0.09,1.12-0.03
			c0.11,0.02,0.23,0.04,0.32,0.12c0.06,0.05,0.11,0.12,0.09,0.21c-0.03,0.09-0.11,0.11-0.19,0.11C20.08,4.29,20.06,4.29,20.01,4.29z
			"/>
		<path d="M12.77,5.05C12.68,5.04,12.59,5,12.54,4.9c-0.04-0.09,0.02-0.15,0.07-0.21c0.24-0.28,0.55-0.46,0.88-0.6
			c0.11-0.04,0.21-0.04,0.3,0.04c0.1,0.08,0.1,0.17-0.01,0.25c-0.06,0.04-0.12,0.07-0.18,0.11c-0.21,0.13-0.4,0.28-0.58,0.45
			C12.96,5,12.89,5.06,12.77,5.05z"/>
		<path d="M24.59,4.72c0.2,0.01,0.39,0.09,0.56,0.24c0.13,0.12,0.23,0.26,0.32,0.41c0.03,0.06,0.06,0.12,0.01,0.18
			c-0.05,0.07-0.12,0.08-0.19,0.07c-0.09-0.01-0.16-0.05-0.22-0.12C25,5.43,24.93,5.36,24.86,5.29c-0.08-0.09-0.18-0.17-0.31-0.18
			c-0.01,0-0.03,0-0.04-0.01c-0.13-0.04-0.22-0.15-0.21-0.24C24.32,4.77,24.42,4.72,24.59,4.72z"/>
		<path d="M19.03,5.27c-0.16,0.01-0.25,0-0.33-0.08c-0.11-0.11-0.08-0.21,0.06-0.26c0.15-0.05,0.31-0.07,0.47-0.07
			c0.15,0,0.3,0.02,0.45,0.04c0.09,0.01,0.18,0.06,0.24,0.14c0.05,0.06,0.08,0.12,0.04,0.2c-0.03,0.06-0.1,0.08-0.17,0.08
			c-0.01,0-0.03,0-0.04,0C19.49,5.24,19.24,5.22,19.03,5.27z"/>
		<path d="M13.73,4.81c0.09-0.01,0.15,0.01,0.2,0.04c0.06,0.03,0.11,0.08,0.11,0.15c0,0.08-0.06,0.11-0.12,0.13
			c-0.09,0.03-0.18,0.07-0.26,0.09c-0.08,0.03-0.17,0.03-0.25-0.02c-0.07-0.04-0.12-0.09-0.11-0.17c0-0.08,0.06-0.11,0.12-0.14
			C13.52,4.85,13.64,4.82,13.73,4.81z"/>
		<path d="M15.12,31.18c-0.39-0.01-0.72-0.06-1.04-0.14c-0.21-0.05-0.39-0.14-0.56-0.28c-0.04-0.04-0.09-0.08-0.12-0.12
			c-0.07-0.11-0.02-0.2,0.1-0.22c0.09-0.02,0.17,0.02,0.25,0.06c0.55,0.28,1.13,0.34,1.72,0.19c0.88-0.22,1.58-0.73,2.13-1.44
			c0.21-0.27,0.4-0.56,0.6-0.85c0.11-0.15,0.24-0.18,0.37-0.1c0.11,0.07,0.15,0.17,0.09,0.28c-0.65,1.2-1.51,2.16-2.89,2.53
			C15.54,31.15,15.3,31.2,15.12,31.18z"/>
		<path d="M16.35,31.53c-0.08,0-0.14,0-0.19-0.03c-0.08-0.04-0.15-0.1-0.14-0.2c0-0.09,0.08-0.1,0.15-0.13
			c0.31-0.13,0.62-0.27,0.93-0.41c0.45-0.2,0.83-0.51,1.17-0.88c0.08-0.09,0.13-0.19,0.2-0.28c0.09-0.13,0.22-0.16,0.34-0.08
			c0.12,0.07,0.15,0.18,0.08,0.33c-0.06,0.12-0.13,0.22-0.22,0.32c-0.32,0.35-0.68,0.64-1.1,0.86c-0.3,0.15-0.6,0.32-0.92,0.43
			C16.54,31.5,16.44,31.53,16.35,31.53z"/>
		<path d="M18.48,35.35c-0.31,0-0.55-0.25-0.55-0.55c0-0.32,0.28-0.6,0.59-0.6c0.31,0,0.56,0.26,0.56,0.57
			C19.08,35.09,18.81,35.35,18.48,35.35z"/>
		<path d="M22.09,34.63c-0.01,0.31-0.26,0.55-0.58,0.54c-0.3-0.01-0.55-0.26-0.54-0.56c0.01-0.31,0.27-0.55,0.58-0.54
			C21.86,34.08,22.1,34.32,22.09,34.63z"/>
		<path d="M22.39,33.07c0.31,0,0.54,0.25,0.54,0.56c-0.01,0.3-0.26,0.55-0.56,0.54c-0.29-0.01-0.53-0.25-0.53-0.55
			C21.83,33.31,22.08,33.07,22.39,33.07z"/>
		<path d="M20.5,35.24c-0.01,0.3-0.26,0.54-0.57,0.53c-0.29-0.01-0.53-0.25-0.52-0.55c0-0.3,0.25-0.54,0.56-0.54
			C20.27,34.69,20.5,34.93,20.5,35.24z"/>
		<path d="M18.63,31.22c-0.11-0.01-0.19-0.06-0.24-0.16c-0.05-0.1,0.02-0.16,0.08-0.22c0.08-0.07,0.16-0.14,0.25-0.21
			c0.11-0.08,0.22-0.08,0.32-0.02c0.11,0.08,0.12,0.16,0.04,0.27c-0.06,0.09-0.13,0.18-0.21,0.24
			C18.8,31.18,18.72,31.22,18.63,31.22z"/>
	</g>
</g>
</svg>
